<mxfile host="app.diagrams.net" modified="2023-11-07T08:37:46.068Z" agent="Mozilla/5.0 (Macintosh; Intel Mac OS X 10_15_7) AppleWebKit/537.36 (KHTML, like Gecko) Chrome/118.0.0.0 Safari/537.36" etag="_hisLpb7guff06GKDWXB" version="22.0.8" type="github">
  <diagram name="第 1 页" id="6ppvo3OB2JOTQLogzsc_">
    <mxGraphModel dx="1781" dy="585" grid="1" gridSize="10" guides="1" tooltips="1" connect="1" arrows="1" fold="1" page="1" pageScale="1" pageWidth="827" pageHeight="1169" math="0" shadow="0">
      <root>
        <mxCell id="0" />
        <mxCell id="1" parent="0" />
        <mxCell id="kPXF-EqfMkH5AO7zfkSI-1" style="edgeStyle=none;html=1;" edge="1" parent="1" source="kPXF-EqfMkH5AO7zfkSI-2">
          <mxGeometry relative="1" as="geometry">
            <mxPoint x="260" y="370" as="targetPoint" />
          </mxGeometry>
        </mxCell>
        <mxCell id="kPXF-EqfMkH5AO7zfkSI-2" value="kubelet" style="rounded=1;whiteSpace=wrap;html=1;" vertex="1" parent="1">
          <mxGeometry x="90" y="340" width="120" height="60" as="geometry" />
        </mxCell>
        <mxCell id="kPXF-EqfMkH5AO7zfkSI-3" style="edgeStyle=none;html=1;entryX=0;entryY=0.5;entryDx=0;entryDy=0;" edge="1" parent="1" source="kPXF-EqfMkH5AO7zfkSI-4" target="kPXF-EqfMkH5AO7zfkSI-9">
          <mxGeometry relative="1" as="geometry" />
        </mxCell>
        <mxCell id="kPXF-EqfMkH5AO7zfkSI-4" value="" style="rounded=0;whiteSpace=wrap;html=1;" vertex="1" parent="1">
          <mxGeometry x="260" y="220" width="420" height="310" as="geometry" />
        </mxCell>
        <mxCell id="kPXF-EqfMkH5AO7zfkSI-5" value="CRI Runtime (containerd/cri-o)" style="text;html=1;strokeColor=none;fillColor=none;align=center;verticalAlign=middle;whiteSpace=wrap;rounded=0;" vertex="1" parent="1">
          <mxGeometry x="420" y="250" width="100" height="40" as="geometry" />
        </mxCell>
        <mxCell id="kPXF-EqfMkH5AO7zfkSI-6" value="OCI Spec &lt;br&gt;(From CRI Request)" style="rounded=1;whiteSpace=wrap;html=1;" vertex="1" parent="1">
          <mxGeometry x="410" y="340" width="120" height="60" as="geometry" />
        </mxCell>
        <mxCell id="kPXF-EqfMkH5AO7zfkSI-7" value="" style="endArrow=classic;html=1;entryX=0;entryY=0.5;entryDx=0;entryDy=0;dashed=1;" edge="1" parent="1" target="kPXF-EqfMkH5AO7zfkSI-6">
          <mxGeometry width="50" height="50" relative="1" as="geometry">
            <mxPoint x="260" y="370" as="sourcePoint" />
            <mxPoint x="310" y="320" as="targetPoint" />
          </mxGeometry>
        </mxCell>
        <mxCell id="kPXF-EqfMkH5AO7zfkSI-8" value="" style="endArrow=classic;html=1;entryX=0;entryY=0.5;entryDx=0;entryDy=0;dashed=1;" edge="1" parent="1">
          <mxGeometry width="50" height="50" relative="1" as="geometry">
            <mxPoint x="530" y="369.4100000000001" as="sourcePoint" />
            <mxPoint x="680" y="369.4100000000001" as="targetPoint" />
          </mxGeometry>
        </mxCell>
        <mxCell id="kPXF-EqfMkH5AO7zfkSI-9" value="OCI-compatible Runtime&lt;br&gt;(runc/rund/kata)" style="rounded=1;whiteSpace=wrap;html=1;" vertex="1" parent="1">
          <mxGeometry x="740" y="340" width="120" height="60" as="geometry" />
        </mxCell>
        <mxCell id="kPXF-EqfMkH5AO7zfkSI-10" style="edgeStyle=none;html=1;entryX=0.25;entryY=0;entryDx=0;entryDy=0;exitX=0.25;exitY=1;exitDx=0;exitDy=0;" edge="1" parent="1" source="kPXF-EqfMkH5AO7zfkSI-12" target="kPXF-EqfMkH5AO7zfkSI-19">
          <mxGeometry relative="1" as="geometry" />
        </mxCell>
        <mxCell id="kPXF-EqfMkH5AO7zfkSI-11" value="NRI Request" style="edgeLabel;html=1;align=center;verticalAlign=middle;resizable=0;points=[];" vertex="1" connectable="0" parent="kPXF-EqfMkH5AO7zfkSI-10">
          <mxGeometry x="0.0416" y="2" relative="1" as="geometry">
            <mxPoint x="-42" as="offset" />
          </mxGeometry>
        </mxCell>
        <mxCell id="kPXF-EqfMkH5AO7zfkSI-12" value="NRI Adaptation" style="rounded=1;whiteSpace=wrap;html=1;fillColor=#ffe6cc;strokeColor=#d79b00;" vertex="1" parent="1">
          <mxGeometry x="410" y="420" width="120" height="60" as="geometry" />
        </mxCell>
        <mxCell id="kPXF-EqfMkH5AO7zfkSI-13" value="" style="curved=1;endArrow=classic;html=1;dashed=1;entryX=0;entryY=0.5;entryDx=0;entryDy=0;" edge="1" parent="1" target="kPXF-EqfMkH5AO7zfkSI-12">
          <mxGeometry width="50" height="50" relative="1" as="geometry">
            <mxPoint x="410" y="370" as="sourcePoint" />
            <mxPoint x="360" y="400" as="targetPoint" />
            <Array as="points">
              <mxPoint x="370" y="390" />
              <mxPoint x="370" y="430" />
            </Array>
          </mxGeometry>
        </mxCell>
        <mxCell id="kPXF-EqfMkH5AO7zfkSI-14" value="" style="curved=1;endArrow=classic;html=1;dashed=1;entryX=1;entryY=0.5;entryDx=0;entryDy=0;" edge="1" parent="1" target="kPXF-EqfMkH5AO7zfkSI-6">
          <mxGeometry width="50" height="50" relative="1" as="geometry">
            <mxPoint x="530" y="450" as="sourcePoint" />
            <mxPoint x="580" y="400" as="targetPoint" />
            <Array as="points">
              <mxPoint x="560" y="430" />
              <mxPoint x="560" y="390" />
            </Array>
          </mxGeometry>
        </mxCell>
        <mxCell id="kPXF-EqfMkH5AO7zfkSI-15" style="edgeStyle=none;html=1;exitX=0.5;exitY=1;exitDx=0;exitDy=0;" edge="1" parent="1" source="kPXF-EqfMkH5AO7zfkSI-16" target="kPXF-EqfMkH5AO7zfkSI-38">
          <mxGeometry relative="1" as="geometry" />
        </mxCell>
        <mxCell id="kPXF-EqfMkH5AO7zfkSI-16" value="" style="rounded=0;whiteSpace=wrap;html=1;" vertex="1" parent="1">
          <mxGeometry x="260" y="600" width="420" height="390" as="geometry" />
        </mxCell>
        <mxCell id="kPXF-EqfMkH5AO7zfkSI-17" style="edgeStyle=none;html=1;exitX=0.75;exitY=0;exitDx=0;exitDy=0;entryX=0.75;entryY=1;entryDx=0;entryDy=0;" edge="1" parent="1" source="kPXF-EqfMkH5AO7zfkSI-19" target="kPXF-EqfMkH5AO7zfkSI-12">
          <mxGeometry relative="1" as="geometry" />
        </mxCell>
        <mxCell id="kPXF-EqfMkH5AO7zfkSI-18" value="NRI Response" style="edgeLabel;html=1;align=center;verticalAlign=middle;resizable=0;points=[];" vertex="1" connectable="0" parent="kPXF-EqfMkH5AO7zfkSI-17">
          <mxGeometry x="-0.0102" y="-4" relative="1" as="geometry">
            <mxPoint x="36" y="1" as="offset" />
          </mxGeometry>
        </mxCell>
        <mxCell id="kPXF-EqfMkH5AO7zfkSI-19" value="Koord NRI Plugin" style="rounded=1;whiteSpace=wrap;html=1;fillColor=#ffe6cc;strokeColor=#d79b00;" vertex="1" parent="1">
          <mxGeometry x="410" y="555" width="120" height="60" as="geometry" />
        </mxCell>
        <mxCell id="kPXF-EqfMkH5AO7zfkSI-20" value="Koordlet" style="text;html=1;strokeColor=none;fillColor=none;align=center;verticalAlign=middle;whiteSpace=wrap;rounded=0;" vertex="1" parent="1">
          <mxGeometry x="270" y="615" width="60" height="30" as="geometry" />
        </mxCell>
        <mxCell id="kPXF-EqfMkH5AO7zfkSI-21" value="" style="rounded=1;whiteSpace=wrap;html=1;" vertex="1" parent="1">
          <mxGeometry x="290" y="670" width="380" height="240" as="geometry" />
        </mxCell>
        <mxCell id="kPXF-EqfMkH5AO7zfkSI-22" value="BatchResource" style="rounded=1;whiteSpace=wrap;html=1;fillColor=#ffe6cc;strokeColor=#d79b00;" vertex="1" parent="1">
          <mxGeometry x="324" y="677.5" width="90" height="55" as="geometry" />
        </mxCell>
        <mxCell id="kPXF-EqfMkH5AO7zfkSI-23" value="CPUSet" style="rounded=1;whiteSpace=wrap;html=1;fillColor=#ffe6cc;strokeColor=#d79b00;" vertex="1" parent="1">
          <mxGeometry x="550" y="677.5" width="90" height="55" as="geometry" />
        </mxCell>
        <mxCell id="kPXF-EqfMkH5AO7zfkSI-24" value="GPU" style="rounded=1;whiteSpace=wrap;html=1;fillColor=#ffe6cc;strokeColor=#d79b00;" vertex="1" parent="1">
          <mxGeometry x="430" y="677.5" width="90" height="55" as="geometry" />
        </mxCell>
        <mxCell id="kPXF-EqfMkH5AO7zfkSI-25" value="" style="rounded=1;whiteSpace=wrap;html=1;fillColor=#f8cecc;strokeColor=#b85450;" vertex="1" parent="1">
          <mxGeometry x="325" y="750" width="325" height="150" as="geometry" />
        </mxCell>
        <mxCell id="kPXF-EqfMkH5AO7zfkSI-26" value="RunPodSanbox" style="rounded=0;whiteSpace=wrap;html=1;" vertex="1" parent="1">
          <mxGeometry x="330" y="760" width="120" height="40" as="geometry" />
        </mxCell>
        <mxCell id="kPXF-EqfMkH5AO7zfkSI-27" value="CreateContainer" style="rounded=0;whiteSpace=wrap;html=1;" vertex="1" parent="1">
          <mxGeometry x="510" y="760" width="121" height="40" as="geometry" />
        </mxCell>
        <mxCell id="kPXF-EqfMkH5AO7zfkSI-28" value="UpdateContainer" style="rounded=0;whiteSpace=wrap;html=1;" vertex="1" parent="1">
          <mxGeometry x="330" y="820" width="120" height="40" as="geometry" />
        </mxCell>
        <mxCell id="kPXF-EqfMkH5AO7zfkSI-29" value="RemovePodSandbox" style="rounded=0;whiteSpace=wrap;html=1;" vertex="1" parent="1">
          <mxGeometry x="510" y="820" width="121" height="40" as="geometry" />
        </mxCell>
        <mxCell id="kPXF-EqfMkH5AO7zfkSI-30" value="RDT" style="text;html=1;strokeColor=none;fillColor=none;align=center;verticalAlign=middle;whiteSpace=wrap;rounded=0;" vertex="1" parent="1">
          <mxGeometry x="450" y="800" width="60" height="30" as="geometry" />
        </mxCell>
        <mxCell id="kPXF-EqfMkH5AO7zfkSI-31" style="edgeStyle=none;html=1;" edge="1" parent="1" source="kPXF-EqfMkH5AO7zfkSI-32">
          <mxGeometry relative="1" as="geometry">
            <mxPoint x="130" y="885" as="targetPoint" />
          </mxGeometry>
        </mxCell>
        <mxCell id="kPXF-EqfMkH5AO7zfkSI-32" value="rule" style="rounded=1;whiteSpace=wrap;html=1;" vertex="1" parent="1">
          <mxGeometry x="450" y="870" width="60" height="30" as="geometry" />
        </mxCell>
        <mxCell id="kPXF-EqfMkH5AO7zfkSI-33" value="ConfigMap" style="whiteSpace=wrap;html=1;shape=mxgraph.basic.document" vertex="1" parent="1">
          <mxGeometry x="-90" y="670" width="90" height="45" as="geometry" />
        </mxCell>
        <mxCell id="kPXF-EqfMkH5AO7zfkSI-34" value="" style="shape=image;verticalLabelPosition=bottom;labelBackgroundColor=default;verticalAlign=top;aspect=fixed;imageAspect=0;image=data:image/png,iVBORw0KGgoAAAANSUhEUgAAAmgAAAOiCAYAAADE6ysvAAAMQGlDQ1BJQ0MgUHJvZmlsZQAASImVVwdYU8kWnluSkEBooUsJvQkiNYCUEFoA6UUQlZAECCXGQFCxI4sKrgUVC9jQVRHFDogFRRQLi2LviwUVZV0s2JU3KaDrvvK9831z73//OfOfM+fOLQOA2gmOSJSLqgOQJywQx4YE0Mclp9BJTwECCIAG7IEth5svYkZHRwBoQ+e/27vr0BvaFQep1j/7/6tp8Pj5XACQaIjTefncPIgPAoBXc0XiAgCIUt58aoFIimEDWmKYIMQLpThTjqulOF2O98p84mNZELcBoKTC4YgzAVC9BHl6ITcTaqj2Q+wk5AmEAKjRIfbNy5vMgzgNYhvoI4JYqs9I/0En82+a6cOaHE7mMJbPRWZKgYJ8US5n+v9Zjv9tebmSoRhWsKlkiUNjpXOGdbuZMzlcilUg7hOmR0ZBrAnxBwFP5g8xSsmShCbI/VFDbj4L1gzoQOzE4wSGQ2wIcbAwNzJCwadnCILZEMMVgk4TFLDjIdaDeCE/PyhO4bNJPDlWEQttyBCzmAr+LEcsiyuNdV+Sk8BU6L/O4rMV+phqUVZ8EsQUiC0KBYmREKtC7JifExeu8BlTlMWKHPIRS2Kl+VtAHMsXhgTI9bHCDHFwrMK/LC9/aL7YpiwBO1KB9xdkxYfK64O1cTmy/OFcsEt8ITNhSIefPy5iaC48fmCQfO7YM74wIU6h80FUEBArH4tTRLnRCn/cjJ8bIuXNIHbNL4xTjMUTC+CClOvjGaKC6Hh5nnhRNicsWp4PvgxEABYIBHQggS0dTAbZQNDZ19gHr+Q9wYADxCAT8IGDghkakSTrEcJjHCgCf0LEB/nD4wJkvXxQCPmvw6z86AAyZL2FshE54AnEeSAc5MJriWyUcDhaIngMGcE/onNg48J8c2GT9v97foj9zjAhE6FgJEMR6WpDnsQgYiAxlBhMtMUNcF/cG4+AR3/YnHEG7jk0j+/+hCeELsJDwjVCN+HWJEGx+Kcsx4JuqB+sqEX6j7XAraCmGx6A+0B1qIzr4AbAAXeFcZi4H4zsBlmWIm9pVeg/af9tBj/cDYUf2YmMknXJ/mSbn0eq2qm6DatIa/1jfeS5pg/XmzXc83N81g/V58Fz+M+e2ELsANaOncTOYUexRkDHWrAmrAM7JsXDq+uxbHUNRYuV5ZMDdQT/iDd0Z6WVzHeqc+p1+iLvK+BPk76jAWuyaLpYkJlVQGfCLwKfzhZyHUfSnZ2cXQCQfl/kr683MbLvBqLT8Z2b/wcAPi2Dg4NHvnNhLQDs84CP/+HvnA0DfjqUATh7mCsRF8o5XHogwLeEGnzS9IExMAc2cD7OwB14A38QBMJAFIgHyWAizD4LrnMxmApmgnmgFJSDZWAVWAc2gi1gB9gN9oNGcBScBGfABXAJXAN34OrpAS9AP3gHPiMIQkKoCA3RR0wQS8QecUYYiC8ShEQgsUgykoZkIkJEgsxE5iPlSAWyDtmM1CL7kMPISeQc0oXcQh4gvchr5BOKoSqoFmqEWqGjUAbKRMPReHQCmolOQYvQEnQJugatQXehDehJ9AJ6De1GX6ADGMCUMR3MFHPAGBgLi8JSsAxMjM3GyrBKrAarx5rhfb6CdWN92EeciNNwOu4AV3AonoBz8Sn4bHwxvg7fgTfgbfgV/AHej38jUAmGBHuCF4FNGEfIJEwllBIqCdsIhwin4bPUQ3hHJBJ1iNZED/gsJhOziTOIi4nriXuIJ4hdxEfEARKJpE+yJ/mQokgcUgGplLSWtIvUQrpM6iF9UFJWMlFyVgpWSlESKhUrVSrtVDqudFnpqdJnsjrZkuxFjiLzyNPJS8lbyc3ki+Qe8meKBsWa4kOJp2RT5lHWUOoppyl3KW+UlZXNlD2VY5QFynOV1yjvVT6r/ED5o4qmip0KSyVVRaKyRGW7ygmVWypvqFSqFdWfmkItoC6h1lJPUe9TP6jSVB1V2ao81TmqVaoNqpdVX6qR1SzVmGoT1YrUKtUOqF1U61Mnq1ups9Q56rPVq9QPq99QH9CgaYzWiNLI01issVPjnMYzTZKmlWaQJk+zRHOL5inNRzSMZk5j0bi0+bSttNO0Hi2ilrUWWytbq1xrt1anVr+2prardqL2NO0q7WPa3TqYjpUOWydXZ6nOfp3rOp90jXSZunzdRbr1upd13+uN0PPX4+uV6e3Ru6b3SZ+uH6Sfo79cv1H/ngFuYGcQYzDVYIPBaYO+EVojvEdwR5SN2D/itiFqaGcYazjDcIthh+GAkbFRiJHIaK3RKaM+Yx1jf+Ns45XGx417TWgmviYCk5UmLSbP6dp0Jj2XvobeRu83NTQNNZWYbjbtNP1sZm2WYFZstsfsnjnFnGGeYb7SvNW838LEYqzFTIs6i9uWZEuGZZblast2y/dW1lZJVgusGq2eWetZs62LrOus79pQbfxsptjU2Fy1JdoybHNs19teskPt3Oyy7KrsLtqj9u72Avv19l0jCSM9RwpH1oy84aDiwHQodKhzeOCo4xjhWOzY6PhylMWolFHLR7WP+ubk5pTrtNXpzmjN0WGji0c3j37tbOfMda5yvupCdQl2mePS5PLK1d6V77rB9aYbzW2s2wK3Vrev7h7uYvd6914PC480j2qPGwwtRjRjMeOsJ8EzwHOO51HPj17uXgVe+73+8nbwzvHe6f1sjPUY/pitYx75mPlwfDb7dPvSfdN8N/l2+5n6cfxq/B76m/vz/Lf5P2XaMrOZu5gvA5wCxAGHAt6zvFizWCcCscCQwLLAziDNoISgdUH3g82CM4PrgvtD3EJmhJwIJYSGhy4PvcE2YnPZtez+MI+wWWFt4SrhceHrwh9G2EWII5rHomPDxq4YezfSMlIY2RgFothRK6LuRVtHT4k+EkOMiY6pinkSOzp2Zmx7HC1uUtzOuHfxAfFL4+8k2CRIEloT1RJTE2sT3ycFJlUkdY8bNW7WuAvJBsmC5KYUUkpiyraUgfFB41eN70l1Sy1NvT7BesK0CecmGkzMnXhsktokzqQDaYS0pLSdaV84UZwazkA6O706vZ/L4q7mvuD581byevk+/Ar+0wyfjIqMZ5k+mSsye7P8siqz+gQswTrBq+zQ7I3Z73OicrbnDOYm5e7JU8pLyzss1BTmCNsmG0+eNrlLZC8qFXVP8Zqyakq/OFy8LR/Jn5DfVKAFf+Q7JDaSXyQPCn0Lqwo/TE2cemCaxjThtI7pdtMXTX9aFFz02wx8BndG60zTmfNmPpjFnLV5NjI7fXbrHPM5JXN65obM3TGPMi9n3u/FTsUVxW/nJ81vLjEqmVvy6JeQX+pKVUvFpTcWeC/YuBBfKFjYuchl0dpF38p4ZefLncory78s5i4+/+voX9f8OrgkY0nnUvelG5YRlwmXXV/ut3xHhUZFUcWjFWNXNKykryxb+XbVpFXnKl0rN66mrJas7l4TsaZprcXaZWu/rMtad60qoGpPtWH1our363nrL2/w31C/0Whj+cZPmwSbbm4O2dxQY1VTuYW4pXDLk62JW9t/Y/xWu81gW/m2r9uF27t3xO5oq/Word1puHNpHVonqevdlbrr0u7A3U31DvWb9+jsKd8L9kr2Pt+Xtu/6/vD9rQcYB+oPWh6sPkQ7VNaANExv6G/MauxuSm7qOhx2uLXZu/nQEccj24+aHq06pn1s6XHK8ZLjgy1FLQMnRCf6TmaefNQ6qfXOqXGnrrbFtHWeDj999kzwmVPtzPaWsz5nj57zOnf4PON84wX3Cw0dbh2Hfnf7/VCne2fDRY+LTZc8LzV3jek6ftnv8skrgVfOXGVfvXAt8lrX9YTrN2+k3ui+ybv57FburVe3C29/vjP3LuFu2T31e5X3De/X/GH7x55u9+5jDwIfdDyMe3jnEffRi8f5j7/0lDyhPql8avK09pnzs6O9wb2Xno9/3vNC9OJzX+mfGn9Wv7R5efAv/786+sf197wSvxp8vfiN/pvtb13ftg5ED9x/l/fu8/uyD/ofdnxkfGz/lPTp6eepX0hf1ny1/dr8Lfzb3cG8wUERR8yR/QpgsKEZGQC83g4ANRkAGtyfUcbL938yQ+R7VhkC/wnL94gycwegHv6/x/TBv5sbAOzdCrdfUF8tFYBoKgDxngB1cRluQ3s12b5SakS4D9gU9DU9Lx38G5PvOX/I++czkKq6gp/P/wIXPXxslpIobgAAAIplWElmTU0AKgAAAAgABAEaAAUAAAABAAAAPgEbAAUAAAABAAAARgEoAAMAAAABAAIAAIdpAAQAAAABAAAATgAAAAAAAACQAAAAAQAAAJAAAAABAAOShgAHAAAAEgAAAHigAgAEAAAAAQAAAmigAwAEAAAAAQAAA6IAAAAAQVNDSUkAAABTY3JlZW5zaG90IS4NHgAAAAlwSFlzAAAWJQAAFiUBSVIk8AAAAdZpVFh0WE1MOmNvbS5hZG9iZS54bXAAAAAAADx4OnhtcG1ldGEgeG1sbnM6eD0iYWRvYmU6bnM6bWV0YS8iIHg6eG1wdGs9IlhNUCBDb3JlIDYuMC4wIj4KICAgPHJkZjpSREYgeG1sbnM6cmRmPSJodHRwOi8vd3d3LnczLm9yZy8xOTk5LzAyLzIyLXJkZi1zeW50YXgtbnMjIj4KICAgICAgPHJkZjpEZXNjcmlwdGlvbiByZGY6YWJvdXQ9IiIKICAgICAgICAgICAgeG1sbnM6ZXhpZj0iaHR0cDovL25zLmFkb2JlLmNvbS9leGlmLzEuMC8iPgogICAgICAgICA8ZXhpZjpQaXhlbFlEaW1lbnNpb24+OTMwPC9leGlmOlBpeGVsWURpbWVuc2lvbj4KICAgICAgICAgPGV4aWY6UGl4ZWxYRGltZW5zaW9uPjYxNjwvZXhpZjpQaXhlbFhEaW1lbnNpb24+CiAgICAgICAgIDxleGlmOlVzZXJDb21tZW50PlNjcmVlbnNob3Q8L2V4aWY6VXNlckNvbW1lbnQ+CiAgICAgIDwvcmRmOkRlc2NyaXB0aW9uPgogICA8L3JkZjpSREY+CjwveDp4bXBtZXRhPgrx9vlRAAAAHGlET1QAAAACAAAAAAAAAdEAAAAoAAAB0QAAAdEAAPXY0dYJwAAAQABJREFUeAHsXQV4FFcXvZAgIYEE9+BFCqVIaX+gLVbc3V2KFlrc3QulWLHiDsXdtUjxFikEdw2EQBT+e154y+xms2xCIJv03n7dmXnzbM7bMGevvVgv/AJek4ggIAgIAoKAICAICAKCgMMgEEsImsOshUxEEBAEBAFBQBAQBAQBhYAQNPkiCAKCgCAgCAgCgoAg4GAICEFzsAWR6QgCgoAgIAgIAoKAICAETb4DgoAgIAgIAoKAICAIOBgCQtAcbEFkOoKAICAICAKCgCAgCAhBk++AICAICAKCgCAgCAgCDoaAEDQHWxCZjiAgCAgCgoAgIAgIAkLQ5DsgCAgCgoAgIAgIAoKAgyEgBM3BFkSmIwgIAoKAICAICAKCgBA0+Q4IAoKAICAICAKCgCDgYAgIQXOwBZHpCAKCgCAgCAgCgoAgIARNvgOCgCAgCAgCgoAgIAg4GAJC0BxsQWQ6goAgIAgIAoKAICAICEGT74AgIAgIAoKAICAICAIOhoAQNAdbEJmOICAICAKCgCAgCAgCQtDkOyAICAKCgCAgCAgCgoCDISAEzcEWRKYjCAgCgoAgIAgIAoKAEDT5DggCgoAgIAgIAoKAIOBgCEQbgnbpsT+de/iSPN3jUt6UCRwMxqiZjrdfMO277kOucWJTiUyJomYSMqogIAgIAoKAICAIRDoC0YagrTr/hBacfkSlMieitgVThAJi+rEHdOmJH32Z1o1q5Ewc6r4umHn8Af372I8KpXGlmrmS6OJoebz4yI967rhJqd3i0KTyGaLlMzjCpO/cuU3Lli6iGzeuq+kMHjKSEiSQHwGOsDYyB0FAEBAE/qsIxBiCtvLcE1p05hGlSxSXJpT1tLqewa+Jmqy6TC+DXlGXr1JSUc+EVutFl0IhaO+3UleuXKbFi+bTrl3b6dWrV6bOVq/ZTAkTRu/vhulh5EQQEAQEAUEgWiIQbQiaT0AwPWWTnltcJ/KI7xQK7Kve/vTT1huqfEaljJTExTlUnfMP/ajPzpsUOxbR7CqZVF+hKkWjgkBmnPd8A8mZHygVa9FE7Edg964dNHToAHr9+jXFixefChX6kvbt26M6EIJmP45SUxAQBAQBQeDDIBBtCJo9j9963VV69DKIOn2Zkr7NEFoDsuyfx7SU/8+ZzIWGlkhrT5dSJ4YisG7tapo+fQpVrVqDatSsQ08eP6KWLRurpxWCFkMXXR5LEBAEBIFohIDdBM038BWduONLx++8oDvPAwkO6kkTOJMnmxS/SOtK+VKF9tnxDXhF808/VBqelvmT01avp3QM7X0CKVPieFQkvRsV4rZhyc4rz+j60wCz258kjU+FuZ01+e2v+7Tt8jMqljEhdSyUMlSVvjtvqUCDhp8lpWo5QvupBb96TZt5jhdY03aNx4XzfUaPeFTxEw9KkzBsDdUWbnPliT99w6QwB5O/w7eeM1Yv1FgJWeMHfMpn86B4Tqy6MwgCHzZc9KbbjMdTvyBKFM+JUrImrEBqV/WMcS3qo+k/D17S0Vu+hl5Itatuw+9OV97PAQXAH9rGOKx1y8DPVpSxzGtl7aCdm3XigWrapkAKNe7BG8/VM7nGcaL8qRMoDGOZP5IeSh1PnTpB0FRpad2mPbm4uOjL9z5ev36VVq5YRokSuVOLlm2s9hccHEyTJo5XJsxmzVuTh4eHqnfr1k1yd/cgN7eQ79KVy15C0KwiKIWCgCAgCAgCUYGA3QQNzvWbLj1Vc8RLOUl8ZwJp82N/LkiV7IkJxIff+yaBNgtaLZCBCkxyVrOjfzzn2BSba8APDFI3dxKqFYaz/sj9d+jobXMyElaQAPpCXbSBeRNmTqNgno1XXyGQsHFlPCkDR4Ma5S6TznGH7pIXkyYIzKggmIFcPz7Puf0XKcIkhmMO3qVDN59TmwLJ6e7zIFpz4Ymxa3U+pHhaypX8LTkBWZ3GgQ0QQJaMye4zHs//DS5jvktPmZnEWsq6f71pzsmHZsXvChLAM0w5ep/2XvNR7RIw8QQO/kzCMHZVJqtYO6O85LVtyP56kF5FU9NofkbUfcUmQW6qJCwiHHKXaPWqFTSRyZGWlX+sZ4IUmhjr++E9+vv7U80aFenFixc0Z+5iSp/eM1QXR48cop49f6K06dLTvHlLQt3XBZcvX6JWLZuoS9GgaVTkKAgIAoKAIBBVCNhN0BBB+YJf2iBISHUBvyfIOdY2jfvzLj1mMgatFV7aWjRBwzWqf8/Rl8UyJlIvemhzJjFpAFEYWSodZUsSXzczHQOYQAQzIYCAmCz9+3GYUZyo4x/0mpqsvqxI1a/lPCltwrckDJq/YftuKyI0rWJGVDcJCMePW6/TDdaafcHRna2YaCVlkofyXVefESJEocz6tVwG1d7U8M2JJmjQKp2595LqMOlEP9Aw3mPiB63eNxyQkD1ZyDOCnDZjsgjiBGJUOrM7ucYFbSWlTYNG7jvGGQEPlhLEbdAOAg3cwN233hnFufHiU6UNg0bwp8Kp6DNOU4IuDvAaTOY1QJ+9v06tNHd6PCNBg99fs8+TcVCFm9KcgqiDbIOoT2JMwvJ/+9AEDXMdNWoobd2yiZo0aUGNmzTX0zcdR43k+1vDvq8rCkHTSMhREBAEBAFBwBEQsJug2ZrsdiYgU9m8mCeFCw0s9ta3y0jQymRxp9ZMfIwymzVB65l4fZXOjboxcbAl70qzodsO3nubTt19QTCplsvqrouV1gkkr3SWRKzpMk/TAcIBDSFI4rCS6RQZMzXkk4lH7tHuqz5UnMllh0LmbVFPEzSc92RtE8iZLdHBCtDSzaiUyUzraKud5T17ojhB5tptuKYINOaOZzAKSO+ys48pKz/7KCbKWowEDebTBnnMNWzaXIyUJyDt1uRjELRjx45S926dlfYMWjSjBAQEUI3q0LD50rz5Sylt2rfPZ6yHcyFolojItSAgCAgCgkBUIhApBA1mwe7bbyj/qSmGfFxGgjaciU929h8zim4HE+LC6pmNt0Kd20vQ4NP1+4mHyretR5HUpn66bLmu/NlgritoQaB6br9JFzk32g8cXAA/MkvR80zhGoemVshgedtE0LLx843k53yXQPPVg/GCBmoy45WS+42I2EPQrrC/WVeOboU/25yqmUP5wd3nKNC2TOAg86tlJpg/IUaCZs0krE3edT5NQrX5f2vy778X6NixI6Zb1avXUhGTpoJIOEF6jDq1q9JjdvKfNn0OZc2azdTrvr27aeDAPpQjRy6aPGWGqdzaiRA0a6hImSAgCAgCgkBUIRAuggZndmi84GT+4EWQ8kHDxJGqAOZIaIRmVc5kehYjQUNaCzjBGwU+bI3f+DnNY/KgzXzGOvrcXoIGX7L2G68pB38QEphWEdDQYu0VisMkZa4VkoI5YC4uTBSdmJ+8saqqoUOMiaTMuygwkhg9N61BQzABTIHvEpgUO2++roIt3Ni0WSR9QuWfhgCIFK6h04OE1Z89BO0IBxSMOnBHBTlMZHOkpeD56q7wUmbOcaXTq8AB1DEStAVM3FzeEDfdfglr3paz5q18NnbQz2euGdV1PtZx8uQJ9MfKZVS3bgNq1bqdadhBg/rS3j27qH37H6h6jdqmcmsnQtCsoSJlgoAgIAgIAlGFgN0EDSa+SUfvKfIC/6w0ieKQG0fzQQsE37STbFZ0ZwL2OxMxLZqgoc7yWlmV75m+p4+1mRyE5biv6+BoL0FD3Y6brrMvV4DSZkGrhe2Qfjl0T0Wa9v0mDaqY5DnnV2vC/mAQRDOCpNmSdmzSsySSmqA1z5eMKnC0pj0Csguz8FmOyjQKtHu1OWgiS5LQAQLGeji3h6Bp862t1CKtOJADPoRGPzQjQcPagegaRZtGHYGgXTh/jtq1a0kpU6aihYtW8HcylgocqFG9AgUFBdGy5WsocWLrWj79TELQNBJyFAQEAUFAEHAEBOwiaA9ZW9Zh0zWlZQFBgR8TSJeWf3nLoV685VBYBA31FtXIEsq8Bv8oaG8gUytktKk9Cg9BQ5Qj/M3qs98Utn2CIzxSdlj6pWFcVvxRPZBEVpuN5sjJLFYiJ1HPlmiChijO0uxrFx4BtqfvvVDpL/7iKFRo1yBjeS5IRWJL7CFoiNyccPgeZeKUGmNZQ2ZNGrEGESR7WIl0nCbkTSADX+soTkcnaHimJo3r0s2bN+jXib/Rp5/moW3bNtPIEUOoYMFCNGr020hSa8+PMiFoYSEj5YKAICAICAJRgYBdBG3/9ec0nlNQIEqxz9fmGihMWmuobBE0+FpZRvuBnLRZf1WRvaU1s4ZyzjcCEh6Cdub+SxXdmJuDFgZx0ALGwFjwH4MfmaV0ZPIJjZZRg2RZx9b1+xA0Y7/YLWHwntt0mXOqIW1J47zmjvnGuji3h6CdYw1d3123QpFn3RdSbdRfGUKSp3NqEmhHIZGhQfP39yNf37dpUqDFgnbrQ8i8ub/T3LmzqFq1mtShYxfqxak1jnCKjR49+1Lp0uXeOaQQtHdCJBUEAUFAEBAEPiICdhG0NRe8ad6phyo6EVGKlgIfJ/g62SJo8FOCOcwoSD+B5LJIh4G0GLYkPAQNJlOYLaGNQgoPbAFla49OaJigaSqRKZHKd2ZrHtbuRRZBQ9/Q9EHjh4AKBFbYEnsIGvzvWq67okzTo0ql52hNc60cks/+zGlS4GM2n/3zNH+KDIL2MaI4NT5IPNu4UR1lypwxc64KHHB2dqYVK9fbtfG5EDSNpBwFAUFAEBAEHAEBuwgaTG8jOAGsE7+9oWUx7oWptWt4GFsEDdozmNB0W/h+9d5xi26xr1grTolR1pASwxow4SFoaK9JE3YqAHmskt2DNVLWHfjv+/L2UJuvKV+4boVTh9rdAEbH0+xjB22TtZ0P9Fj2mjgRZPGck9JCw2cp/Tmv2T+sAbSVkFe3sYegoa4moHk5/xmiWBEsAcEa9N91m3dN4ISv7PdWj/O3aYluBA3zbt+uFZ0/f5a++ba4Cg4oXrwk9e03WD+SzaMQNJvwyE1BQBAQBASBj4yAXQQNvmLdtt1QiVwRdfhFGjdKzVsfwfcM5A0+aUjoGhZBA7FDdCI0Wsh5FpuvsR0SIi7TsPYM0YOaNOjnRyJbmCq1XPUO4MSsfqp+ruRv03Ugaa41x3ytidLtYeq0Roj0fSRz/f3kA6VpypPShbImjs87CMRSps8L/JyYq7V8YGgfXoKmTcLYPgq7C2AnAARUnOYktzefBaidC6D5S2+RqBamTySx1YLN47F7ArRf2DZLC5IIg/Rqgfm2J6f1QKRqBvd4VCBNAsJWTke4LRLpwqw5nndXMAY/REeC9scfy2nypF/0Y9PQYaPpf/8rYrq2PBkxfBCdOHFMFSOY4OnTEGxhio39JiqiQsUqKgmuZVu5FgQEAUFAEBAEPiQCdhE0TAAEBaY3Y9QhyBo0L9iH8wdOGxEWQQP5Qsb5IZxEFgREy2dMhH76XypCpnpLwT6QIE3vkrD84pRpj1NrQPuF3F5zOLrUyTIU0aJzEM7f/nqgNErGW8gh9jk/I/zCtBO98X54CRryoM1mMnjxkb9ppwTdH0yb0PRZG+cwbyeFLZfeJdjzE0EZRoGW8JfDd9U+o7ocerQCHDWKbawsU6BER4L25Mljql2ritp3E/tzLl+xlmDmDEu0n1pY91FekzdSb9uuk60qck8QEAQEAUFAEIh0BOwmaHrke5zY9C5rZJKzsz20aLZcvnWaDRC0JW8IA/KnoX3GxHEJG4k7ooCc3GAiichGbNeERLLWNi5/37ljf1BsHP+ENWEurK0DptiT80MKtGh6s3RoH5EkWEQQEAQEAUFAEBAEHAuBcBO08EzfGkELT3upKwgIAoKAICAICAKCwH8RASFo/8VVl2cWBAQBQUAQEAQEAYdGQAiaQy+PTE4QEAQEAUFAEBAE/osIfFCC9tQ/mIbvu0Nwc0KKDRFBQBAQBAQBQUAQEAQEgXcj8EEJ2ruHlxqCgCAgCAgCgoAgIAgIApYICEGzRESuBQFBQBAQBAQBQUAQiGIEhKBF8QLI8IKAICAICAKCgCAgCFgiIATNEhG5FgQEAUFAEBAEBAFBIIoREIIWxQsgwwsCgoAgIAgIAoKAIGCJgBA0S0TkWhAQBAQBQUAQEAQEgShGQAhaFC+ADC8ICAKCgCAgCAgCgoAlAkLQLBGRa0FAEBAEBAFBQBAQBKIYASFoUbwAMrwgIAgIAoKAICAICAKWCAhBs0RErgUBQUAQEAQEAUFAEIhiBOwmaNefBtCfN55TkgTO9F3mRBGe9qXH/nTu4UvydI9LeVMmiHA/EWm48eJT8uHtp0plSURJXZwj0sUHbfPihS/Fj+9CsWPz3lgOKufPn6VLF/+lR48f0evXryl9Ok8qWaq0zdleOH+OTp85RZkzZ6ECBb6wWVduCgKCgCAgCAgCggCR3QRt//XnNP7QXcqaJD6NKhXxfTVXnX9CC04/olJM8toWTPFR16Djput02yeARpRMR58kjf9Rxw5rsIMH99O2rZvowoXzdO/eXXJycqI0adJSiRLfUdVqNShRIvewmn708pEjhtC2bZvNxv3yy//R8BFjzcosL5YsXkAzZkylChUq048/9bC8HaFrHx8fGjSwj2obK1YsGjR4OCVI4GrW1/Hjf9GihfNUWerUaeinrj3N7suFICAICAKCgCDgqAgIQYuilYH2afbsGYpA4Dxu3LiUMWMmun//Pnl7P1GzGjhoOH399bdRNEPzYQ8e2Ef9+vUkDw8PqlmrLuXJnZecnJ3IzS0hpU/vaV7Z4upDELTHrMGrVbOyaaSevfrRd9+VNV3jZOjQAbRr53ZVljlzVpoxc67ZfbkQBAQBQUAQEAQcFYGPTtB8AoLpqV8wucV1Io/4Th8VF0fSoM2aNU2RM2dnZ6XZgcYM55Bbt27SzJm/UcmSpalo0W8+KkZhDTZ1yq+0YsVSqly5Gv3QuWtY1ayWP3v2VJFOkLkkSZJarRPeQiNBS5YsOWXNmo2GDR9j6sbf34+qV6ugCOTDhw/YvCoEzQSOnAgCgoAgIAg4PAIfnaBFJSKOQtBAWOrXq0EvX76kvn0HUfESpazCEhQUZCJtVit8xEKYE/fu3U1du/aicuUrfsSRrQ9lJGg1atahNatX0oqV6ylhwoSqwe5dO2jIkP6EeyuZWApBs46jlAoCgoAgIAg4JgKRQtCgFVv692MKevWaingmpDwpXMyedueVZ4QgA6PAB6xwejdjkek8MPg1zTrxQF23KZCC/nnwkg5ygAKCC1zjOFH+1AmoWo7ExK5HVgX1MabXE39KEt+Z8qR0ocrZE1Pnze/2QduwYa1ygkfH0PY0atzM6hjvUzj79xm0YMEcSpEiJS1avJKfI4wHCWOQnTu30eFDB8nLy4vixHGmLFmyUbHiJalgwUJWWyxcMJdNp/cUWYGP26aN6+nUqeMUEBBAOXN+Si1afm8iNroD3Js86Rd9SUePHlY+cnnz5jMzaWbKlJl95Wqa6umTTZvW09Url/WlOub6NDd9+20JszLLi1MnT9DmzRvo/IVzlJLx+fzz/FS7Tn1aunQheT95QtVr1KaUKVORkaBNnDSdOnZoTV27MXksF0Ie+/fvRX9zYEK37n2ob5/uoQhaUFAgneSxDv15gC5f9iJo2eDDhuf5lOdZoWIVq+uylf0F//n7jNJspmZfwVV/LKczPA7aol3deg0Zy4gH0VjiIdeCgCAgCAgC/00E3pugebO5ctCeW4qAlcniTq0KJCdLujFy/x06etvXDGFbQQIvA19Rw1UhL/deRVPT6IN3VZ+v2FeLOaCSYhkTUsdCKc36xMW2y89oxrEHFMx14zjFojixY9EL7q+opxshgvTu80CbQQJaU4S+PDNkZD+xhTiNVGnTppkigfXrN2Zy1MbuvgMDA2ns2BG0fdsW1cbV1ZWCgoIJ5jyQvDp1G1CrVm1D9afHA4GZM3smPXr0kIldHEXQUDltuvQ0a9Z8VaYbI6K0UkXb0ZmoG1aQQL++PQgBEEZ5V5AAiOP48aMpODiYNYdxyMUlPiEYoGzZCvT336fp5s0bBDKWK9enZgRt+4791KB+TUUcR40eT5g7zJtluF3RIl9Tz54/hSJoe/fu4iCDvqbpeXgk5qjUV/T06VNVBrLbp+/AUEEawB/zhBbxyOFDCsvEiZPQkyePVbt0jOXIUeMIQQkigoAgIAgIAoJARBF4L4L2+GUQDdh9W0VGVs7uQU3yJrM6jwDWiIEwQdb96620bfYSNPiqNfs8mSJYIIObLj2l1RwJCqXTpHIZKJVbHNOY932DqMPGa2qsptymXFZ3cuKKf93xpXF/3iXMA2IrivNjELSqVcox8XjG2p3einyYHuAdJ6tWraBJE8ezX5Ub9R8wlPLnL0ivXr0imPNGjx7OZC2QhrMf1pdfFTbrSRO0ePHiUaVKValJ0xaMX2zaumWjClQACbI2FwQvaOnPAQIgXKhXpkx5XayO1jSA/v7+imihAkyMc+bMtBnFiQjWRg1rqzbNm7dWWjP45CESc+CA3ky6XqixrBG0HTsP0PRpk5WP3LLla+nIkT9p1MihNPbnXymISa01grZ//17awpq6KlVrMOHLzRqwkJQvd+/cplGjhtHp0yfV2uB5jaIJGsqgfRw4aBjBBw4EDYQP2rSwSKuxHzkXBAQBQUAQEARsIRBhggYyNGD3LbrvG0i1cyWhOrmT2BrHdM+eNBtGDVr1nImpQR5zx/K+O28pcyfSdIDoaZlx/AFtZgL3VTo36lY4lS5WRz0uLqKSoMHvrGKFEJ8zpKfAy9wegfYMWiJov7qz2a5MWXOSBAI0f95syp4jJ02ZMtOsS03QQEQmTppmdk+bW0txLrNevQeY3TNeaI2YtbGN9ayd2xPF+euv45QfWWHWeA0ZMtKsGxC8KRykAAmLoP377wVq+31z6ty5GxPJfXSRc7UtW76Gjv11xCpBMxvA4gJBGo0b1VEaxQ0bd6jUJ7qKJmjIVbdk6SpKmvTtjxJo32rXqqxI5owZcylT5iy6mRwFAUFAEBAEBIFwIRAhgtb5q5Q0kMnZwxdB1OizpFSV/cHsFU2U7NWgjSvjSRk4qa1RZjIRgyatzqdJqDb/r6U9a89gwuxeJDV9mdY8Jxa0fa3WXVVVbRE0aFZu3Lim6iEHGcxykSk3blynpk3qqS4nT5lBOXLksqv7S5cuUpvWTQlasFWrN/LRPI8bND8NGtRSfa1dt4VcXd/692mC1qFjF6pWzdxfbB87/g/kAIC8n+ejceMmhTmXD03QQIhAjAYNHhEqctXb25tqVK+g5hYWQcNN9OHCmrAr7FNWkTWFnTr9SEePHAo3QUNfFcqXJD8/P1q8ZBX7Cr7N16cJGkygMKdaSp/e3egQ+wd+/30HqlU7ZJ0t68i1ICAICAKCgCDwLgTCTdCQgR/mSpgbXZxj0y9lPSkZ7y5gr4SXoC2olplc4phn1l/CAQnLzz6m8tncqUW+5GpoGOPqrfCiQHZSs0bqUKn+Si/yZzOnLYKmOvuAH9CyVK8Wov0aM+YXym9nZn2dhww+TnPnLQk1Q5gjy5YprsycyPeFqEUtmqANGTqKChcuqovV8cSJY9T1p07sHJ+FZs4KSepqVuHNxYckaMa5z2RfODjqWwq0jtA+2iJov/8+nRZyQATklwlTKE+evDYJGszMqzn6Exg8eJN/DiZjCEy0mNecuYvNgiI0QYNpFATQUiZPnkB/rFxG1arXog4dOlvelmtBQBAQBAQBQcAuBMJN0NAr/LoyJo5LXux0nzO5Cw0ulpbYF98uCS9BW14ra6i+ETG6zIKgPeMtnJqtuaLmMKtyJqs51tpuuKZMslFJ0DBBrZ3p1as/lfqujF24rWb/s4nsf5Y7z2c0YcJUq23q1K6qohEt/dA0QRszdoLyWzM2PnnyOP30Y8coJWhGDdmKlesITveWAvPu3bt3bBI0aM5atmysfMJgfoRvXFgatCscYdqp4/cqoADBFjBHJuZAgdixQ3LzwUwKs/LsOQvJ0zOjaTqaoDVt2tJqhC8IIogiEgwj0bCIICAICAKCgCAQEQTCTdAQGdn1f6kUMftxy3Vl5oSZEeZGe+RDETSk+KjLGjRo0iaXNw8e0PMCgQORi2qC1qxZA7p+7Sq1bPU91avXSE/P5hGRmyNGDFYJWadNn2O1buVKpcnX15cm/DqVcuf+zFTH0QkaojbLlimmAh4sNVb6IapWKasiOm1p0FAXgRIIgEA6EUhYBK05r8E1XgMk3m3D5sj48d+ajKE5A4mGFi0sglaHU3+0btNejWH8mDWTExAvmkely5SjHj3eRoka68i5ICAICAKCgCDwLgTCTdCMe3Ge5Xxj/dkXDcqzgaxF+5S1ae+SD0XQMG5L9jF7wr5mw0qkoxzJ3r5wcc9I4GwRtOfPn3P6CX804Ze8M7m7R/5emKM5SnALR1B+8kl2mvrb72qsd30gOrDzD+14q6XEtPKP9aGqI9VG+XIlVTm0R8mTv/WbcnSChknXq1td5WobzWZfyw3V4QsGwgR5F0FTlQwf1giazqHm4uJCa9dtDbU5PQIxateqonoJi6BB8wkNqKWM4Wha5HFD/jxo2UQEAUFAEBAEBIGIIPBeBA0DLj7ziFace0LwTfu5THpKyGkxbMmHJGiD99ymU/deUE2OKq1nEVV65JYvjTpwR03NFkH7GGk2rl+/Ss2bNVJ5t6ZMnUXZs+ewBZm6B1JRu1bVkDYcpYloTaPs3r2ThgzupxKmIkjAmPoiOhC0oZz1fxenC0F+MexWYBStPURZZBA0bEzfrm0LleNs+Yq1oXZrgA8ZfMkgYRE0mGGXLltt0tShLjRvIJoPHtznfUsHq+TBKBcRBAQBQUAQEATCi8B7EzSkFuuz8yZdfORHX6RxpZ6cWNaWfEiC9hcnwx3BSXGxx+fIUukp+ZvgBb+gVxx1epsuPvZTU4tqgoZJDB7Uj/bs2clpGpJyNOAvZo7xMPnB5wzO8sYgghHDB9H27VuVhmnosNFqg3X0BWf3H7t05Iz4l6hhw6bUrHkrFJskOhC0ixcv0PdtmqtnQiRnoUJfqfmD7HTp3J7ucJQqJDIIGnKqwRwMQmW5IT382Lp27cR7h3qr8cIiaLhpGam5du0qmvDLWOUDt3DRcpVsV3UiH4KAICAICAKCQDgReG+ChvHucS60n7bcoJdMhBBViehKLfuv+9CZ+y/1JV31DuCM/n6UJmFcypX8rRnSk1NpVMjmoeoZ86DZGySAhvA/67/rFsH0mpg1eoXTuVI8jjSF9syHfc+wCwG2pXIEggYCMHhwX8LWRnHjxqVPWIuWLesndJ8JyYXz55SzvyV5QCb99u1aEsywiNL8ihPSwhx74MA+RWBg1pwxc16obZs+NkHDVlQnjh9Ta4kPLyaOeKb06T1VZKW+Acf86hztqAW5zpDzDDnGsrH5153TnPzN2yrl4cAIpCe5fftWpBA0jPfz2JG0ceM6RaIKFvxCzQtj7Nq1nQpwCo0znKgWCXzDImjYZQJ+hEV4M3uYqi/ztlvYnQCkz7jllH42OQoCgoAgIAgIAuFBIFIIGgbcfdWHJh65p7ZWGlkqHWX0iKfmgT01N14M2T7H1sSwv2afr0O2x4koQUP/2Mdz0tH7dOCGD78sQ0ZEGpDe3PdY3jLqtk+AQxA0zAyaslkzf6OtWzebtgpCOZzcCxQoSB05jQPSahgFkYzDhw2if/45YyqGORNkDftOWvOZ+9gEDbsdYNeDd4m1jPvY9Hz9+rWEKMskSZIobWGnH36i1q2aKII2kwkoiJ32I8MY2EkgLLHmg4a6SNkxhc2Y2DMUpAoCovzNt8WpW7feVKd2FaVFC4ugYUstrN/8+bNVtCfaYzeCzl26UcmSpXEpIggIAoKAICAIRBgBuwlahEeIooYgeZd5s3Ro0tIkjBNFs7B/WDimY9NuJJhNmzadVaJl7A1aNC+vi5ztPq4yhcLhPSYJNmsHYdKCAAgEQqzfsJ336Iy8Z8UWTdevXVNRnFmyZgvlj6bH10edZgMEDRujIxXH+fNned1cKWPGzKECDnQ7OQoCgoAgIAgIAuFBIMYStPCAIHUdGwG9iwJMuIhQjUqxJGhRORcZWxAQBAQBQSDmIiAELeaubbR7MjjZe3pmoLx585miUL29n9AA3iz97zOnqT1n5jf6rEXFAwpBiwrUZUxBQBAQBP57CAhB+++tucM+ce9eXenw4T9V+gsEFAQFB9HVK1eUaRO50bC5vLOz/duKfYgHFYL2IVCVPgUBQUAQEAQsERCCZomIXEcZAod5k3Hkc4NJE75h8DVDtGSRIl9TuXIVTVq1KJsgD7xgwRw6eHA/Va1SQ+0WEJVzkbEFAUFAEBAEYi4CQtBi7trKkwkCgoAgIAgIAoJANEVACFo0XTiZtiAgCAgCgoAgIAjEXASEoMXctZUnEwQEAUFAEBAEBIFoioAQtGi6cDJtQUAQEAQEAUFAEIi5CAhBi7lrK08mCAgCgoAgIAgIAtEUASFo0XThZNqCgCAgCAgCgoAgEHMREIIWc9dWnkwQEAQEAUFAEBAEoikCQtCi6cLJtAUBQUAQEAQEAUEg5iIgBC3mrq08mSAgCAgCgoAgIAhEUwSEoEXThZNpCwKCgCAgCAgCgkDMRUAImh1ru/HiU/LxD6ZSWRJRUpeo3QvSjulKFUFAEBAEBAFBQBCI5gg4PEF7HhBMj14Gk2uc2JQsQdSQo46brtNtnwAaUTIdfZI0fqQu+c1nART8mihNwjgUJ3asSO1bOhMEBAFBQBAQBASB6ImAwxO0LV5PafqxB1QkvRv9+L9UUYLyhyRozddcoaesnfu1nCelTRg3Sp5PBhUEBAFBQBAQBAQBx0JACJod6yEEzQ6QpIogIAgIAoKAICAIRBoCQtDsgFIImh0gSRVBQBAQBAQBQUAQiDQE7CJoq88/obvPA6lcVndadvaJ8scqmMaV6udJSgeu+9CmS08p6BWp+8UyJrQ6ucO3fOnYbV+66u1Pga9eUyaPePR1hoSUL1WCUPVX8Xj3eDzIzWeBdO7hS0rlFofypHAxq1syUyLKZuET5vXEX41z/pEfPXoRRK/Zvyu9e1zK6BGXymfzUL5sZp0YLv558JJ2XnlG6CNJfGfKk9KFKmdPTJ03W/dBC+Ln+Of+S/rrji9d8w5gX7kgSsC+cp48Xnae13eZ3SmWhVsZfM7W/+ttGnXPNR8KYCe0wmzChZ+dFvd4TlSP8TWKb+ArOsFjHb/zgu4wPt5+wZSU/fI8E8WlL9K6WsXS2P7Ro4e0YP4cU1H5CpUoW7bspms5EQQEAUFAEBAEBAHHQMAugtZ7x026wIQnCUcwvmSS8BJsjKWopxsdvPGc4jrFJj8uAxcZUzq9Il+qAn+gHD5kICIQkBDmTPSC+0F9EKDGec2JiB4P9W3JD1+mpG+Y5Gl5xr5czdinS4sLj+XiHJue+IUQtZRM8roVTmU2P1132+VnNIPnGcyMLo5TLOWwjzniGS899lcE1TJI4M+bz2nswbu6CwKpwrNhHpC8TD67fJWSEsZ1Utf4OHX3BQ3ee9t0HdYJCOnk8hnMbs88/kCRYRSC+IFEgrQBY0gVxrLhZ0kprFiDK1cuU8sWjVRdfPTrP4SKFSthupYTQUAQEAQEAUFAEHAMBMJF0L7LnIha5E9OW9lx//cTD9UTgBBU+sSD5p16SBs4HQW0PjVzJjY93bRj97n+M0rHWp4OX6QwabzOPfSj8X/eVVonkKav0rmZ2oDkKKbDBwQJzGBiAg3Tj1+ZBwlYaqdAjIYy+SmXzZ3yp3ZVhAldgVAuPP1IkRsQn0nlMphptu77BlGHjdcUOWv6eTKlCXTizqEZG8dzhIYLYknQoBXcxRo3aBY/SRZfkUHUu+8bSBOP3KezrJErwVq+9vzcRoFWT0uLtSFBAhPKWgQJMAEDgTXKAn4GkMZSvA7Q0jm/YWLAEvN8zBq8joVSUlhaTCFoRjTlXBAQBAQBQUAQcFwEwkXQhpVIRzmYiCD1RZPVV9RTza+WWZn1zjNJ6LPzptJoQbMFgTmz67YblIC1WOPKeIZKk7Hr6jOaxEQmhWscmlohg2pj+RFZUZxsjaS2G67SQzZ7Di2elnImf2suBQHczGZakESQRaPA3ApiBLEkaMZ6lucwQYL0IXXGwhpZiJVyViWyoji3swZw6l/3lRl4YLG0VscSgmYVFikUBAQBQUAQEAQcDoFwEbSJrHlCvi5ogGouv8SkIxYtq5VFPRR8q35gXy34pvUqmlqVzWdiA/81+Iq1s9AioUIga6ZarbtKPkz4fquYkZJbyXMWWQQN4w3fd5uOsf9WJyaQ3xpMo+2ZSMHHrnuR1PQl+3IZBVopzBESHoKG+vX/uEz+rL2bxs8WVg63yCJoXmyG7b79BsGMO8XCNIq5QLy9vWnTpnUhF/xZpMg35OlpnRibKsmJICAICAKCgCAgCHx0BMJF0IxEo+4KL3JmtdAC1qBBYNZru+Ea5WLN1BDWUEFGHbhDR9gMGJfr4X+jaY85nhL/oNfKtNiTSd0XTO4sJbwELZhVZXs5cOHA9ef0gLVlT5hg8RBKAoNfETRpbQokp9JZ3FUZbtXjZ0HgArR8Gdh0aCn1V3qRP5NJawQN2kQESZzhYAEEJTxlx/0QjzCiACZn6F8TW8t+cR1egnbbJ1AFGUA7ieeDDxrkNYMLU6xHfCeaVTmTKpMPQUAQEAQEAUFAEIieCISLoM2olFEFCuBRQVrgTD+3aghBA1n4fv1VZQKFKRTSZct1uv40gDInjqfMmKowjI+K7MeWk82nlhIeggay14sDGq499VfavUw8bmImLJgn5AKbYRFp2ZoJWpk3BM0YWABiA4JjKSCeIKCWBA3P1pvNugicQPRmBvd45M7ttZP+USanIH7wL4MPnjUJD0HbfdWHJh29p4gutpxKkygOucVxUv508E07yQEICFT4vYoQNGtYS5kgIAgIAoKAIBBdEPigBK3/7lsqDUWTvMk4WtMjQpiEh6BpXzKkuOjKvmSIOjXKEA4gAIkxEjSkyoA2EJouRE0iiMBSEBkKImdJ0GDShWkXZA/PGM/5raMZ+gOJhVYrMggafOc6bLrG6UxeU7uCKah4xkRmgQ7/cpQtyKkQNMvVk2tBQBAQBAQBQSD6IfBBCdpv7LSO9BVVmJw1ZgITEQkPQdMJZUeWSkfZkoTWxsFpH877RoKGObVkHzOYQnUQhHGeRgJnJGjIQYYIzPgcAIFACa01022NvmuRQdD2s8l2/KG7HJ2agPp8nUYPYzruY7PuL4fu2SRowcHB9PTp2xxsbm4JKW5c65o9U8dyIggIAoKAICAICAIfHYEPStB2cAqKKUfvU2rWSk3gAIM3lsZwPSTyrP3MKSTypkxA/b8NTUyMnWmn/LHfcS42Nm8a5Qr7bHXbekNpyiwJ2uA9t+nUvRdUM1cSqpc7ibGZ8qGDLx3ESNC0Uz5ynM2qnJGcLBjahoveplQktgia1sINZ7NwdismXj2ZNRe8VSoT+OnBX89StL+fLQ2aRHFaoibXgoAgIAgIAoKAYyLwQQkaW/eo69YQP7SqORKrnQcsSRr8uJDBH7nErAmy+nfnVB3QVP3MSXCtmSB1O9RD/fKcB61FvuS6WKUFGb7/jvJBQ6ElQfuLdzgYwffhfzayVHpTNCkSwA7cfZsuPvZTfRkJGnKrNeIoTZgyu7M59UtDHrdr/EwD2byrE9baImgYF+Njzk1Zy2hJ9NTA/KHniMjZ6ewLaPSV09o11BWCphGToyAgCAgCgoAgEH0R+KAEDbDAMX8Yp7dAtCG2XMrNUZ7YnghO91d4e6SL7DsFn7HhJUMCC6xBCUd89APJyFtEpWPneEjZrOaBBXt5t4IJh++pezBxFkiTQJEkRJIiHxkc+JGvzZKggWT133VLJZZNzH5rhdO5sj9ZbKU982HfM3b7UqlAjAQNgyDvGPKPIWFsXt4WCrnVEGW5n82Nn/MuAkhU+zzglU0fNOPOAgg0QBRsfPZl8+BdAppx0lwtCDboxgT0BpM/t7ixOeLVjVJzyhP4noG8wScNeeWEoGnE5CgICAKCgCAgCERfBD44QQM08MeaxtsoneAcZNhKSQt2AsiR1EVlxg8r+z3qPmWStPyfx3T63ktONBuoUl6g3HKrJ5St430ul/z92LT9EcbIymQNWq7ZJx+qraksCRraISfbJDbHHrjhY0oHgtxlvdnfC9s53fYJMDNxog00bOhzB5M0/VSIGP0fa9OwawJ826BFs6VBQz8gkGt53nd4DKTpQF/WtnpCrrbJPEcQPy0gazDNYk9TmEuFoGlk5CgICAKCgCAgCERfBOwiaJH1eHC4v8UaJuQLg4kuJe8g4MoEI7IF5kdEVyLtRhb2RcOenPYKUmZcZjMpNGlIymuPIGDgFo8HrVsm3pQ9LDOlPX3ZU+ceax/vMo7JGT9o0d7GjtrTWuoIAoKAICAICAKCgKMj8FEJmqODIfMTBAQBQUAQEAQEAUHAERAQguYIqyBzEAQEAUFAEBAEBAFBwICAEDQDGHIqCAgCgoAgIAgIAoKAIyAgBM0RVkHmIAgIAoKAICAICAKCgAEBIWgGMORUEBAEBAFBQBAQBAQBR0BACJojrILMQRAQBAQBQUAQEAQEAQMCQtAMYMipICAICAKCgCAgCAgCjoCAEDRHWAWZgyAgCAgCgoAgIAgIAgYEhKAZwJBTQUAQEAQEAUFAEBAEHAEBIWiOsAoyB0FAEBAEBAFBQBAQBAwICEEzgCGngoAgIAgIAoKAICAIOAICQtAcYRVkDoKAICAICAKCgCAgCBgQEIJmAENOBQFBQBAQBAQBQUAQcAQEhKA5wirIHAQBQUAQEAQEAUFAEDAgIATNAIacCgKCgCAgCAgCgoAg4AgICEFzhFVw0DkcOLCXThw/Zja7JEmSUv0Gjc3K5CLmIBDRNV+6dBE9uH/PDIjcefJSsWIlzMrk4uMicP78Wbp08V969PgRvX79mtKn86SSpUrbnMS+fXvo7t079OWX/yNPzww268pNQUAQ+HAICEH7cNhG+55/+20SLV+22Ow5PDNkpNmzF5qVyYX9CAQGBtLNG9fJydmJX34Z7W/4kWpGdM3bft+c/v33gtksK1euRj907mpWJhcfD4GRI4bQtm2bzQYE6Ro+YqxZmeVFz54/0dEjh6h3nwFUsqRtMmfZVq4FAUEg8hAQghZ5WMa4noKCAikwMEg917mzf1O3bp1JCNr7LfP161epWdMGlDhxElqxct37dfYBWkd0zf39/enVq1dqRkuXLqT582aTELQPsEB2dnnwwD7q168neXh4UM1adSlP7rzqR4GbW0JKn97TZi9C0GzCIzcFgY+GgBC0jwZ19B7o779P0w+d2gpBe89ldHSCZny8iK75wgVz6fffpwtBM4L5kc+nTvmVVqxYGqE1uH//Pvn5vaBkyZJTggSuH3nmMpwgIAhoBISgaSTkaBOBiL6sbXb6H7wpBO0/uOhR8MiDBvahvXt3U9euvahc+YpRMAMZUhAQBN4XAYckaIHBr2nWiQfq2doUSEH/PHhJB288p3MPX5JrHCfKnzoBVcuRmGLFCv34Xk/86dhtXzr/yI8evQhix1ii9O5xKaNHXCqfzYPbxzZrdPNZAK3/15tyJXch38BXtOPyM0rs4kS1cyWh1Anj0OyTD+niI3/KwO1bF0hOCeM6mbXHxVP/YNp48SldeeJHt3wCKaVrHMqWJB5V5Tm6WIxn2Xjab5P51+pLVfzZZ59T8RKlLKtEyjUchPfu3UXbtm5mB+C79JLHTMJmtsyZs1CRot9QoUJf2RwnvAQNprIVy5fS2XP/0NWrVyhZ0mSUOUtWqlq1BqVLl97mWBG9+fLlS1q1aoVyir569TLFjh1bjVWi5HdUpMg35OQUeu3O8fw2b95Il70u0nNfX8qcKTPly1eAKlSswt+v0F+wPXt20vFjf9GXXxWmzz/PT2vX/EEnT52ge+xUnSlTFmrUqCllYkyNAsf7I4cPqSIfHx9CH/HixaPvvitrrEa583wWqkxXgEbEz8+PmjZrSc7OztzHLvYTOkxXrnhRqlSpqVy5iqG+O++7BuFdcz3X8GrQgoKCaO3aVXT2nzPkddmL3FzdKGvWbFS9Rm2b5rh1a1fTpUv/Kqf33Lk/o/3799AR9p06c/oUJUrkzmv+NVWrXpOxjq+n9t7HUydP0B7+O8L36/69e0rL9GnuPFSJvy+pUqex2v/Ondvo8KGD5OXlRXHiOFOWLNmoWPGSVLBgoVD1AwICaPKkX1R55y7d6BR/t3bv2kFYC1c3N3bcL0z16jUM9d00tkPjo0cP0717dylv3nxmGGbi73fVajVDjTtr5jQKCPA3Ky/1XRnKli27WZnlBfDYvHkDnb9wjlKmSKn+JmrXqU8wc3s/eaLWMGXKVJbN5FoQEATsQMAhCdpLJkoNV11W0+9VNDWNPniX8Kp8xSTjFRMuSLGMCaljoZQhF28+nzFRarbmiqkM5MjFOTY98Qshaind4lC3wqkok0c8U51Td1/Q4L23KYmLM3lzPefYsSiACSKuQdAuPPRTdYN44C/TulL3IqlNbXFykttPPHKP2wbzP5pEieM7m8ZLxeP14PqeTBDDkmpVy9OzZ0/V7Q/pszNs6EDCiwLi7ByHXyzJ6OHDB4SXY4IECWjd+pB7qoKVj/C8rGEiGdC/p8lp3MMjsXpG+ChhrG7de9M33xS3MkrEi/AiGz1qmIo+Qy8JEyai4OAgevHiheq0fYfOVL16LbMB/li5jKZNm6wwACYuLi7k4/NM1fmCCWvfvoPIjV+KRtGmozr8ErrI0XHHj/+lCIC/f8j3JH78+DRp0nQzkoaX36JF84zdWD2HpgMaD2tStUo5NbeZs+bTL+PHqBe2sR7I5PYd+01FkbEG4Vlz08B8Eh6CduvWTRo2dABduHBedQHfvOfPfdj3MVCtB74r335rPRJ04IDehIjDLkxkbt++xaRgkXEa6nz8L5MJP3zeV+Bj99vUibRu3WoVDQnyj7k+fhMdmTBhQlq9ZrPZMHiGsWNH0PZtW1S5q6srf9eCCd8VrFedug2oVau2Zm1evPBlshfimD9s2GgawM9I/K/fq1fBJh+/0qXLUY+efcNsZ3bD4iKsIAGMibGN8q4ggU0b19P48aP57yxY/Zvi4hKfv6M+VLZsBfX9vHnzBk3kv4VcuT41divngoAgYCcCDk/Q3Fhj1ezzZFTU002RoE2XntLq808UGZpULgOBBGkBQRvKZKtcNnfWsrmSe7wQjcnLoFe08PQjQlvURzutHNEELQGTuSHF01IibjNoz22CZi1NwrjU95vUFMy+z7123KRAJmnzqmZSJA5j3vcNok6br1EQE7oaORNT9ZxJKJ5zLPIPek3zTz9U42VkMjjmu/TEvM+qfAyC9tdfR6hH9y5KgzRi5M+Uh9MfxI0bV/2D/w9rLfAPbfcefazOTxeG52WtX5zQKA0aPJzSpk2ntD9zZs+g5cuXKEKzaPEKdmBOrLt/ryNekk0a11VkrGjRb6l9hx8oBf+ah9bwzp3bNG/u7/TJJ9nVr3k90OXLl6h1q6bq8vu2HalKleqs3WBCzkRhQP9e9ODBfapduz61+b69bqKOmqBBA5Yz56fqRZk8eQr68+B+5Xd15cplsnyBYh5arl27Si2aN1Qv9+Ur1upi09Ga1g43NUHDCxbEsG27jvTpp3mUjxCeZfHiBTSS11ZLZKxBeNZcj4ujvQQNhL1Vy8asjbpChQsXpU4//ETAEuVbWKv5yy9j1Xd2ztxFaj2NY+BcPyO0vydOHKMmTVtwP1+rPrDuG9avUdo14PS+Mp2JPAggiFjnLt3VfPE3BK3m4cMHae6cWfS7RXQztLmTJo5XJL//gKGUP39B9WzQiI0ePZzJWiANHz5GaWP1/IwEDT8y2rXrRCVKlmIi+ITWrF5BS5Ys5H+7YtPceYvV35Vuh6Pxe9afAwQO8ncSBLdMmfLGatw+9D9G0D7r9iCFx48dtRnFCe1co4a1FTlr3rw1QWsGzS5+sGBd9A8jIWhm0MuFIBAuBByeoFVn4tMgT1Kzh+q785Yyd7YtmIJKZU5kdi+sC2je2m64Sg/Z7DmUiVhONmlCNEH7LKULDfg2rSqDeRUmy4qfeChyiMJBe27R6XsvaXL5t6RwDGv2Dt18TpW4XlMmkUbBO7ndxmtM4gKVpg8aP2vyMQiafmF+821x/kU+1No03llm78v6CpuoWrVqovqbv2AZpbYw+3Tp3J5Onz5J0EC1bmNOft45iTAqjBo5lLZu3aRMRqNGj7daCy9SaLe0aB+d0mVYG9HDXBtx8uRx+unHjm+I5EoVCafbaYKGvpYsXaU0dfoeXk7duv6gzF5Ll63WxWbHiPqgaYIGLd/ceUsoaVLz75txkMhaA3vX3Dg2zvX37V0a4dVMYCYygcmRIxf9OvE3RcaMfY0axeu6ZZMiGNZ+QGiChjZDho5SpMnYPrLOb3BalJYtGilNK+ZpjfBBK2Y0pUJ71qB+TXr06CF1796HypQ1J0lz5sxUka7Zc+SkKVNmmqZqJGj16zemFi3bmO7h5Icf2tLfZ07TT117UvnylczuGS/69e2hCJq1sY31rJ3bE8X566/jmDCupMJsRh4yZKRZNys5OGEKm+QhQtDMoJELQSBcCDg8QRtXxpMyWJgIZx5/oLRTdT5NQrX5f3tl+L7bdOzOC+r0ZUr6NkMIYdIEDRq6Ll+lUl0t/fsxLTv7mOoxMazJBBHy8593lR/caNaGZUkcj/xZa9ZgpRdBNzK9UkZKyiZRS1lzwZvmnXpIxTMmog6FUljeVtcws/m/8f2Av4c1vxSrDcNRiF/+0ACALIE0WfsF/a7u7H1Z63+c4fsybvykUN3CX2UMaw/gYzRt+hx1HxoTaDzsFWi6oCGD4Fd/+XIl2H8mgCZMmKr8uOzpp3Kl0uTLPmfjxk2ivJ/nC9Wkfr0ayocHLx+8hLRogvb119/SwEHDdbE6wlQNwg3z15ate9TRrAJfvC9Bq1uvYSizmOUYEVkDyz5wbe+aW7a1l6C1b9eKkEi1V6/+BH8nS4E2s13bFsrHbuGiFZa3TRo0aDInTZ4e6r6xwNv7iVpvY5mtcxBgTegXLZxHs2ZNUxqwMWMn2Gpmunfp0kVq07opk7Z4tGr1RjPyhkp3+fveoEGIyX3tui3kyn53ECNBmzlznpmpHPcnMjFazcSoSZMW1LhJcxRZlQ9N0Bo3qkMwTw8aPIKKsg+rUby9valG9QqqSAiaERk5FwTCh4DDE7QF1TKHcrRfwgRqOROo8mzKbJEvudkTB7OqbO91Hzpw/Tk9YG3Zk5dBxBZHJYFsq4QmrQ07+5fO4q7KNEErkSkRtf8ihEStYhPqAjaJQisG7RgEfma7r/rQoGJpKXcKF7rq7U8/bb2h7rnFja2O2pL1ZjhiDsfmzleUiQndWCZ2USUhGoDGyqSSlh30v2X/Lzik58yZSzlT2zMve1/W+OUMglCRnaa7/Ng9VNcwqXbq+L0yFWmfHWgZateqEqpuWAUwnc6cNU/dRsZzaCpAOjdu2qlMt2G10+W+vs+pcqUQQrBs+VrWRplraFGvO+d8O8ZmHkvfNU3Qatasw2bGTrpLdQRZLFWyqDpfvWaTmXZNV3xfgmZJGHW/xmNE1sDYXp/bu+a6vj7aS9CqVC7D/mbPlV8iAji0iQ396HOQaIiRxKgC/tAatBq8FjAF2pJxP4+iDRtCm5TDagPyDRIO0Zq8evUaUctW34fVxKz84IGQPGQIiIHG01LwfGXLFFd/kzNmzuVgnayqipGgrVu/VZmwjW3nzGbN2/zZVK1aTerQsYvxltn5hyRoxmyV1MMAAEAASURBVLnDJxKBB5ZSsUIpgtlUCJolMnItCNiPgMMTtOW1soby39IaLkuCBt8v+Ipde+pPTvzCBjFKHN+J4jiF+FzA4f8REzZEY5axIGgwlcJkCllz4Qlrvh5R83zJqAJHfkImHblPu64+YzNoGvosZQI6zKZNBC+g7wLs72ZLMIeW+c2JpK36H+IeMoP/MuFn9ctd9w9NVIUKlale/UbKLKfLrR3tfVlr02HDhk2pWfNWobrCr278+oZs2LhDaSmgeRrQH87Q9gk0gdrkpc2K8Gdb+cd6uzqAnxhMVpCt2/aGMq2hfMTwQbR9+9ZQfmiaoFl7Pry4PjRBmz5jLkcBhrzMMU9rEpE1sNaPvWtu2dYegoZgDJhtIdAaw3RrS37i4An4fxlFE7T27X8w8y801tHny1iL/OefB/TlO4/47urgAm1WxK4IMNvaI9p8ix9C0Oxakzq1q6pAHaMfmpGgbdu+L5QWVptGo5KgGTVkSLaMYAlLwY8m/HgSgmaJjFwLAvYjEKMI2gw2fW7mQIDsSeNTV47WRCSmUYZwAAGiLiODoCH1R/9dtyg+R4kurB76F6RxXEc6x758SAuxl9M0QJsFcXd3J2iS4OQbltj7skbUGoIOwtJqaNMPoiY3b9mlNF9hjWlPue4PZHPTZvv6QwBA3TohL1prmhmMiyzs0ILAAbpBwyamqUQ1QZszd7FZ2gTTxAwnkbUG9q65YWh1ag9BQ+RfubLFlZP51N9Cgjgs+3nXtSZoiOKsWKnqu6pH+L7+LrRo0cbufWgRuTlixGAzU77lBLSZfcKvbJrnNCGQ6EDQsHZlyxRTAQ9hfR+rVimrIjqFoFmuulwLAvYjEKMIWsdN1+m2TwCNLJWO85C9dQjXcHRgp/07zwMjhaAhdUfLtVdV14uqZ1HRm3qc8BzhGwMfLAh8Xj5m5m5okjq0b6Ui0bA/HyIEw5IL58+xGaklIafRosUrw6qmzC8ww2CT7H79h4Sqd/jwn9S7V1dKkyat8ocLVSGcBXD+r1C+pGq1eMkq9k2z7utn7DbERFNMOX3PnrPQ6p6YeFY8s6V/VHQgaDCBRcYa2LvmRmxxrn0erQVgGOsi8hapGIwaJOP9d51/LIKmIziRa65rN+tpUCzneubMKer8QzsVqWxNs4uggvLlQr63CDZB9CokOhA0zLNe3ep0//49Gj3mFypQ4AsUmcT4NykEzQSLnAgC4UYgRhG0+n9cVj5f8PeCedMoV9hnrBv7jLFbWKQQNPTdZn1IVCjysYUVpWmcg7XzjxHFaW1cXaY3VLYWMabr4PjkyWOqWSMkagzpIZIkCe23hXpIwjp4UD/lf7Vs+ZpQPmETOHXC2rWr6KuvCtMwTjEQGYK0FUjVYM3sGFb/zZs1IKS8QCQpIkqNAp84aNhAnKdMnUXZs+cw3X5fgqbNQ+HVIOoozrA0FqYJ8klkrYG9a24cG+dIIzFkSH+l6cN8wxJomKBpQt4spIMIr3wsgoYEz4MG9lU/npAeBukv3iVI/VK7VlX2pePvEEdpIlrTKLt376Qhg/upPqHF1YE70YWgDeX13cXrbC13n9Ye4nmFoBlXXc4FgfAhEKMIWvdtNwg7CVj6pj0PCKbh+++Yks5GhokTMO/nQITxh+5SsgTOnC8tDaVPFNcMfeyIsP+GD2VOHD9UJKqu+DEIGrKrI9u8p2cGPaw6wlkev4ThiN279wCVM8qsgsWF/tXcqFEzatioiUpOaVFFaaWgGYH/Ceoh870WmCO7dG6nciQhGi5//oL61nsdtVYOfkxw7raMhL148YLKao7ks1o2blxHP48dqTQXSJ1gjAodPXqYSu9gzX/ofQkaxq9U8TuFQb9+g1VGeT0nW8fwEDQkH46sNbBnzS3nDT/DJo3rKXKC3GxG3I118R1p1rS++s4MHDRM7fZgvA9NJwI1Avz9zSJpdZ2PRdAwj44d2tA53nUCgQM9evYz85lDPrM/Vi5XucD03HDUfozQMA3lpLPImwaB/92PXToS8tdZ/qiILgQNf1Pft2mungmRnHonErgPIJWOjsoWgqaWXD4EgQghEKMI2t5rPjTh8D0FBEycBdIkICSvPXLLl+Jwplh3dtY/z4ECkUXQMJBOv4EdCArxTgPYVgqJa7Hl09/3XxLIYX8mb3lTJbC6QB+DoOkINvi5ZMv2iSIjXvxyOMF5ux49eqSisCZNnmFKK2B1oly4bdtmgsYNkjRpMpMvVOvW7cw0BLt2bqdhwwapF/QXX3xJ2AoHiS337N6lTDiRqT1Tk+EPpO5ACg9oIrANE54zKDBIbYUEgtqWk9Fi6yAtIDFI4eDldUlpA7/+phhHtCaiY38dpbNn/1YvHphvkNTXKJFB0Iw7C8AkmzNnbortFFttk4PoV2sSHoKG9pG1BvauueWcx45hX8RNIUEbGTNmMiUlHjV6nBmxRzLXyZMmqO8KCPsnrK0E0b5544bykcQOAWFpdz8WQcOzwXezG0f2IqAFP3bwIyAlH28zGT3FPp0oX7M2ZMcAjQXMt+3ZVP78+XMVpYnvPbZTOsC+jSAwMGvO4FQaxuCHqCBoc+fOoocPHuhpq22iQLSQfiZtmnSmcuRRxN+zlilvIraRVibbJ9nJPZE7p2Y5w38znxEix7F2QtA0WnIUBMKPQIwiaHj8dbyvJtJw+HF6Cwi/rykrk7XuHDSAfTWxp2dkEjSMgehOpOXAdk9GwU4GXzBpQ642a3nSUPdjEDQk+1yyZIEy6Rnnh4zkxYuXpFat25o0SMb71s5h7kE286tXrqgta1DHmpYE0ZXYegn/0GuBWa9WrboqutPJyUkXR9oRpGTq1IkqOaixU0TjtWvfKdS+gvADmvDLz4p4aj9AtMuQISP14W2erEVLRgZBg8Zl1aqVvC/qJuXHg+1xINbMReoGf4SXoKFdZK2BvWuu54oj8Fwwfw7t3r1Dvaw1vgjk0JokXf/s2X9o/LjRSqOky3BEDrGCTAhq165ncqI33v+YBA3jwl90AkdCH9i/VwU36LnA5FmpclVCEIGlQEs4nH+s6IAc3MePCJC1bpzAFgE6RokKgtayRWP1Q8Y4D2vn1twBkKx2/fq13P4y/9BJovzRsCNE61ZNFEGzlsvNWt9SJggIAqERcEiCFnqa4SvB1k7YqglpN5BU9l0bloev97Brg6Dd4HGR1ANmT2yaDoLoKIIXDH65P+VEkgiNT50mjd150CL6DCBo8PVKyj5r6dnEaitSNKJjWLbDc8InDS9C5KGCts+WIMkt6sPkixxrHh4hqVVstYlO96JiDSKCD8jJ1atX1TpAu5Q6dRpF0iLS14dsA+0rtGNwkseetunTZ1DbhNkaE1o0L6+LXC+u0li/K62Irb4c8R7+hozEGwEQ+AG0fsN2M3OwI85d5iQIOCoCMZKgOSrYMi9BQBAQBGI6Ajr1DUg2IlRFBAFBIGIICEGLGG7SShAQBASB/zQCa9euUoFH2NYN2moItNfYbB37hVruwvGfBkseXhCIAAJC0CIAmjQRBAQBQeC/jgDyGSKCOhEHB6RP78nBUUEm31REriK34sdwafivr4M8f8xFQAhazF1beTJBQBAQBD4YAocPHeQgkJ0EkyZy5sGvzpMDbIoU+ZqQ1Fdr1T7YBKRjQSCGIyAELYYvsDyeICAICAKCgCAgCEQ/BISgRb81kxkLAoKAICAICAKCQAxHQAhaDF9geTxBQBAQBAQBQUAQiH4ICEGLfmsmMxYEBAFBQBAQBASBGI6AELQYvsDyeIKAICAICAKCgCAQ/RAQghb91kxmLAgIAoKAICAICAIxHAEhaDF8geXxBAFBQBAQBAQBQSD6ISAELfqtmcxYEBAEBAFBQBAQBGI4AkLQYvgCy+MJAoKAICAICAKCQPRDQAha9FszmbEgIAgIAoKAICAIxHAEhKDF8AWWx7OOwMuXL2np0oXqZsOGTf9Tewb++ecBunDhHGG/xDx58loH6E3phfPn6PSZU5Q5cxZV32ZluSkICAKCgCAQaQgIQYs0KKWj6ITA48ePqFbNymrKGzftoHjx4ken6b/XXMePH0Pr162mlq2+p3r1Gtnsa8niBTRjxlSqUKEy/fhTD5t1o+Lm9etXKTgomNLxZt1x4sSJiin858e8f/8e+T5/TsmSJ6eECRP95/EQAASByEJACFpkISn9RCsEhKDFDIJWo3pF8vZ+QrPnLCJPzwzR6jsYUyY7ZHA/tWl6587dqFLlqjHlseQ5BIEoR0AIWpQvgUwgKhAQgmYfQXv27KkiQG5uCSlJkqRRsVQ2xxSCZhOej3JTCNpHgVkG+Q8iIATtP7jo8shEQtDsI2iO/l0Rghb1KyQELerXQGYQMxFwSIIWGPyaZp14oBBvUyAF/fPgJR288ZzOPXxJrnGcKH/qBFQtR2KKFSv0ong98adjt33p/CM/evQiiF6/JkrvHpcyesSl8tk8uH1ss0Y3nwXQ+n+9KVdyF/INfEU7Lj+jxC5OVDtXEkqdMA7NPvmQLj7ypwzcvnUB9rGI62TWHhdP/YNp48WndOWJH93yCaSUrnEoW5J4VJXn6GIxnrHxpcf+tOGiN93mNk/9gihRPCdK6RaHCqR2pcLp3Siuk/kDLj7zSI1VPWdiuvM8kPZc9SH0kcrNmfKkTEAV+fmsYYLnOnHHl47feaHaefsFU9IEzuSZKC59kdaV8qVKYJxWqHOGkHZffUb/3PejG4yXb0AwpVDzTEDFMyaiBGE84+Fbvmotrnr7U+Cr15TJIx59nSHhO8fbsGEtXbr4r5oHtDaNGjcLNaf3LbBF0F7zl2bBgjn08MEDypr1E6tmm3Pn/qHNmzfSZa+L9NzXlzJnykz58hWgChWr8BqYr5txrjt3bqPDhw6Sl5cX+0w5U5Ys2ahY8ZJUsGAhY7VQ51On/Ep+fn7UtFlLFdCwZ88uOnrkMF254kWpUqWmcuUqUvESpcza3b17h1YsX0Lnzp2l1/xf3s/yUc1adWnevN9t+qBt2rSerl65bNZXrk9z07ffljAr0xdeXpdo7Zo/KE3adFSnTn3awrgc/eswXfz3AqVOk5YqlK9EX39TTFc3O/7LdQ5x0MI//5yhBw/u89/ra8qYMRNlzpKVqlWrRW5ubmb1r127Sn+sXGYq27ZtM/n7+1OxYiW4bkJTubuHBzVv3tp0bTyJ6NpFZA2M44bnHGsNTP/66wjdvXeX8I1KmjQZffppHvV9ycL4aAFmkydPoMCAAKpbryGlTp1G3zI74rt36uQJFRhS6rsyZveAPb4rFy6cV+vg4pKAkrNPWX4OJCnB3yuMrSU4OJh+nfCzvqRjx47SnTu3KXeezyhjhkymcpy0at0u1BqiHGbpVX+soEuX/qUbN66r73COnLmobt0GlCCBK6qY5MCBvXTk8CH67ruytGvXdjpx4hhl+yQ7tW3bieD/Nm/uLDX+V18VZr/Ktjb//kydyokgEA0QcEiC9pIJRcNVIS+IXkVT0+iDIf9AveJ/iPg9r6RYxoTUsVBKM4ifMVFqtuaKqQzkyMU5Nj1h8sNNFfnpVjiVIgq60qm7L2jw3tuUxMWZvLmec+xYFMAEEdcgaBce+qmqQTzwl0xmuhdJrZuq40luP/HIPW4brMhR4vjOpvFSMYnpwfU9mSBaylavpzTtWAgJxT++yZgwPQt4Rf5Br1TVMd+lp8yJ45k1a7/xGt1lYgaCtua8t3rpujFhxHNDCqZxpR//l4riWRC7mccf0KZLT1UdcIckPEeQNr83Y1XJnpgafpaU+NFDyQMmuRMP31MkGTdBGuMzpnpMa5ig3+n8bHuu+aj+QIqxbC94TAxRmcdrnDdsc9mggX1o797dqq1nhow0e3ZItKUqiKSPsAgaXj4jRwwhvMxy5fqURowcF+oFA4IwbdpkCgri74tzHHJxcSEfn2dqZl8U+or69h0Uqk1gYCCNHTuCtm/bouq5urpy+2AmF37qhVKHX0yt+OUSllStUk6NMXPWfPqFnfz//vu0WVWQwu079pvKQEL69umhXoSxYsUmd/dEfO5NGRhP+Grt27cnzCCBfn170MGDb/tCp7aCBFAXbfCC/jxvfkVuEXSBZ9PStVsvRSL1NY5Pnz6l6tXKm4rwYgaWjx8/5r/XV4poDBw0nElyNlMdEJYe3buYrsM6ScPEcP6Ct0RO14vI2um24V0D3S68xxcvfKld25aKuKAtcMH35eHDB4rA/u9/RWjosNFm3Q4fNoh27Niqgj4Q/GEpIHEN6teke0z2hg8fQ18ymdFy6dJF6tSxjSK6KMOPIny3Yd6GfN+2I9ViYq8lKCiQypQupi9tHpcsXcVEL4VZnaNHD9OokUPpyZPH/N2PzeMlMa051m3wkJGUiX/waJk1cxotWjRPkURf3+dqnnge/CC6fv0aAS9EZUPad+hM1avX0k3lKAhEawQcnqCBgDT7PBkV9XRTJAhEY/X5J4oMTSqXgbVHbyO3QBqGMtkql82dtWyu5M4aKchLJgwLTz9SJAX10Q5EBaIJGrRAQ4qnVVqsQXtuEzRraRLGpb7fpKZg5ky9dtxUWqB5VTMpEoe2932DqNPmaxTEhK4Gk6bqOZNQPOdYTLJe0/zTD9V4GVlrBLJlJD+YT7PVV1R/IEalM7uTa9wQzR60aVuYvH2XORGlYw2XUTRBQ1npLImoSd5kiixdZq3h8P136MnLIEV8QLiMsoCfHeSoFPcJsggSCjnH5HPcn3fpMbcD2QXpNQpIVa/tN+niYz+lhWz/RQrKmji+wg5Yb2dt47Wn/tTlq1TGZkw879NWr2dq/h24TbakIRGSGG88j/eIxwNR/iqduXZEdxJVBA0vniGDB9D+/Xsob958NIxfZCAMRrl8+RK1btVUFeHFVaVKdRU9CM3DgP69lPahdu361Ob79sZmtGrVCpo0cbwibv0HDKX8+QvSq1evaPeuHTR69HB+IQaGenEaO9Dk4Msv/0cXWbvYtl1HpU3ByxtzWszRliNHhmg18PJq2qQe3bx5g4qzdg7Rl6iHiMc+vbvT7du3VNdhRXFCIwWiClm5YinNmTPTLoIWL148JoIe1LffICa3uQnasQXzZyuyl4q1OvPnL6XYsUO+5+gbBK1njy5UtWpNJgz/Iw+PkO/tixcvaObM32jN6pWEF/Y8bmfUSuL5tNSsUUmR0N+ZxFsGCRjboH5E106PFZ410G0ictSEJG269DR48AhFqvEsWJeDB/apdbXUKp88eZx++rGjIjEgRUacMQd9P1my5LR4yR9m9zt2aENnz/6tNKT4TqdIEUKoQOi3bd2kCBa0vEYxrsGQwf1pz56d9EPnrlSpknmQgOUaQKvbrGl9wg+W+g0aU/36jSl+/PhKOzx9+hS15tAO/jZttmmOGo8cOXLx3+Rounf3LnVkQonv6Desme3WvQ8dPXqIBg/qpzR+Y8b8YpyqnAsC0RYBhydo0BY1yGOubem785Yyd7YtmEKRDnvQh+at7Yar9JA1QkOZiOVkkyZEE7TPUrrQgG/TqjKYV2GyrPiJhyKHKBy05xadvveSJpd/SwrHsGbv0M3nVInrNWUSaRS8Q9qxxuu+b2Ao8nOeiUqfnTfJI74TzaiUyYy8GfuwPNcEDcRtQllPs9tH2Jw46sAdpfmbWiGDiYSZVbJyAZI19a/7lCeFCw0sFvL8utrOK89o8tH7irRO4ee2Zq4FGQUp1QJzZtdtNygBa9nGlfFUmkF9D8ddbCqddOQ+pWAzMOZpTaKCoOGX/MABvenw4T/piy++pEH8YgThsBQ9t9JlylGPHn3NbuuXILRHixavZMLhoe7jZQTtxaNHD6k7v0zKlH2rNUIFEKD582ZT9hw5acqUmWZ96gtNDkAY585bYmZy0nX0ES9LvKygCcHL2snprVn+7Nl/qGOHENNfWARN94OjPWk2tAYN9UeNHm9mroV2o2aNykqbBqKVls2g9gjIKzCDCeuXCVPCzNcWHh+0iKydca7hWQNju/Ced+vWmY4fO0qdOv1IVarWsKs5CFOTxnXp1q2brPX9mQqxJtco0FhtZbLVoGETM9MvcC5froQiTLN+X0AZM2YyNrPrPDw+aHoNoJEDGTQKnqFhw9p0l82l+NvC3xhEEzSYrDF/SMsWjZV5fwhr2woX+VppFsuVLa5+ICxdtlrVkQ9BILoj4PAEDS/5DBYmQm2yq/NpEqrN/9srw/fdpmPsh9Xpy5T0LftCQTRBg4ZOa4KW/v2Ylp19TPWYGNZkggj5mTU/8IMbzdqwLGx69GetWYOVXsp0N71SRkrKJlFLWXPBm+adekjw0+pQ6K2aH35jPbbfUJooED74rNkjmqCBsIK4GoWnw1q5y8p0qedovB/WuRfPpTvPBb5vIGFGGcyaxFP3XlC93EmoJvvk2SPzWVsHDWfJTImoHWvPLAX+ha3WXSUf9mP7rWJGSs6mXUvZv38vm3euqeJEidyV9sayzvteG02cK/9YT0OHDFC+LUWKfkP9+w9WpktrY1SuVJp82eds3LhJlPfzfKGq1K9XQ5mR9IsDFWBCatO6qSJ8q1ZvDJVzDS+kBg1CzDJr121hc1ZozaImB/AxsmUKxXg/jx1JGzeuo2ps6unQoTOKzKRxozrqRR7ZBA1rheezlJYtGvHL9DKNG8+YsWbSXunTuxsdYn+9nr36Kf8ja+3CQ9AisnbGMcOzBjAlwkxor0BTqLVNvXt1VT8UrP0IsNXf4sXzaeaM35QmrP+AIaaqMP/VrFFRaeBg9jX6qIEUVaxQSmmwrP14MHVi48ReggaTd4XypRSZsmb6xBDLli5S7gNlypSn7j36qFE1QevSpRtVfKOh69K5PZ0+fZIm/DqVcuf+TNWrUb2Cesb1G7ara/kQBKI7Ag5P0BZUyxxKc7OECdRyJlDl2ZTZIl9yszUIZlXZ3us+dOD6c4L/FMx+rORREsi2SmjS2rCzf+ks7qpME7QSTChgwoOsYoIBsyC0YtCOQeBntpud8gexlik3a5ugKfpp6w11z+2NeRJaM8ibA4E0wacsExO6sUzstMCfrfPm68phH22LpE+oghQ+YVNgCtfQhEW30wStK5sH/2fFPIj5YF7wk4NvmFFgOkUwBO4DF/igQfAPNHzuoM2bVdn81/P366+quv2+SUOfvyOQQI8FLR60efBVw/8aEzXWm0rQugXzjZ7sX/gF+81FhRgJGjRXyJgPMRIry3nB/6VypRDn6mXL17IWy1yzi/rdWftxjLUfRl8YmKX69etJ6dhkBe2XpWANypYprsycM2bO5az9WS2rkCYHtuanG8FHC75aHTp2YUf7mrrYdNQEILIJWtZsn/DLdbZpHH3S+Yd2dObMKYI/2ddff6uL1REkZsf2rbRr9w66z6QGWkZNbALY6R0aHuOL2awxX9hL0CK6dsbxwrMGjaHNuhny74Oxj7DOV6/ZZEryunnzBhrDZm8IdnqA8ztIyCfZc1DcuOZuD8b+8J2uW6caE73YtGLlWlN/CNoYPXqY8tka+/OvxibqXGvXnJ2dqUiRb9j8XoBysokau0do0hiqkaHAXoLm5QX3gCaqZcKEIT+Q8d2H6CPMlgiQMH6XNEEzEvWePX5ks+Zh9X1DXUi9utWVi8G27fvsmrdqJB+CgAMj4PAEbXmtrKFMgFrDZUnQ8OKHrxj8opzYZwPEKDETjzhvnObh8A//J0RjlrEgaPDPgskUsubCE9Z8PaLm+ZJRBY6MhMAsB/PcgG/T0GccMXmYTZsIXkDfiLq0JZhDy/zmRBKECabFsxyhahQ4+iOCNAtHgVqKJmjwlUPUqaVoMyxIK7DRAmI56eg9RZag6UuTKA65cTQsQ6R80xDoAH+936u8JWggunWgIeR/P2FOtfSH031bHrtsuU7XnwaoAAeYMW0JTMg5k0VNBn8jQcMc4TMFPxx3d3eaMTPEIdly7tACQRsE2bptr5npUNcdMXwQbWfCYfRDW83+ZxPZ/wxO9BMmTNVVzY51aldVTuCWDty6kiYH02fM5cjP0ARO18OxebMGhGjHfv0Gq4g/4z2cjx41jLZs2RhmkICxfnhMnGE9n9Z2WBI0vIjh/wTfMJhh8aJNymbZOHFCSAjWA9GF8G2qXLmacVqmc3sJWkTXzjQQn4RnDeC0j7nbK/Ctgp8gBGRl+bLF7LM3RznA6z7go1e3bgOqXKVaKC2srjOgf2/lQ9mRyXnVN+T8xx87qOjN3n0GUMmSpXVV0xFm6CmTf1UmUO17iJuZMmWhJk2aU1Em1baImr0EDYEpcCMAyYQvpS1B1GhHNvFCNEEzzl//yDD+oIFJHD5uYf1t2hpP7gkCjohAjCJoMzhacTMHEWRnTRS0TIjENMoQDiAAGYkMgobUH/133VJO+gurv404Mo5nzzl84k6zGRGm1784PQi0axBo3EAwjaIJWp+v06hUI8Z7OO/N5PQCpxeBORVmVQj677CJAxm433ZMQFEOYqblX64PUmtJ0HC/EUfSIrhgeIl0lN1OItV/9y1Ox/FSBTBUzh5CbvVYjnQ0EjTtl9O3T3fCPpWff56foGmwfCnhhQsNBSQsUyQ0ZdCYGf1lELk5YsRgFY04bfoc1d7yQ5vfjCYbYx1NDubMXUzpeVsjW/JDp7YqyrNrV46cLF8xVNVBg/rSXk7TEdkatPASNKRqWMOpJECOBw4aFsqvTmtJIoOgRXTtjOCFZw2M7SJ6Dk0izHinT51UEZo6uAM+V9CkWhP4UIK8ZMuWnR3tf1eEpSGbz5GuBFpfWxq458+f04njf9Fx/h/pLHx8fNQQ7dp1oho161gbTpXZS9BOnTpBP3bpoAJvwmOGFIIWJvRyI4YjEKMIWsdN1zmnWACNLJWO85CF1sx0YKd95A+LDIKG1B0t115VX49F1bOYOcpH9DsDvyz4fSEqE5GYlqkoNEGDbxd8vCyl7YaQoARthsX9/WzqHX/oriJ0IHaWso/Nwb8cumeVoPXgCM5LHMFp9NmzbG95/RtrBbdx4EEVJmeNOco0IoIXRUCAv2rq5OSstFoR6cdWGyNB03txIqqwVctGbGZ7RM2at2KH5aZmXYSYIospE9zsOYgazGh2Hxft2rVU5tJevfqTzjUF8x7MfNCAwN/NUuCbU75cSVUclm9OeMjBsKEDVZoQI0k0jqkJXFQTNESaIgfW5CkzCBF6lqLNhJFB0CK6dsY5hWcNjO0i61ybKpHaBd8jyxxxGAfPWb9edQ6uuM+a4Lm0f99emjt3FkfK1jBppOyZDwJbJv46jpCT0FbwCvqyl6Dh76p2rcpq+A0bd6joTXvmIgTNHpSkTkxEIEYRtPp/XFY+X9a0T1fY96ob+2hBPxUZBA1fhjbsowUNlbUUFRH9sujISWgBh5c0j3jTBA3pKZCmwigwmXZkTRm0Y9PZ+V5rD3WgAny94PNlKdpnzJoGTQdj5EzmQkNLmEd4Wvajr3dw5OeUo/cpNQcdTOB0Jm+sy/q2XUcd6YXKHzsPGvzH4MOFNAVwatcOyHri2nzYuk17lZRVl+MI/ylo2OA3NWXqLMrOPkMQkMHataryy5PLOUoTLzyj7N69U73kYOKCZs5Sc4e64SEHixbOo1mzplk1qYKE4iUJ7UxUE7QK5UsqfyP4rWk/Io0LAiu+b9NMEQ5bBE2vx68Tf1NpR3R7a0ddNzxrZ+wnPGtgbBeZ5/XqVlPkyzJa1jiGjgquXqM2/ck56pBEFppbYz45Y/2wztEO2jd8Hzdt3hXmZvRaE9qiRZv/s3ce4FFV6Rv/IAkpQAihh94EFLEgqIgNERTFtva6ru1vdy3YsbuuDbFixbrrKhYQBRGxdxEsIEgJJNRASO8h/L/3hBPu3MxMJpNJMpO853nIzNy559xzf2fCvPnaMaUzfI2H43b+N96kWZrjKrM0/Z2P9yjQaiLE95sqgSYl0CZpeQfsJOCOTctXyxTqhNmis6ESaNY6hSKzt2kgfU8tf+FsyFj8Oj1P47HiPDJREaifr0VpkWzgbtZF6IyJs+dYgRaldcwQhwYRh4Y4scd+2GSsZdiB4DotVmsb3Kb/0ntHTB6yTZEMYJudP157E2govgurI+q2IXP0RM0cdXhHTV26hbpDgdOah8SI6+dVxqFhJ4UztZ9bpCFGDS7iowfsipOzc8JjYwo0XH/atCdNDFDnzl1MPJrTUoHsSGRJovgmRAHOQYPlAoHY8z6e41UY2di04VqZHUVGrasJBW6v/eeVJg4LFjtY7ry12ogD1K+CFQV1s1AbDcVzbbNfpnjd2ALt0v/7h6mVhkQGJDTYBiao17Zkye/mkD+Bdqu6pbETAcZA2QYEuvtqwa6dHa82a2D7BPP4ySdztUzGgdUsx9ZFiDFRSgI1zbw1ZJCedeYpJq4P9fWcAffu85E8gUzZQw45vJoAe/WVl4z1rXv3HqYWnbuvfY14OfzODBmyhzz40JSqWDr7vvPxswXz5d577zC11lAEuk+fvs631XJeKjhnN90poK8mKaBRoHkg4otmRKBJCbQvtXL9VK16jwYX5/CUBFPxHlmFMSpq2qk4QQ2yUAk0XMeW30Dx15GaOYltpVC4Fls+/aGxWBCHk1W87eXIgrRuxRTdqQDB/rA2IXkBddZQIBeV+uGmdQs+K9AQsA/L3UEqxiAOUQoD94V+96ulq7cWx7UNWyzdoMI1XUURMkZHpLQxOyQg9gziDTFpSH7wJtAwBix6037eYrIuwXSwxqKhqC7Gw3Uxf+yW4GwQwvdpSRNkioLHUD0HW0uhJlxqdqlunVVsxKXbQmjHaGyBhi+1yy+/2Gw3hUKYd9x5n52asTxddukFulXTSlNnDFsYJSYmysKffzJJBhBeDz70WLW6XevWpcvl6v6E+xZZmsjMgxv3G41Xg6UCgg/JCTa7reqCO5/UVhy8PF1rq7023XzpYguolG7dBV/w+IeSDpiPN4G2YMEnGoe0sOryqzSAHxmuiHtDRqFt+PK0FdttHbTaxqAhe/N+TapAg4vzgANHSY6KS2ztE9NKE3zUJYwdE/wJNOfOAqi2P2zY3hKnteJQAw6xU84Gq2Ewa2fHqO0a2H61fYRrFxmtw/cbaQRMW93C6nfl8KsWo0XJDGcJCl9j2/g9vO8rmxfvwep76inH62e4nan/h0xjWIAX6XZKf/65xBSDddYkQx93wx8E52j9MiQbQCDD6txedwdAu/rq66qySW0/1OhDrT64akePPljvsZ+UlpXKOnV3L1r0i9kxw2khpECz5PjY3Ag0KYGGxftAS0mgDIfdxqiFmnwGqLCYpC5B7KuJWmahFGi4JgQOynLA4uRsED3Y6xK12px10lAHbfriLWaPT5SbcDZYxRC7BSHkblagwXqG+/xJhaftjTpmuEfsXOBu2B4KBWedGaMQa6hthn04r9aSH74EGsZCTBxiy/Bor4fjEJanD+1gdnnAa2fD7gTYymqRJj847xHrMbhDvCkw7N65wPZvbIGGeWALmf+75B+mwOo119zgsR8nYsamPvaIwNKBLzPbsI3SrbrNk68sS2SYIbvPWobQD+4jiDVUQ0cGqa8WjDj4n9aUmv7Sc6YIKcZFkVvcC77sZ3/gfbN07Hbwnmad1tSQhXf/vx42pwUr0ND57bfflFe0UK/dqgclIgarC/iuu++Xp56cWlWh3lcWJ8ZAUsZbasVBkVZsHwRrJkSot62egl07XCeYNUC/2jbs+fnZZ58a8eTsi/XDrgvnamaltcA633c+xw4V99wz2Yigt2fMNALM+b59DlF1n34mf1Phjh0cnK1Ll67mWkcddYzzsNfnyMR95eWXzN6a2JIKYhjNV0wl4umef/4Zs17OARGnOWrUaHNdu0UUBZqTEJ83JwJhKdDqugBwycEShbIbKCrrrQJ+Xa/hrT8EGjYTVw1iLFsoQAtB4qtBRG5US1uW9ovXavyd9HxYxHw1K9Ae0Ng0bJ9UoG7SVbpBe9c2rfzWT7PjbVYL1ia9Hq6DfUb9TM128XjEfHF/hXpdbJaObbNqGgPZo7AmYuN6uFfBxG5r5TF4BL6AO2bNmlQtXJtvShLYnQNquhVY0VatWmHKSWDPQXzx1lfDF+UqjefCZunI7EM5i3BrEAZpaWtMPBpcW7bcRH3OM9i1q885ucdGAeMMzRyGeO2sFtaU7t19ltdw98XOFIhFO+ywMXL75Hvcb1d7jfIasKpmqrjCH2Fdu3Yz/+r784L4zLVr15g/VCDIIKzxRwsbCZCA/gFfWFzqNIqQSRgTcAu0MJ4qp0YCJNBIBJCBieB+WLLgbkfcIxsJkEDkEaBAi6A1o0CLoMXiVEmgEQigvAZcxtiNAAH4L7z4Gi1SjbAOvCQJhIIABVooKDbQGBRoDQSalyGBCCMAV/tVV15i4sgQg4fM44ceftxkQ0bYrXC6JEACOwlQoEXQR+FB3ecys2i72TO0l2sD+Qi6DU6VBEggxASQIHHffXdKK90mC+Uuxo07qqpMRYgvxeFIgAQaiAAFWgOB5mVIgARIgARIgARIIFACFGiBkuJ5JEACJEACJEACJNBABCjQGgg0L0MCJEACJEACJEACgRKgQAuUFM8jARIgARIgARIggQYiQIHWQKB5GRIgARIgARIgARIIlAAFWqCkeB4JkAAJkAAJkAAJNBABCrQGAs3LkAAJkAAJkAAJkECgBCjQAiXF80iABEiABEiABEiggQhQoDUQaF6GBEiABEiABEiABAIlQIEWKCmeRwIkQAIkQAIkQAINRIACrYFA8zIkQAIkQAIkQAIkECiBkAi0tJxS+S49X7q2jZFDe7cN9No8jwRIgARIgARIgARIwAuBkAi0r9PyZcr3m2Tvrgly+yEpXi4T/KH80u1mg/DWMS2lY0J08AOxJwmQAAmQAAmQAAlECIGwF2gfr8qR5xZukYN6tpFrD+waIVg5TRIgARIgARIgARIIngAFWvDs2JMESIAESIAESIAE6oUABVq9YOWgJEACJEACJEACJBA8gVoJtNLtO+T9ZVny59Yi2Va0XQZ3jJOx/RJlc365zxi0jIJyWbixQH7bXChbCsulsKxCUtrESK92sTKmb1vpkdiq2uzf02tszi8zx9fllpnrddU+e3aO9zj3iL6JMrBDnMexVVklsnBDgSzLLJZMvd6OHSI927WSPkmtZMLAJEEsm7/24YezZOWKv8wpyckd5Jxzz/d3Ot8jARIgARIgARIggZATCFig5ZRsl/u/2igrtxWbSbSLjZJcPRYX3VKFVqJ8uCLba5LANR+nSbpmeaLFtGwh7eKiJLt4u5RX7JBY7XvZfp1kdC/PzM9bPl0ny1Vg1dSu3r+LHOLIGsV8zp+ZWtUtXsVYvF4jq7hSqHVRkXfDqK7SNym26hz3k7vuvFW+/PJzc7hX7z4yffob7lP4mgRIgARIgARIgATqlUDAAu3pnzLk09RcY426eXQ36dI6RpBh+fgPm9VCVmgm6S2L854vN8iQTvFySK820ikhRlq0EFFtJp+vyZWnf84w/Z6e0Fs663i26dsi5ocIkgSe/2WLjEKSwAGeSQIYy9kg0O7V6x09sJ3s2621QESiFZVXyBu/ZcqclTkCS9yTR/c283D2tc8p0CwJPpIACZAACZAACTQWgYAE2raicrn0w7XG6jVlfC91T+5yS8LteeGsVClQ16U3gebvxh77frN8lZYnpw9NllN2T/Z6aqiyOCEKL/1wjWxVt+e9h3c3otHbBSnQvFHhMRIgARIgARIggYYkEJBA+3JtnkxVS1lvjRt7dHzPavN7Ri1h81fn1lqgzVyeLa/+utW4SC8f0bnauDgQKoGGse7/aoOx9l2lrlFfBXW//vpLSU9fi9MlMbGdHHPMceY5f5AACZAACZAACZBAQxEISKC9+2eWvPF7phzQo42J4XJPbubyLBVamT4F2u8ZRTJPXZUbNfAfgfslanVD265mLcSijVb35z9d7kt7jdoKNIz5pVrlvtHiuUhKyFLrX/lOd2nZ9grjXr1keCcZ17+dvQQfSYAESIAESIAESCCsCAQk0BADNlfjt8arqLlYxY27fb4mT574cbNXgfaUxq4t0Ng1NGRsdm4dbRIL8BqCLVWzLhFfdp2PIrS1EWglqsRu1gSDtTklEqUBan3bx0p7TUqIiaoMVlu+VTM7VbDhHnAvbCRAAiRAAiRAAiQQjgQCEmj/VevZDLWiIWMSmZPuhuD7F1TEuWPQvtX9OR/5bpMkarD+rQenyIBkz+xJlNN4XYP3QyXQrJAcpKU3rtdszeR4z62hkLCweFMhBZp7AfmaBEiABEiABEggrAgEJNA+0fiyaRpnNqxLvNxxaPdqN2AFnFugPbswQ12buXLOsA5ywuD21frZ2LVQCbQr56TJhrxSeWBsDxmY7FkfDRe/4qO1xmrnz4KWn58vpaUlZq5RUdHSrh0tbdUWjgdIgARIgARIgATqlUBAAg2uwVsWrJNYdRW+eHxfU1vMOavr56VLanZJNQuaDcr/+94dZeJuSc4uguzPy1UwIUPUn0CzVri9uiTI5EP9b8R+5rurpURLajx8ZE/j3nReEPO7QeeJcDR/Ao1ZnE5qfE4CJEACJEACJNAYBAISaJjYpPnpsmpbiZw0pL2ctWeHqrlaAYUDbgvaK5qhOUszNVGWA+U5bEPJi5cWbTF1yXDMn0DDzgCTPkk3cWuPjOtp6pjZcdyPOA/nT9A6aBfssytWDvXa7v96o0BoolGgucnxNQmQAAmQAAmQQDgRCFigIXYLIgdZkvt2S5DdNM5rvW7DBIHWrW2MrMstrSbQkARwre4kAGsZCtEeqFmgWthfFuu2T+t0d4HhKa1Nf38CDbBgvbPiqo/uAtAjsbKo7VEDkmSIbjdlmy0HgtdwcQ5PSTC7Hfy4vqBqF4NlKtIo0CwxPpIACZAACZAACYQjgYAFGib/++Yis+cmtn1CQ6bkuP6JZk/OKVp01m1Bwzm/qrCbtnCLZBRU7q2JYx0TouWqkV0kXUWd3SXAVxYnzsf13l6yTffzLNJCs2VVZTrcWz3h3A/+ypY3/9gmxerqRMNuAwNUrE3SpIHpi7caQUiBZtDwBwmQAAmQAAmQQJgSqJVAwz0ghmtjXpmJHYOVKjbatd+SlxuF1W39zj69ddPy9nGe2ZVeutTpELZ2gkUPZTf6a6kN7MnJRgIkQAIkQAIkQAKRQqDWAi1SbozzJAESIAESIAESIIFIJUCBFqkrx3mTAAmQAAmQAAk0WQIUaE12aXljJEACJEACJEACkUqAAi1SV47zJgESIAESIAESaLIEKNCa7NLyxkiABEiABEiABCKVAAVapK4c500CJEACJEACJNBkCVCgNdml5Y2RAAmQAAmQAAlEKgEKtEhdOc6bBEiABEiABEigyRKgQGuyS8sbIwESIAESIAESiFQCFGiRunKcNwmQAAmQAAmQQJMlQIHWZJeWN0YCJEACJEACJBCpBCjQInXlOG8SIAESIAESIIEmS4ACrckuLW+MBEiABEiABEggUglQoEXqynHeJEACJEACJEACTZYABVqTXVreGAmEhsCKbcWSmlUiWcXbRXaIdGsbI4f0but38B/W5UtGYbns2y1Burdt5ffcSHvz0/nzZPHiX+TYY4+XQYOHRNr0OV8SIIEIIUCBFiELxWmSQGMQePyHzfLF2jyPS0N03Xpwiscx94t7v9wgizYVyjUHdJGDe/kXc+6+4f566mMPy6xZ78ltt90lh48ZG+7T5fxIgAQilAAFWoQuHKdNAvVN4Mf1BfLvbzZKYmyUHDcoSQZ3jJfoFiKtW0VJilrR/DUKNH90+B4JkAAJ1EyAAq1mRjyDBJolgZcXb5UP/sqW8f3bycXDO9WKwVZ1bxaXV0iH+GiJj2lZq77hfjItaOG+QpwfCTQNAhRoTWMdeRckEHICD327Sb7XWLLLRnSWI/omhnz8SB2QAi1SV47zJoHIIhDWAm1bUbm8tWSbJMREybl7dZCN+WXmC2PRxkLJ1oDl3kmt5LjdkmRghzgP6tsrdsjcVTmyfGuxrM0pldb6F3yfpFg5Vs/155rJ1Ot9sDxbVmpAdKZaAOLUn9MxIVqGdUmQg3q2kWS1BnhrKzKLZcGaXFmTXSqFZRXSq10r2bNzvByplgf1CFVrCKD+PaNI9tFYnuHdWnu8rzHY8uIvW8yxc/bqKLFR1UeAZQPWidOHdpBoNU58t65AFm0sMPfapXWMjNEv09G92niMa18s0et+p9dPyy0VWDlwT4OV37j+idJZ+3prP6ira+GGAr2/EilTtn2V5cEaJL5P1wRvp9fpGNZ4nq7diswSw38P5XjMwCT5UuOg1umcEc/UPzm22jWyiivXLlXnmFFQbtZ5QPs445rzZ8FZua1EPlyRLRvyyiRHx4A7r0ubGLMuo3TNW3nhX+3itTwQzBp8nZYnC/VzjzWIadlCP/uxMlrnt5eXNSjbvkNeXFT5GbpkeGdZsqVIvk3Plz+3FunvQpQJ3D9xcHtp4fpoOfvhlhZrDNkW/Yzs0Sne4/cG1z56QLtqd/3G75mCMZwNyQT92ldfL+c54IHfH6wFft+G6pofP6i9zFyepWuyXY7R39tOetxbe3baU1JcXGTeGjZs7waJCaNA87YSPEYCJBBqAmEt0CCurv04TZLiouTfY3vKDZ+kS26JZpI5Gv4zv+uw7lVHNukX/KPfb5JV+p89GvoWlFYYYRGnauZytQbgi9fd8MV+y6frpHTnFwz6ba8QySutvN7f9+4oE/WLwt3w5f7Kr5l67g4VSy1UVLSU/J19IGD+eWBXIxCd/azr6OTdk+WMocnOt5AkJye/tdIce+WEvtJG433c7bz3U801pozvJc8uzJBlKkSdDd+7M04d4Dxk7gvXhfjBNXSqyiZaslSU4nWbVi3llRP6efSBCHxu4ZaqIHEIXZwLEYprHKdfohDOoWpLVUj8+5tN5t4wPsRRia7H3soRfCFqrxzZRQ7r4xl0ji/4R77bJDn62UC/drp2EPBoXVVs3XhQNyOazQHHD7B4Vu8PDf0gDnL1s1Ki94320JE9axQX5sQAf+CzVds1gCB++qcMI1BxmQRdA7AAF8z5BBVaZw/zXIMiXZ+z31ttZnXz6G7yoFrCcG7Fjh36zxw2DMHS2Zz9nMfdz30lCeCaGMPZakoS+DQ1V579eYts17lV/v600PWvMH9kLFNBCeH8ryN6yG6uP8LsNU48YYLk5uaYl8cdd6Jcfc319q16e6RAqze0HJgESMBBICIEWlsVKfiiRTtrzw7Gclau3zQQJn/ol7ONj8GXz7Xz0iRdhd2IlNZykcbNIAYGxz/Tv9AhNmAQefzo3ubL2MHBiLPlagmDeDtPLVf4skaDIPx8TZ500NewojnbWhV1181LN4fOUwF3lFoVYN2AOERwNSxyx2tw9bk6nrOFSqDhi3K1WvvO12sP0gDuBBWHa3JK5L0/s+S2Qzyz7F5VEQmLBIQYrCrgEwMBVL5DLTMF8j+1VE49qpdzmkb8zVuVKz0SW8kVKmytpfJP5T5FBRHu74ZRXeWAHp5cPAYJ8AWEyKUfrjWC8fA+iXLe3h2kjVp7/lDR9rAKDCt63QINFpvLPlorsLaOVusaPgsQkrCoTfl+s0C8DUiOU4Hfw2MmRSrCzlehi+tC4Izr106D3ytjpSAKPlbxdmS/RHPvHh3r8CKYNfhoRY6xhuGerlPWsObi8/yNWtSeUuGG34NbDu7mYYl1Ci0IfHw+YFGFaJ2zMkfeX5ZlrGdP6u+B/b2yt6U6qarhM/yTWk7xRw3WpKrp7xAEn7tB0NvuD2rf3zYX+c3ihHXucl1ziLMz9PcavysQab9tLpSHVKhjjdAo0Nyk+ZoESKA5EIgIgYaFGKhfsveN6S5R+h+4r4YvnxfUPWjO1b+63d6pJ37cbMQWvmyuGNm5ahh84Z35zirzZf2YipSeKkgCaTZGBxYdtzUCwvGOz9cbF+W0Y/sY15kdM1QCDda6J47u5dP1aq8HwXGNWiJhebl/TA8Vc54uYZwHi4zTnQpX2vVqsYToe1QtdVaw2jEheJ/8McO4RZ85prc9HPTj/NW58szPGcaVBgHtXOWv0/JVbG0yY7sFml1zuGefnqD9HB3xBX/hrDXGHYyyEBC0tkHc37pgnbGwPj+xr7Eo2vfq4zGYNYB4vEwFDMQnPq8eIkkn+b8/tslbS7dVE6BOgXbSkPbmjxrnPd22YL1xd166X2cZqyLUV3vg60qB5u3avvrY44FkceJ3Fes3sntrY+W0ffE4W5MTpqvFF40CzWDgDxIggWZGIGIEGixCNcU83TR/naCo5tX7d/FaSBOWrUnz06uJCvzVf9a7q41rqzZfRueoSwfuvrvVxYpYKXf7v9lrTAwPXGz4ErItVAINcURu95a9hvPxHbWo/Ufjg/bsEi93HrrLHew8x/38td8yjaUFweEIEnc3WK4u+mCNcQFDgCJGCEJ3c0GZ+1Sfr2FttMIP1hqUdThtj2Q5Vf85G4TK39XaBQuNW6DZfuiDvu5mRTniD2FJsg3xTjfqZwGC7ikVdojdq6nBhYr1DrQlqws5FnUptAWzBnC7X68WWrh6X1b3s1NAY8wMZQ2rI9prJ/Yz7k88dwo0iOveGhPpbFYYeWPtPK++BdrlavlESMIk/f3Y3/H7gTnAcn3+zFQzHX8C7d133pKS0spwhoEDB8l++4103kK9PA/Exbl58yYpLy8P+PopKd31s+j46yLgnjyRBEigqRKIGIHm/ALytRjnqmAq0C/QeLX6RKm3yumugQhDs1+w7vHsFzksdPiyQJA/4l4QEO3tv02MA4GG9sJxfaS9fhm7291fbJBf1V3zj306mkB3+36oBJpb+Nnx3Y/23rxZU9zn2tdW+EAc4J83lnCPwj11k8Y5wWUKSw9EW6ANyRSIo0ODtQ7V6v+phU3hqnS3f6oFME1d126BBgEDIeOrnxVGWFMIAdvgGrxmbppJPIHb96CebWV3DYbHmnduXX0t0Q8WPlj6Am2T1CW5/073bzBrYOuQIbHlCbUquhs+06fPWGXcnI+O62k+qzjHKdBeV+HmTpJ4Uy1vb6vlbcLAdnLBPr7LZ9SnQHPOHZ8BfBbcDX80QZT7E2juPg3xOhCBdu65p8v6dZXhD4HM6f2Zc6RtW9/WzEDG4DkkQAJNi0BECDQERkNQ+WuIUULwPBoy2yDS/LXL1L1jY45wHr7UXlKXyhcabwbRYRu+OGBpwBetU6hBLEA0oL11yoBq7lQcn6pV2JF96I5DC5VAe0S/lJGdWlOzLi3EZ6GmVSDNCiJk4PnK7rTjwDo1RN2mSKh4UGOHAm2wWllXM6wlsJrAwgdLn7vdqe5ib0kCsKzhur76WdcpMj8f1EQTZ4PbEaILyQnOtp+KzVM1gcOdLTpTM3x/1pisQBsSQCD60IJZA+u+HaLxhfeqe99bgyCGMHbGoTkF2tv62XRHBVjXaGMKNKeF7MXj+hpXs/v+YB2ElTASBdr9990lW7ZkuG/J5+v77n9QEhJ2Wdl9nsg3SIAEmg2BiBBoyKjEf+L+mnrc5Ay1JkBcPajZd/1rSO33NRYscL+r1QsBzt+k55mMMpwL9xiEiG0IkL94p7XIbY2z51grFAKgT9ZYINv8CTTcx6lvB5bFCauKv7Ih9np2HmfqPP7mmId939vjZBVECLBHwgSqyNd3s+5gZB1CILnbzZph+5cmcbgtaNZN5suaaGOZhqnou8OHexflRhCYjjIWEGCwrqE9rJ+jvkF+jtzzD2YNIO4h8lHW5GEV496adbPfp7GFg3fGFkaCQMPn/PQZK41b3Nfn+Lz3V5vfv0gUaN7WisdIgARIoDYEmoxAw01fOWetSct3WhNqA8N9LmKfEK8DK4w7ExBGttM0sQCB98h+RKaju92oMXErvcTEoV5qLoErAABAAElEQVTUuxoX5rasoT/EwiUau4ZWU5kNX19sprPjh80eRH00ZOQF0qapZekTvW9vcwykf23Puf2z9caS5Stw3VpT3ALNWtZ8WQftvfuKpXPPE9Y4uKaRHYtaXKEqI2LnUZs1+FMte7cpl3Zam+2l46v/gYLEDiS3oD03sY/JWMbzSBBomCc+5/i8Tz40RfbS7FRng/v8zHcr782fQMvOzpKKisq4wLi4uAaxQgXi4nTeC5+TAAmQQDAEmpRAsy7F2nwJ1gQNQe/IpIN7878n9zdlNGyfqzWGCcVT8SWOL3Nng9sJX0AwxsC15nSXWdcVynZcq3XSnA1FZFFWAi1UAs2OiVikaZpx6a22mnMOeI76VKi/1U3Lm0xVS507I9Z9fl1fW0GIMifXuZjAFQnxjeYWaM+rgJ6rmYC+anPtWqOORmwGMs8Feu8oYTFI49Hu12zgULRg1gBlMS78INXE/6EO4ABXgV4Un0X9N6zra5pEYGPMI0WgPapz/0bvwZt4ttZDsPcn0FgHLRSfTo5BAiQQjgSalEBDBfmr5mpdJVVFN4zyzJwEfDiuftPq6LA8OLMqEfCPWmCo54XMQmfDTgaoEYZ6Ucj2czYb34Raa/gitxmJsK49+VNlSQ9v8UNwp92lVhqUyXh0fM+qDEK4VyerxQQlLtBCJdBw33ARYscD3OOVWrIB17YNLr0Ptd4WrGW2wQV1vdaUQ6wdiqHCPeoWaXgPVeq9VZW34wT6iJpy12rAP/j/S2uWwa2Hhrk/vjOWD6/dAg3iDWuONlkzfVEnzDYrMiFgnj2mj0fMIRijICoKHbubde+iBAUseqFowawBrmv/6ICFCe5f1K5DQ8zl5M826O4RJeIueBwpAg1WShSfxj1N0t9XWwYF4QOwqG7WDE80CjSDgT9IgASaGYEmJdCwdijs+dLiLcbqgGBzbPeDLZvwRY5CtEjrd2cz2uxDFMRF1XrEdcHy9XtGodlyCHFtbmGAa0EITlI3Jr7sESd3oIofjIHMTVwLXzx3qGgYsjNQHH3QIOBgEcK2RtCDI7u30SzQKBP/hHNhPUALlUDDWMiQhCiECw9B/3spGzxiDgiSz9MA/VddiRjYKuu+rzaYzNiemiwxVOeGgr0I3E7Vba0g+EJpZUKtM9Q8Q1blYVqrDttQYQurZXoduPngDvO2DtaKhiKnsEpi/TA/bKkFYeTNwvmVFnp9TAvZ4lwE8sNSCGGA2ENYRSFgH1ChGGhNPDCuqQWzBvjc3qTlQCDee7eLleEpCWY7pR81Vg4CBn8cIAvSnfBidxJoqCQB/BGD3yPbsB0beKL8DNjaht8R/I7ZhlpniBPE70E//V1NjG2pNdqKTdIJ7h2/rxRolhYfSYAEmhOBJifQsHgIJp+m28fAuuBsKBeBLwe4I21ANd6HxeExtdIgKN5WL7f9UN8LNbbgNvXWYI173myHlGtEnT0HMWko/eAryxKiDtsaQeygQVxY69ZpmuyAFkqBhvFQxwtzRfkGZ6YqXJ7jdS9OWMncDV+62A4JX7jOPnCnDe4Qbwqdurdeco8R6GtY7bAPqd2OCv0glK49sItxY/6ic/Am0HAevuRR6w3rYRvuC7Fp7h0g8D7qoE1XIY89P533hfcgOrH7g/MzguOhaMGsASzDj/2wyewta+cAO9pwTaZATCH2D3W2xrCg2axf5zy8PfcmluHy/0R3rEjLLTHlapDQcdG+ncwuHWbrNi+13OzYdHFaEnwkARJoagTCWqDVFTa+qNLVGgIXJiw/KOsAkear4bt9Y16psQTgax4WJvzz06VqKBRuxQbkuBYKg7q/NKtOdDyBBQ7WGrjaBqgocBcidZwa0qe47ga1TGzRL/4O8VGSomLS7dp1XxBu0PVq0cAm8rAWgqXTauM+vy6vsXcqCg6jVArirlCbDpY8fwIN14NlEhZBiF5YxjrpHH2vduUMUWdro95XlsZ7xaulFX2sq7ou91BT32DWAFY0CHusFcq/ON3UNV0vEt7H75B14WK+SICA4H7jpH5hda9MEoiETxPnSAKRT6BJC7TIXx7egSUQiECz5/Ix8gnYXRTgwkWGajg1CrRwWg3OhQSaLgEKtKa7tk3qzijQmtRyVt0MNqXv3raViVWz1k64gbFZ+p9bi6rtwlHVsRGfUKA1InxemgSaEQEKtGa02JF8qxRokbx6vudu1xXJNSmJMZp4I5KusaNwbSJz9daDuxkXt+8RGv4dCrSGZ84rkkBzJECB1hxXPQLv+dmF2JKp2GwOj30/2ZoGAZS3QT231KxSTWIpN7FmSLDBGh+hZU6sVS2c7pYCLZxWg3MhgaZLgAKt6a4t74wESKAeCCxe/IusXr1KRo48QHr08L4FVz1clkOSAAk0MwIUaM1swXm7JEACJEACJEAC4U+AAi3814gzJAESIAESIAESaGYEKNCa2YLzdkmABEiABEiABMKfAAVa+K8RZ0gCJEACJEACJNDMCFCgNbMF5+2SAAmQAAmQAAmEPwEKtPBfI86QBEiABEiABEigmRGgQGtmC87bJQESIAESIAESCH8CFGjhv0acIQmQAAmQAAmQQDMjQIHWzBact0sCJEACJEACJBD+BCjQfKxRSUmJfDJvjvz40w+StW2b5ObmyJTHnpLk5A4+evAwCZAACZAACZAACYSGAAWaD45333W7fPHFAmnZsqX06tVb2rZNlDvvul+SkpJ89OBhEiABEiABEiABEggNAQo0LxwzMzPl1FOOkxYtWshTT78ggwYN9nIWD5EACZAACZAACZBA/RCgQPPCdenSJXLlFRdLt24p8vobb3s5g4dIgARIgARIgARIoP4IUKB5Yfvtt1/L7bfdaCxnTz/zopczeIgESIAESIAESIAE6o8ABZoXtt9+85XcfvtNMmjwEHlaXZxsJEACJEACJEACJNCQBCjQvNCmQPMChYdIgARIgARIgAQajAAFmhfUs2fPlCmPPihDhw6TqY8/4+UMHiIBEiABEiABEiCB+iNAgeaF7Z133CJfffWFHD5mrNx2211ezuAhEiABEiABEiABEqg/AhRoLrZ//rlEJt1wjRQWFso99/5bRo0a7TqDL0mABEiABEiABEigfglQoCnf996bIR/OniXZ2VkSExMjg4fsLscee7wMHz6ifulzdBIgARIgARIgARLwQoACTaF8MOt9mTN3tmzJyDCIBmv25gknnkyB5uUDw0MkQAIkQAIkQAL1T4ACzcUYNdDumHyzVFRUyAMPPCIjRh7gOoMvSYAESIAESIAESKB+CVCgeeF7w/VXyy+//Cxjxhwpt952p5czeIgESIAESIAESIAE6o8ABZoXtjNnviuPT31Ehu6pZTamssyGF0Q8RAIkQAIkQAIkUI8EKNC8wGWhWi9QeIgESIAESIAESKDBCFCgeUFNgeYFCg+RAAmQAAmQAAk0GAEKNC+oFy1aKNdfd5X06t1Hpk9/w8sZPEQCJEACJEACJEAC9UeAAs0L2/Xr18m555wmsbFxMuOdWZKQ0NrLWTxEAiRAAiRAAiRAAvVDgALNC1eU2LjggnMkbe0aGThwkBw46iBp2zZRjj76WImPj/fSg4dIgARIgARIgARIIHQEKNB8sFyxYrk8O+0pgbvTtjf/95506tTZvuQjCZAACZAACZAACdQLAQq0GrCWl5fJtm1ZkpeXK701Ji06OrqGHnybBEiABEiABEiABOpGgAKtbvzYmwRIgARIgARIgARCToACLeRIOSAJkAAJkAAJkAAJ1I0ABVrd+LE3CZAACZAACZAACYScAAVayJFyQBIgARIgARIgARKoGwEKtLrxY28SIAESIAESIAESCDkBCrSQI+WAJEACJEACJEACJFA3AhRodePH3iRAAiRAAiRAAiQQcgIUaCFHygFJgARIgARIgARIoG4EKNDqxo+9SYAESIAESIAESCDkBCjQQo6UA5IACZAACZAACZBA3QhQoNWNH3uTAAmQAAmQAAmQQMgJUKCFHCkHJAESIIHQEdixY4f8+MN3Mn/+PNm6dYtk52TLRRddKqNGjQ7dRTgSCZBA2BGgQGuEJfkjo0g25JVKXHRLOaR326oZ/K7HN3o5XnVCkE/Sc0tl3qqcar3P3LODxOsc2IInsEO7FpZWSEKrltIi+GHYswEINPTvXahuaebMd+XxqY+Y4bp2S5GOHTrKuef9Q4YPHxGqS3AcEiCBMCRAgdYIi/L4D5vli7V50jEhWp49tk/VDKbq8S+9HK86IcgnP28okH99vbFa75eO7yvtYqOqHW/sA1sLy6WgrEI6xEdJm1bhN78KVWUfq+CF6N2YXyZl23dITMsW0qVNjOzTNUEOVtHdv32sV4xl2nlDXplEqZrrkdjK6znhcDC/dLtkFm2X1jEtzec0HOZU1zk09O9dXedr+//9vDMkPT1N/u/SK+WUU063h/lIAiTQxAlQoDXCAjf0FwUERen2iqo7Pfe9VNmubpNwFWiPfLdJvk3Pl4uHd5Lx/dtVzTscnkBg3b5gvazYVmymE63CrHe7VgJRmVOy3Rw7VAXaVft38TrddWrNvHpumiTFRcmLx/X1ek44HIQAfW7hFjmoZxu59sCu4TClOs+hoX/v6jxhHQDuzaOPOlzKysrkv2++J507dw7FsByDBEggAghQoDXCIjX2F8Wpb6+iQAty3acv3iqz/8qWrmotO3dYBxmmFjPrJt5WVC4frsiR4vIKuWjfTl6vQIHmFUuDHGzs37tgbrKwsEAmHjvOdP3wo08lLi4umGHYhwRIIAIJUKA1wqI19hcFBVrwi37e+6slX2PO7hvTQwZ39P5libg0X/FoFGjBs69rz8b+vQtm/gUF+XLcxPGm60dzPpXYWO+fuWDGZh8SIIHwJkCB1gjrE4oviiWaUPDdunxJU5cZ3GvJ8dEyuEOcjOufKJ1bx/i9q0AEGuKqXvl1qxnngn06SQuX4li4sUAWbSyUPTrHy4E92lS7Xkn5DpmrbrJfNxVKRkGZ6d8+LloGqaiB26xP0q4YLb2UPL8wo2qM3/TeNmts15CO8Rqn5Xkv5+zV0cRFVZ2888l2dT3iesu3FsvanFJzDq5x7G5JktLWcwxnX7jyUrNKTLLGYL3eD+vzzX39ubVI2mr824jurWXCwCSJ1aAxcL5k9hrT/fUT+0m8xmcF0n5cXyC/KC80xNbBfdtKx4Mr1NmGdIqvdsy+/7Ja7mCZO31oB0Fex3frwL/A3GsXXe8xfRNldK9d65BRUC5Yo982F8oWnXehXjdFrX692sXquW29xr+9tyzLcMc11+WWCRjAUrinrrGzHaHXGqifNXcLdg3wWV6wJldWbisx8W5D9XrHD2ovM5dnSU7xdjlG17CTxmui4fOEz31PdSsfo+virRUpp1eUF5rz81LX37vMzK3y+msvm3HxY8IxE2XgwEFVr+vjCQVafVDlmCQQGQQo0BphneryRVGqagZf1ghQh6VGQ6A0nilastS9htdtNJvwlRP6+b2rQARakX6hn/3eajPO26cMMNdxDvq/P7bJW0u3qXhpJxBwzoa+k+avM5mqOA4hk6CqAi5AzHG/lNZy8+huVV3KVVydNmNV1Wt/T56b2EeTByq/rO15m1TMPfr9JlmlX/BoiO8qUCsX4sWQKXv5iM4ySkWht/bQt5vke/3Cv0Tj3TbllxtR4D7vnsO7y+4qnnI1xuz8manmbcRlQWgG0t74PVPe/TOrxlMhfC7TuXpr572fqpa77TJlfC95VsXsMhWizgb9POPUAVWHrvk4TdJVqKIhgaGdMslWsQPWscrksv06qaDzFIi3fLpOlmd6jls1oOPJ1Rpf58w+xlvBrsGnqbny7M9bjMsd8Xxx0S2MhRKCc5kKRCRU/OuIHrLbTkGI11fOWSsxKnARw4ckBndboGM+9VOG9E+OlQfH9qx6uy6/dxgkNXW1XHjBOVXj3T75HjnssDFVr+vjybp16XLeuafrHzgtZO7Hn0t0tOdnvz6uyTFJgATCgwAFWiOsw0+aVWmtPEcP2BUE7+u4c4qv/pppRASE2CXDO8sIFTv4soLFChaT/y3ZJlOP6uXsUu15fQs0K0i6qfXlRhViPdq2MhY0iEtYkzbkl8qpuyd7zEtjoasaxJZNEhjXbxcfnOC25KnekGvnVYoRsLhIhRYEHI5/plYZBLorHnn86N5esxGtQNu3W4L8vrlIThuabJh2UIsNrHifrM6VQ1TIwPKHdsVHa03mJixLiDMb1iWhmng1Jzp+mFvbeX/rtIzKNTuTBF6Y2Ndxlj7VeUJoeWtWoGGeq9Xid/7eHXVO8Ub4rskpkfdUAN52SEpV13u+3CCwyB2iVrVOCTGGG5h8rkye/rnSWvn0hN4e1lbnPGFZfP6XLUbYXnuAZ5JAqNYAlr3LP1xrxNkZWvLl+EFJah1sYax+D32zSWAJQ3MKNLy+/bP1snRLkc8kEvs+RPc4R5KJr98vX8dxLWdrDIH23nsz5Mknpkhycgd5e8Ys53T4nARIoIkToECLoAWG9QCWEbiS7tcYKCsanLdQoiII7jh/rb4F2l1frNcv2SK5UAWMU4D6m5Pzvdpkcc5ZmSMvqJAYmBwn96mlxX3rT/y4WUVJnhzeJ1GuGFndOmUFGq5/k4pJiDx/DS7D+77aaCxROC9Ry5TsoUJob00WOKBH6xrLggQbg2YFGiyCTxzdy7i0/c3T33uPfb9ZvkrLU3dpspziEsq2X22yOINdA6wb+o5UN/KNB+2yqGIOSMRAQgaaW6ChFA1K0mDNHxjbw5xjf2xWdzpEH1zIsLAF6oa2/f09NrRAg0v1lpuvl5UrV8jJJ58ml152lb/p8T0SIIEmRoACLYIW9B21kvxH3WV7domXOw/tHvTM61ug3ffVBo25KpTD+rSVK0d6Lzfhb/K1EWg3qSsVJS+8ud1wDbg9J81PN5aiZ47pXe2yVqAhpuoBFXiBtLXZJTJd4/MQOwWrlG1Rav2ZoBbRszW7E5Ygb62uAu3Ewe3N+N7GDvTYzOXZ8qrOH25EuH+9tdoItGDX4HK1RsI1OknF2f4q0pzN6U52CzTER14wK9XE8z2m1uKejnpysCC/pf+C/ew55+B+np2dLXPmfFB1+KCDDpFevap/pqpOCOLJ0qVLZMqjDwpiz4qLi0yM2yGHHi7jx0+gezMInuxCApFMgAItglbPWoNOGtJezlKXULCtvgWajQHC/OBmG65uOQTgD9DirXDH1tRqI9DO1Tg5BN6j1EWUhiM5XaVWOyFAHu01DexPcMUsWYGGZAK4DWvTUPcMwf9LMoqNexmiAs2bRciOW1eBBksTxg+kYWcKW0w3U92JsK6iwQKLWDQkFfzT5b6049ZGoAWzBpjJ6Rp3iHkgrq6XBv2721nvrjaJEW6BhvOs9Q1u0XM1cQQNY16m1jMkpdyrcYP47EVaW7ZsqTzx+BTJzc2RHN3SacCA3WTMmLFy9ISJEhUVfkWbI40v50sCkUSAAi2CVus2LZCKzLq6FnCtb4GGL8pZaqV5W5MIkDBgG3YtOEEtQOPVyuTPDRuoQEPQPFx/aHs56pHZ67kfL9uvs7TW2D1nswLtH/t09JkV6Dzf13NY0mbo/cKCg2YTC9zn11WgPTKup0cGrHt8+xpB8hDKaNixoHPraJMwgdfY/QCZq0icuM5HEdpABVqwa+C0kMEVicQOd7t0p9jyJtDWqBXzunnppt9zGssH3b9E49Ima3wasnaf0JjDSG9paWvkxknXSkbGZjn9jLPN/puRfk+cPwmQQOAEKNACZ9XoZ/77m40myB57aP5NrWjBtlAItP+qq3WGuly9ZXHaecFSs3RLsfniRMwT3Flo/ixMeD9QgQaD0BlqhcGuCA8e2dPn9koY01ezAs0dUO7rfH/HIdLgeoP4gJsT7kh3q6tAg/DwVzYE10OCBRgiPu7Wg1NkgGYzOhvKabz+W2ZIBFqwa4B+p89YaVzEvu7J1pzzJtBwPzeqe3ulureREYzM4Cd/zDCJIb7YOxlEyvPXX39Zpr/0vHTQ/TffentmpEyb8yQBEggBAQq0EEBsqCFsBqe/2KFA5nLmO6uMu+uZY/oYy4q3PihRARcU2n9O6q+lGTxdk9ZC40+gucdFViW+RBGfhW2mvJVIQJ9ABRrORckFJE/ccnA3daUG5vpDP9tCKdAwpt1P1ZfLtCEEGspwzFuVK+eoSITF0t2e0SzO+ZqdGgoLGsYOdg1QUw615SYfmiJ7aTassyEr+cx3Kz9/vgQa7gH3gvi1q/fvKv9QcYz4NJRi8WaRc44fzPPt27cbt6Pt26ZNW2nVqrpr1r4fise1a9fIP84/i2U2QgGTY5BAhBGgQIugBUOBzoe1bhcy06ZpwHuwG4lfNSdN1mu5B8QfOYubulH8Xd2HeepGfFyzBrtrqQxns3W2aiPQ0L/qS1lLQsAt6a2hvMNcze4LxFJoBVGworW2Ag0xbu4yE857qMkNbV17EKlvntzfZ1kN55h4brM4fVmbnOffr0kaCzVJ4+8aUzdRY+ucDaVOEJyPmnT+BJq1wkE4QUD5a8GuwaNq5ftGrX3e6r/ZTE1c15dAQxmOC2atMXFsiMlE4kNN1ll/91HTew2dxYn5sFBtTavC90mg6RKgQIugtVVtIDdrMdEVWkz0AK3ef6WWjUDZBdsQcI29IBE47a/Zgp2oqYVNvVEx31u7dcE6UxAVIuz8vTtV1ftyJgF4E2hfaBmEfVR8wcXmbDZGCMeeVysHdj/w1hC/hl0MkFl5hwo5f6USUDH/qrlaS0vv/YZR1QPowew3rT6PAHlvwfW1FWgQpsep6DlUy3Y48x0w/vzVOfLSoq1GwD2iLtfejt0SnPd5tga/Q1zUpthtbQQa2IEhAu8RgG8bXLAvLaosbYFj/gTaKo1Rm/RJuvl8Ie4Ndd98tWDXAPXcbtBrIHFkkq4dPo9omSoeUcsMdejQfAk0vPe0xtqh2C0ELz7/gZRKQb9gGgVaMNTYhwRIIFgCFGjBkmukfgjuvuuLDcayhS2d9tKSG3hE4DeKd+Zp/NOrmq3or+Hcf6rQgDsIVeURowQH5sFakHVsv8Sqrk4rRkct3Iov9I3qToTQQmX9n7XgrjeBhmKucF3BQoYSCAjMR+X7PzSrENsV+apJZi8MK9NlOgYSDFC6YogWibUuKxSHdVsOP1JR+tLiLSaDEyVIBrSPMxXp4fpEZXzEvvnKfK2tQIPbF+5fiM8+Sa2MZRE8wQQ80Xxdy96fLeSL1+CKKvl6mzK0c4Ic6eBvz8djbQQa5nOtri+sZfhsYCsu6PjFWsNtne4uMFzjtWAh8yfQcM1bVKBj6yw0bJtlt906akCSWRPzxs4fwa6B3Xwe999P1y0xtqUmwhSb8bF+WDt/Au0vXV/80YKGJJTnNeHAKZx3Ti8kD40h0OBWHT/uMP1sV8g7786WpKTqLuuQ3BwHIQESCDsCFGhhtyQ1TwjlHZ7XCvmoyo8AedsgXMbrXpxwDdbUUMvrFQ0UX611wuDGRHPX2ILF5fXfturOBdlVw6FK/5VqdVuqYsvXVk/YigquK7jRnA3WPgg67CJQU7kNzA8ZkanZpcaiAgsZmretnnAcX9TTdMugtVpV39lQsBRFZLG3o7fNzWsr0MACW0PBirmLfOUVsV/kqXsky2FqXYPg8NVg6UGBVhTQ3VpYZrY2wrneXH12jNoINPTBnpXT9DOCkhO2QQxepXXp0nX/VrtLgK8sTvTB5+xtXQMUHcY8bZkOXzXngl0DsPhEY+bScksE+7UOU5ENIY4sTQi0R9UK2NtLGQ57X9ZlD3cu3Lr11RpDoOFeTj3leEHR2ocenir77rtffd0exyUBEggzAhRoYbYgtZkORMsG/QLbom6+DvFRkqLWKuy7GOqGL+o0FUqdtFSDP1eX+7oQB7CkFWvAN7ZOQl9/5TXc/YN5DasbBAhqn+Ga2EgcIi3UDXt9ZqhoySrablywKGORrOLCX3xaqOdQ03j4fKxXKxSEcm+19kH8NEQLdg1ggXQKd5vM8sZJ/Txc+c57gEX2Qo1Dg8sYW5yhpEhTayhcO3v2TM3k7CBjx46XZM3o3H//A6Vnz13u66Z2z7wfEiABjXcuLC51GwLIhQRIgAQalUCqWlCvVwsaLLawmvpqdpspbHuG7c+aYsvJyZFpzzwhCxbMl/LySovozTdPlrFHjm+Kt8t7IgES2EmAAo0fBRIggUYjgIK4yBDeo3N8VUYrLLbYLB1FmX0VEEa43+JNBfLEDxnGRQ9XLWLqmnKrqKgwZT6w5VTHjp2kbdu2Tfl2eW8k0OwJUKA1+48AAZBA4xGw+7YikzglMUazcUXSNY4Q8W4o8XGr1rdDooizoawH4gCRBIGGfTevGNElrNzLzvnyOQmQAAkEQ4ACLRhq7EMCJBASAgt1L1NklKZmlWpSQrmJNUMc2QjNND1CM1o9pVnlJV/T5BZkBCPub6ha3sb1a0dxFpLV4CAkQALhRIACLZxWg3MhARIgARIgARIgASVAgcaPAQmQAAmQAAmQAAmEGQEKtDBbEE6HBEiABEiABEiABCjQ+BkgARIgARIgARIggTAjQIEWZgvC6ZAACZAACZAACZAABRo/AyRAAiRAAiRAAiQQZgQo0MJsQTgdEiABEiABEiABEqBA42eABEiABEiABEiABMKMAAVamC0Ip0MCJEACJEACJEACFGj8DJAACYScQElJiXwyb478+NMPkrVtm+Tm5siUx56S5OQOIb8WByQBEiCBpkiAAq0prqrrnr5cmyfF5RWSoptSY2sc23wdt+//uL5Afs8otC/NY1JctPxtSHuPY/X5AvstttD9fmJc+zE6rzlzeZZsLSx3HpIhHeObxObZvtbI13EPCI344u67bpcvvlggLVu2lF69euvG3oly5133S1JSUiPOipcmARIggcghQIEWOWsV9Ewvmb3GCJhDe7eVq/bvUjXOxR+skcyicrPZ9JUjdx23J7zy61aZtTzbvjSP2Cdx6lG9PI6F+kV6bqnMXJYtq7KKZZ0+36F7YifFR+v+jAlyzMAkwRycbdIn6XpuifOQjO/fTi4e3snjWCS+CHbtGvNeMzMz5dRTjlNh3UKeevoFGTRocGNOh9cmARIggYgkQIEWkctWu0kH+yVfXrFD8A/tr8xiueuLDUYc1adA+0Gtdo//sNlY/GA5gxiDFS0jv0wwkwkD28kF+3gKL7xfARWnDcLuraXbKNAMjcb5sXTpErnyioulW7cUef2NtxtnErwqCZAACUQ4AQq0CF/AQKYfrEBzjr1sa7HcumBdvQq0xZsK5d4vNxghBkvZGUOTJT6mpZlGQVmFvL8sS7ZXiJy7l+84phl/Zsl/f8+kQHMuXgM///bbr+X22240lrOnn3mxga/Oy5EACZBA0yBAgdY01tHvXUSKQLvl03WyXC11/tyT29WiF+UnHo0Cze9HoUHe/Pabr+T222+SQYOHyNPq4mQjARIgARKoPQEKtNozi7gejSHQSsp3yNxVOfKrWsUyCspMoH97TTAY1DFODurZRvokxXpw/H1zkdz5xXpRr6Y8OaG3dG0T4/F+oC8CFWhw3S7JKJKfNxbI2uxSE4uXoNa6Xu1ayaAOcXJkv3Zmzr6uu3JbiXy4Ils25JVJTnG5JMZGSRed8/BurU1yQqso3IlngxP2u/R8+UKTNsCkWBm1j4sy1xzZvY3s2y3Bs4O+quva/frrIvn8s0+rxr34ksslPn5XokjVGyF8QoEWQpgcigRIoNkSoEBrBktf1y95IKqNi7NI3ZGT5q9T8VJq6MJNmRDdUrZpQgJEyn4preXm0d3Me/bHy4u3ygd/ZRtxdP8RPezhWj8GKtC+W5cvD3+7qWr8diqwMLfcku3m2F5dE+SfB3SRtq2iqs6xT+ap8Hx24RbzEjKsY0K05JZWSIlmyqI9dGRP6dfeU4Di+JTvN8vXaXl4KtFqBUzWxAckacAqGK98Xj+pn3nP+aOua/f+ezPkiSemVA35zruzNZOyfrNwZ8+eKVMefVCGDh0mUx9/purafEICJEACJBA4AQq0wFlF7JlzVuYIYrh6q3VohIoj2z5akSOFKir66HGIJn+tNgLtDY0Be1djwbqpRelGFWI9tLwHAv4RzI/SHRvyS+XU3ZM9LveQiqXvVTQd1qeteMso9TjZz4tABRqSET5LzZWjB7ST3dSqB4GEBsvWEz9myNItRTKmb6JcPqKzx9WKlNf576dKmYqqs4d1kHFqaWvdqrIvrGkfq3g7sl9itUxTWBLv1vi6KAVx6yHdZHctAxKjVjYdRpZvLZJPU/PkipGe18KF67p2jSHQ7rzjFvnqqy/k8DFj5bbb7vLgxxckQAIkQAKBEaBAC4xTsz+rNgLtLnVV/qYuywv37WQEUCDwbKmM4we195sEUNNYgQo0f+Ns1IzRKz5aa2qvvfG3/iqqdp1tOSSpa/L5iX3FTzjcrk76zM7rwB5t5PpRXT3eq88XDS3Q/vxziUy64RopLCyUe+79t4waNbo+b49jkwAJkECTJUCB1mSXNrQ3ZoVJIHXQ7vtqg/yysbBW1rALZqVKdvF2OUetUicMDt4FZ4WQv0SDQMic+e5q47J89tg+xoVp+yD27Mb56cYi+JTGynVpHVisHIrpvvprpolTe+ro3n7j2+y1QvH411/LZeHCH6uGOumkUyQ2Nq7qdSievKdu1A9nz5Ls7CyJiYmRwUN2l2OPPV6GDx8RiuE5BgmQAAk0SwIUaM1y2Wt/07URaAvUdfjUTxnmIkM6xWvgfIIMVpfeAI3LglvPW7vm4zRJzymVk3WXgjP29F1Gw1tf57HaCLT80u3Ghfi7Jgtk6k4EOSoQK6PI1B2rrkzEpD2hYiql7S4RhuSCa+amCaxsbdS1eVDPtrK73uNumljQuXW0cyoez+H+/KfeI/rD9XugJkpgt4OBHWK9xrl5dA7zFx/Mel/mzJ0tWzIq13ywZm+ecOLJFGhhvm6cHgmQQHgToEAL7/UJm9nVRqBB2GAHgre1YCwSBmxDID6sY+M17ivWJdSs1e0Ijfu6zBX3ZfsH8hioQEtTMXiL1nXD/JC92btdrLRTt6V1Wf6kMWqIM0NRXvfOBRBbz/xcGafmnBPi+BBb1z+5eoIAzlukcWjPaXIB4txswxZWYzVm7SQVpkgaiPSGGmh3TL5ZKioq5IEHHpERIw+I9Fvi/EmABEigUQhQoDUK9si7aG0Emr07ZCcu3VIsSzTg/ivNXtykVie0kd1by40HeWZxQrggwH5vzZ68/ZAUO0StHwMVaFerFQzbSMEVet5eHSU2epdlDwLzzHdWmaQGbwLNTgr7f/62uVAWqjv35w0FVbsuPKxZnH29ZHHafqm6LdUfygSZpMu1ADAaynS8MLGP3xpvtn+4P95w/dXyyy8/y5gxR8qtt90Z7tPl/EiABEggLAlQoIXlsoTfpGzsVSctKTFN47KCaZ+tyZUnNUMSJSZeOr6vtN65SwDG+nxNnmZPbjbvvXBcn6DdfjbWy182KGLdEPMWp5mbr53Yr8pqZu8J5UAu0n1K0fwJNHPCzh956i69W7fCWq3iqzaJDrDk3aQFelGi49aDU7zWQnNep7bPS0qKpaCgoKpb+/bJGv+2S4xWvRHCJzNnviuPT31Ehu6pZTamssxGCNFyKBIggWZEgAKtGS12XW7VihqM8eJxfQVZjME0W9drslrJUGvMNljbLtPMSVilzlWL1vGDkuxbtXr8RgvBPvrdJo0ba6XxY7289l2lgf6TNNAfNc5eVDHo3pkABWhfWrTV9A1UoOFkG3uHQre1qeWGvUdRvBZuzrPqEH/n7WYbOosTc2ChWm8rwWMkQAIkUDsCFGi149Wsz7bi6hSNszp59/bG2uUNCMTGPiq+4LZzNrg6J3+23hx6Xt157piruVqv7flfthjBdNXILjK6Vxtnd5MZulFrqGGfTl8NbtQr5qwV7J1+m4pAzMPdUMvsHM3ShCtzkpa82F9LX9i2Vi1ad36+vqpgrVugrckukXwtSju0c/Vq/JO1H3YnQEzZpft51jRDVmuXNtHSXYWjsxVqDBy44vHq/bvIIb3bOt+u83MKtDoj5AAkQAIk0CgEKNAaBXtkXhTCC9YeNIgrm914zrCOMsARGI8aYrCEwULWM7GVKeSKGLY/VLwUqzg6vE+i16KsWsdWXtEdBWDBghOulwbuI8sRBW5TVRghy3PCwHZywT6dzBx8/UAGKaxZaD21CC+SE9AQ2wb3KhqC/OevzjWv9+oSL8g2RfA/Kv0jDg6FaiHE3AINsXSP6Y4AuHdkbyIjE7sBoO4bYtrgNn1gbA9z3+ZCO3/Y6w3WorjYZaBjQoxA7CGDNEv7Y4upB47o6REL5+wf7PPGEGiLFi2U66+7Snr17iPTp78R7NTZjwRIgASaNQEKtGa9/LW/eQS2v78sW8VSiZRAUWlzW6qwbRNcjYjlcjaIFwgsZDr6KreB8yEE31qyTTarNazyCpWjINPyrGHJZr9L57ju5+otlRmaQYo5YLspvEZ7U4vO2utCKE7XeX6qIs1eA++hkOwVmkV6ocagYdsnt0BDLN70xVtkRWaJbIeZztHg2oR7FiLM3RBj996yLCPinO8hHAylOlD/DVtGhbo1hkBbv36dnHvOaabe2ox3ZklCgv9dKkJ9zxyPBEiABJoCAQq0prCKYXoPKCcBSxo2Be+g4gMboLvLa/ibOtx+yHiEOa2TWpz81RnzN46/9xBbt14tX7EqHvsmtaoWj+arLwTeRrW4ZWn/eM0A7aQFawMRWDkq+jJUeOIxSTePh9vT236fvq4bCcdRYuOCC86RtLVrZODAQXLgqIOkbdtEOfroY+t9o/ZI4MM5kgAJkEAgBCjQAqHEc0iABGpFYMWK5fLstKcE7k7b3vzfe9Kpk2dsnn2PjyRAAiRAAp4EKNA8efAVCZBACAmUl5fJtm1ZkpeXK701Ji06OvRu3BBOl0ORAAmQQNgQoEALm6XgREiABEiABEiABEigkgAFGj8JJEACJEACJEACJBBmBCjQwmxBOB0SIAESIAESIAESoEDjZ4AESIAESIAESIAEwowABVqYLQinQwIkQAIkQAIkQAIUaPwMkAAJkAAJkAAJkECYEaBAC7MF4XRIgARIgARIgARIgAKNnwESIAESIAESIAESCDMCFGhhtiCcDgmQAAmQAAmQAAlQoPEzQAIkQAIkQAIkQAJhRoACLcwWhNMhARIgARIgARIgAQo0fgZIgARIgARIgARIIMwIUKCF2YJwOiRAAiTgJLBjxw758YfvZP78ebJ16xbJzsmWiy66VEaNGu08jc9JgASaGAEKtCa2oJF6OxvyyuSPjEIz/YN7t5X46Jbm+fq8UlmSUVTteKTeZ7jP+8f1BfL7znWwc02Ki5a/DWlvXwb0WFK+Q2KjWwR0rvOkYPrt0AEKSyskoVVL8XfFP/RztEE/T3H62TpEP2O2/a7HN3o5bt9v7MeZM9+Vx6c+YqbRtVuKdOzQUc497x8yfPiIxp4ar08CJFCPBCjQ6hEuhw6cwILUXHnqpwzT4eljekuX1jHm+ad6/Omdx5/R4513Hg985KZxZlnFDhUXZRKlCqRHYqt6u6lXft0qs5Zne4yP6009qpfHMW8vUrNKZMafWfJXZrFsKyqXLm1iZLfkODlrWAfplBDtrYs5Fkw/xSEfr8qRefpvY36ZlG3fITEtW5hr7tM1QSDy+7eP9bjm4z9sli/W5klHncuzx/apem+qHv/Sy/GqExr5yd/PO0PS09Pk/y69Uk455fRGng0vTwIk0FAEKNAaijSv45cABZpfPLIut1SunpsmSXFR8uJxff2fXId3y1X54B8ahNZdX2wwgrAmgbZkS5H86+uNUlRWIa1URaa0bSXpOuftOlZyfLTccWiKV2EZTD+I1dsXrJcV24rNPKNVmPVu10q2FpZLTsl2c+xQFWhX7d/FPLc/IlGgwb159FGHS1lZmfz3zfekc+fO9nb4SAIk0MQJUKA18QWOlNujQPO/Ug0l0JyzWLa1WG5dsK5GgQbr1YUfpEq+uhkP7tVWLh/Z2Vizisor5P6vNspSFW89VUA9Nt7TChdsv+mLt8rsv7Klq1rozlXr3DC1mFmXOCx3H67IkWK99kX7dnLejkSiQCssLJCJx44z9/HhR59KXFycxz3xBQmQQNMlQIHWdNc2ou6MAs3/coWzQPs6LV+mfL/JWPemqesQrkbbctWideGsNbJdLUEPHNFDBnbYJTCC7Xfe+6uNGLxvTA8Z3HHXePaaeIQNcNcsKt+JRIFWUJAvx00cb27gozmfSmys9/utvEP+JAESaEoEKNCa0mpG8L3UVaAhAPzrtDwZoDFPY/slyp9q/flJA95/3VxovqjxRX7C4PYm/siJCS6xj9TikppVLOs1xguxbwOTY8258TGViQrO8+3zldtK1FKTbeLCcorLJTE2ysQ/De/WWkb1bGPcfPZc9yOSHr5bly9p6gKEWw4uwMEqXMb1T/SIsUPA/i8bC0z3AnUdfpueb8aF+87ZhnSKF/cxvA9r0ltLtklCTJScu1cHE6v1vV530cZCyS7eLr2TWslxuyV5iCbnuIFa0O75coMs3lRo5uB2K2K829Qd+efWIhnfv51cPHyXVSuYfuB1yew1Zpqvn9hP/K2ROcnxo64CLTNzq7z+2stVI044ZqIMHDio6nV9PKFAqw+qHJMEIoMABVpkrFOTn2VdBRpE1ouLtsjoXm1Mht6/1LVWGUm1C91pQ5Pl1N2Tqw5AVDzx42YjVlqouaW9ZitmqdhSY49xn914UDfppa45d0Ng+rMLt5jDsNIg6DxX3Xsl6lZDe+jIntLPFaCO46XqCnxZ3XPoj7nB0IQMySwVUnjdRrMQXzmhH0417Y3fM+VdDbqvqR3RN1EuG1E9NmltTqlc+3Fl3Nq/x/aUGz5JF1i0nG1o53i567DuzkNVzwMVaBd+sMbcw6X7dTbiuGqAnU/sfQxSkXy/Wr1sC6Yf5n/+zFQzxLUHdpWDVAwH2uoq0FJTV8uFF5xTdbnbJ98jhx02pup1fTxZty5dzjv3dGmhH9C5H38u0dG+ky3q4/ockwRIoPEIUKA1Hnte2UFgTXaJ/KyWHbSjB7ST1jutV76OO7qap1ag7aaWKJRS2C+ltRyl4/TQYHVYyX7aUCAIJsfYaBkF5XLV3LVSrqIJJSROGpJsykKgzMNrv22VOStzpE9SrBFbDo+dIK7q/PdTBYHqZ2v807h+OlcVVmjIskRm4ZFqwfOWafnqr5kyc3mWEWKXDO8sI3SOMRpQj2suVEvZ/9Ta5QzGh2izKnOd3tM1O5MEXpjYF+/sair0IBTdzQq0tq2ijODE+2ft2cFYzpAIAAEGy6PTquUcIxCBBjF76oyVosPJJBW0+3dv7RzCPP9A48UgTJHV+fSE3uZYsP3Q+YqP1hprIGLQEGc2rEuCEbtmYD8/8BkAE3y27OcAp/s67h6qMQTae+/NkCefmCLJyR3k7Rmz3FPiaxIggSZMgAKtCS9uc7o1K9BwzxPVbff3vTv6vf2Hvt0kcPd5Oxfi4TIVARkFZXLlyC5yWJ9dLkUrWpBN+bwKJad483dBiLdr1JqFrEZYkWBNcrcSFYuxqKPhpQUTg2YFGoYbqK7f+8Z0l6hAJ6x97L36K7PhtGjBEgeLnLtZ62is1h/7z0mVFsJg+2Hs39RtfZ9aSG22KdzLe6ibd29NFjigR2sVwFHuKYTkdUMLNLhUb7n5elm5coWcfPJpcullV4XkPjgICZBAZBCgQIuMdeIsayBgBRoEznMT+/j9koYQOuudVcY4hXM7aAyYu83UWmCvak2ww/skyhWalWgbYs9unJ+uLieRp9QaZOu12fd9Pb6jrsr/qMtyzy7xcueh3l2KvvrieF0F2m2HpAjqg9WmBSLQUEj4qjlpZtgH1Y3aX+P33A2xc498t8kcfvNv/Y3VsNb9TtZ+DnG5Vi2u03V9EM8H651tEKAT1EoK6yYspqFs2dnZMmfOB1VDHnTQIdKrV6VFsOpgHZ8sXbpEpjz6oCD2rLi4yMS4HXLo4TJ+/AS6N+vIlt1JINIIUKBF2opxvl4JWIHWV92SD4/r6fUcexBu0+vmpZuXiPtCg9XMPFY+aNahmJiyvhpL9rDGlNkGqw1cjSiOir4H9Wwru6v1Bq7Vzq2rCz3bD7Fun6/JU1dqe+NmtMcDfayrQHtNA+oT/CQ9eJtHIAINiQgXaQwa2j2HdzcszAvHD9w37h+i9u1TBhh3bG36QZi9qQLNW4P7GokUSzKKjZvYxtiNVFcrYggjrS1btlSeeHyK5ObmSI5u6TRgwG4yZsxYOXrCRImKqh/LYKQx4nxJoLkQoEBrLivdxO/TCrRAvph/UNfmg+riRPwXsi79tfbqyrzQVU8L7spnfs4w9b2cfRH3hiQEb1Ykm8mIeC9kM9a21UWgQZhBoNW2BSLQIGRPe3ulsUbePLqbif1zXwfZri8t2moErU2CgKv3tBmVVsya+rkr/7vHt69hSZuxdJuJ5cMxX4LRnh/uj2lpa+TGSddKRsZmOf2Ms83+m+E+Z86PBEggdAQo0ELHkiM1IgEr0JDF+c8DuvqdCarXT/5svdmT8Y2dMVF+O/h4EyUfEA+1UJMbftYAdBsTBYsbLG/O9u9vNgrKZpypQfq13dcS49RFoAW7+0AgAg1z+7smTeSVbq8Wr4f30N6CaPpjm3TToP4ndyYJ4Hig/SB44T4NpEGkXTAr1WSrws15opZWieT2+usvy/SXnpcOuv/mW2/PjORb4dxJgARqSYACrZbAeHp4EqiNQEMpDRRPRfvPSf2D2tTbdHb8gEC5W7dFWq37UR4/qL2pO+Z4W+PZKjM4x2hJjMu9lMRwnuvteWMINBtvh300UYDWV7tp/jqz7dKEge3kgn121Tmz52MLKAhYbFB+tWP7pRu130rdrqmmfiilgZIagTa7t+axmixyfg3JIoGOifO2b99u3I62T5s2baVVq+plWOz7oXhcu3aN/OP8s1hmIxQwOQYJRBgBCrQIWzBO1zuB2gg0jIBip7CAubM0vY8e2FGbrThI49Hu16r5zobCtA+rWxWFVafppu+1zTS0WY8IfEc8ViDh7zaLM1gLGorZwhqFhv0/MY63Zl2Y2H/ziaM9t3OCK/NctbBh6yV3nTRbfqOmfjep6xQlSWxDvCDi2Xy1urqTfY3b0FmcmAcL1fpaDR4ngaZPgAKt6a9xs7jD2go0u80Q4puQ4dgz0dMSgn0iv07P04KzcWYjbgsRCQbYc9JbOYnJn683WYXYyQBixNlUU8jNn6qlSTcgP6BHGxWGnY2L1Z4D9yj2kDx+UJI9VO3x7HdXmzpsgRZoratAwwSskD1FY+tO3r2918xIWA9hkcQ9YMcCWBBte/6XLTJXa8qhFAZqoDkr/0N0olitEXE++kEUPqflTJzVR1CuBDsgHKoZts7jyM6dvzrHxLtBwD2irubemjQSqkaBFiqSHIcESCAQAhRogVDiOWFPoLYCDTeE0g8oAQGrFJILsKE3CtdiyycUcM1X4TFZxdtejvIUX+l2Uo99v1lS2saYjEXEVWVqJuNvm4tMnFic1vp6YGyPaoIP10tV9+dd6gaFoOmsW0rtpSU38IiMUGwonqeC5VU/wfy2Ij/GgrBE5igqSQztnGCK4+K4s4VCoH2xNs9sMo5xsSUV7hvtnGEddVutXeIHVrTpmgiAhhpvvdvFyl/qvsQ9w9h1hauenDlRf1grGs5x98O6XHtAF9lfBa2zna7JBSgUDNHXR7er6q6WOzBEbCGENVqw2bLO67ifN4ZAg1t1/LjDNMu4Qt55d7YkJe0Sv+758TUJkEDTIkCB1rTWs9neTTACDbA+W5Mrr/+WabZ7csJrp1/+I1S0nbpHskedNMRlTV+8RS1hJWYDcGcfuDbP3aujzw28cS7KQjyv20QhYQAbiNsGl+d43YsTSQS+GixU2OEAZSu2FpYZSx7ODWSrJ7gog21wz76/LFvSc0oEVio0b3XVMC/swgDXqLMhaQPJG76atzWAcL10v8pdAtz9UKMORYZhjdxFsPIsxMthzQ5T6xrEayhbYwg0zP/UU44XFK196OGpsu+++4XyljgWCZBAGBOgQAvjxeHUGo4AREW6bl6O73RYp1CA1l+cE2KqNqqlLUv7xUe3kE56PvoF2uDW26BWny265VSH+ChJURersxBroOOE43nYRmutijkU+kVJElgn4Zat6f62aEwgtumC9c1XvJvzfgvU1ZyhQjWrSNdAY/tQhy5Z9zb1t27O/pHyHIVrZ8+eqZmcHWTs2PGSrBmd++9/oPTs6RnvFyn3w3mSAAkERoACLTBOPIsESKCWBOD6RcA+tsyCmxj1zmoSabW8RLM4PScnR6Y984QsWDBfysvLzD3ffPNkGXvk+GZx/7xJEmiuBCjQmuvK875JoAEIwJr2r683yHGa/IBts9iCJ1BRUWHKfGDLqY4dO0nbtrv2iA1+VPYkARIIVwIUaOG6MpwXCZAACZAACZBAsyVAgdZsl543TgIkQAIkQAIkEK4EKNDCdWU4LxIgARIgARIggWZLgAKt2S49b5wESIAESIAESCBcCVCghevKcF4kQAIkQAIkQALNlgAFWrNdet44CZAACZAACZBAuBKgQAvXleG8SIAESIAESIAEmi0BCrRmu/S8cRIgARIgARIggXAlQIEWrivDeZEACZAACZAACTRbAhRozXbpeeMkQAIkQAIkQALhSoACLVxXhvMiARIgARIgARJotgQo0Jrt0vPGSYAESIAESIAEwpUABVq4rgznVa8E/sgokg15pRIX3VIO6b1r0+nf9fhGL8frdTIhHrxk+w55/88skRYip+2RXKvRf1xfIL9nFHr0SYqLlr8Nae9xLBQvNuSVyR87r3WwrkG8rgXaeuW/RNcBzXncHOAPEiABEmgmBCjQmslC8zY9CTz+w2b5Ym2edEyIlmeP7VP15lQ9/qWX41UnRMCT3JLtcv7MVGmhAm3GKQNqNeNXft0qs5Zne/TpkdhKph7Vy+NYKF4sSM2Vp37KMEM9fUxv6dI6xjz/VI8/vfP4M3q8887jobhmXcYor6iQzfn50lLBdmu7S9TXZUz2JQESIAFfBCjQfJHh8SZNgALN+/KWV+wQ/EP7K7NY7vpig1CgVbLamJcnkz+bL4mxsfLI+AmVB/mTBEiABOqJAAVaPYHlsOFNgAKt5vVZtrVYbl2wjgJtJyoKtJo/MzyDBEggdAQo0ELHkiNFEAEKtJoXiwLNkxEFmicPviIBEqhfAhRo9cuXo4cpgboKtByN8/poRY6kZhVrUHuZiZ8amBwrJwxuL/ExlcHuzlufoUH7WwvKZOKgJBPDhPgrJCqUaUD/bh3i5Kw9O0jrVtX7FZRVyKKNBfLLxkLZmF8m2cXbpYPGzfXSuLAR3VvLPl0TnJcxz90xaPNX58pCHWNdbpn0SWolB/ZoI6N6tqnWz32gtgJtu7pG567KkeVqeVubUyqtlUOfpFg5drckSWlbGV/mvEYoYtCenfaUFBdXJhQMG7a3HD5mrPMSdX6+aNNG+WPzJjNOYVmZ/LxhvcRERSnDnh5jD+zQUQ5wHbMnvLXkdykpL5fjB+8uURq/tnDjBl37zbI+N0djIFvLQb16y8juPczpZRrnNkPPRzt96DCNI9RAQkf7TeeyRPvuptcbntLd8c6up4t0fJyXruMjbq5XYpKM7NFDhnbususkPiMBEgh7AhRoYb9EnGB9EKiLQFu8qVCe+HGzEUv4/myvWY5ZxeWyQ0O3uraJkRsP6ia92rXymPb1n6SrmCuRy0d0lv/+sU2yisolOqqFEWg4sZv2m6KB+DEtiFGHQQAANYBJREFUPb+QX/hli8xZmWPGwrWS9VoQbcXlFebY8YPay9nDOqjoMy/ND6dA+5sKRojDWL0WgtuLdvaDkDxH+/lrtRFom1Q8Pvr9Jlm1rcQMmRQXJQWlFVKmog2ZsrhvtygMhUA78YQJkqtCBO24406Uq6+53jwP1Y/3/lyiQvyvGocbrSLrvL339XreNXM/VBalcudhR8jrvy2WldsyPc7D0j2nc0crViF35UcfmOfPTjzBrJl5sfPHrOV/ygfLl8mYvv3ljD2HOd8yIvCN336V79almeMJMTGCaMIiFZa4xrgBA+Xk3Yd69OELEiCB8CVAgRa+a8OZ1SOBnzYUVFl5jh7QrupKvo7bEzIKyuWquWulXC1fKD1x0pBkiY1uoV+OO+S137YaMQWr0UNH9vQQTVagtVKhNL5/O1P+AoLrszV58uYfmZKvYgYiZkzfRHsp8/j6b5lSqIJsbL9EI/qidyqxP9VK9eh3m2SbCr0rR3aRw/rsyiq0Ag0D4BoX79tJjtBxIdC+W5cvyFRFIsCdh3aXPbvEe1zP+SJQgYacgmvnpUm6Ws1GpLSWi4Z3kg7x0YLjn63JlecWblHLkcjjR/c2WbP2GmuyS+RntQyiYQ1gcUPzddy86fpR3wINAscob33YmJ8nd3z2qUkSeHjc0Z4zUbYQQd6aFWh7dukiadk5curQPaV/crKWFYlRq2aOzFEBePUBo0zXugi0139drJnJqSbD9HwVi33bV5ZYgSB8buFP+kdBkVw6Yn/Zt1uKt2nyGAmQQJgRoEALswXhdMKbwEPfbpLvVeRMVLfd3/fu6DFZWNAu+2itZKgr0y2arEAbpO7M+4+odGfZzrCozVi6zdRju3r/wN1QcF0+83OG7Nk5Xq0zu9xdToEGYXaZCj9ne+P3THlXrWrDVJzdoSLNVwtUoMHCB0vfwOQ4uU/vDWLM2WBt/FyF6OF9EuWKkZ5zcZ4XzPP6FmjOOQUbg2YFWmx0tNw75khJiotzDuvxPFiBBnfmPV98pqIvWu5QS11yvKfw/jY9TaYvWqju8QR5YOx4j2vyBQmQQHgSoEALz3XhrMKQAArAnvXOKuM2em5iH2Mlck9zptYQe1VribnFiBVoF+zTSSYM3GWxQ38IPgi/PVRo3e0QWu6x3a/hTpw0P126qHv06Qm9q952CrS7D+8ue3Ty/LJOU0vXPz9OMxa+N08eUE1Q2YECFWg3zV8nK7YVC8Sls+ivHcfOE/XMUNcslO3dd96SktJKt+rAgYNkv/1GhnJ4j7HqKtCOGrCb/G33PTzGdL8IVqC9s/QPmbtyhfhytSK2bdK8OWqpLZUHjhyvn93qsYvuufA1CZBA4xKgQGtc/rx6BBGA6+26eelmxm12BvTDaoa280FUw6m7s0LdS7HysLo5bbMC7abR3Ywb0B7HI3YvuPPz9caFOWV89YKwqLg/+69s4/rbUlhuYtDQb4devFQviHivF4/ri0OmOQXa8yokk9Xd6GxITDhdhSYaivSiWK+3FqhAO/e91WZO2AkgSr2UlgnGtFzgpkV77cR+kuAlicK8GeY/6irQLh95gOzdtZvfuwxWoD394/eChAYkMMS0rHQV2wvZNUCiQoUuzhU6j71qmIfty0cSIIHGI0CB1njseeUII/CDWroeVEtXjPrwhndr7Xf27VU0XaixX7ZZgeYt7gvZnHf4EGhwDT7502YjehDXlZIYI21iokxsGUQPEhbaxUbJS8d7F2hv6U4Cbpcj5nT2u6tNwgDcrXC7emuBCLT80u1y3vuppvtemlFqt2vyNh6OXbZfZ6/Zqr7OD6fjdRVokw8bIz0TPa2n7vsLVqDd+fmnmhWaqyI/SQW3f+vYkf0HyIBk/wki7nnxNQmQQMMToEBreOa8YoQSWLKlSCvJrzdZiW+c1K9WdxGMQNuq1rIr5mhCgkbbQ9jAbYqgf9tQ6f/mT9f5FWivqsXKBt/bfrBwnTpjpQnixxZO2CnAWwtEoMFieMaMVWo53CEPqsWwv1oOm2qrq0C7R+PPurbxX96kJoH2/rKl8uFfy6tlcT787Vda3mSrnLLHUBnXf2BTXQLeFwk0KwIUaM1quXmzdSGAUhoXzlpjhvjPSf1N9mag4wUj0L5Oy5cpWrpi324JcuvB1TPvvkrLk8e+3+xXoHkTYKjh9g/dqxPN332s1Bi3GzXGrZO6QKepK9RXu1JFJNywtxzcrUbLoq8xgj2enZ0lFRpfhRanwfcJWlesvlpDCDTULbt09kxzC08ec5yWR4nyuJ1XFv8iX6etrSbQXvt1ke4hu0bG16GURqnGp5WVlVZdr3Vr/2Ky6kQ+IQESqBcCFGj1gpWDNlUCl8xeI7BsubM0a7rfYASaTThA6QrErrnbv7/ZKD+uL/Ar0JBpioxTZ4PbFJmVNQXtoyjuBbMqhRxi3BDr5q3ZDeZRIgSlQhqyNWQWZ54mI1w79yOJ1hivp4893mdZDff92yzOQCxo6PtPrZuGYP57tOhu1za7yqfgPZT52JCXW02gQbRBvHVWUYV+KKlS2/bC89Pkv/99zXSLUmE475MvazsEzycBEgghAQq0EMLkUE2fgLVqIbD+tkNSNKbI0z2IAPyv0/OkX/s46e0oVhuMQPtZa7X96+uNGkPWQpA16hRIdh4g7i8GDSLs/iO6m2K6OBdFbm/T/TWRyXm+ijdU+ffXrCA9ZfdkLXLaXsVJ9S9+WxsOOwncMKqbVsX3tGKpF1R+01g5ZMG63/N37UDea0iBhvmgiCzckBdrtugIH5X83fOurUD799dfmmK2KEZ7mtZMs2LrGxVhL6sIQ3MXqkXw/92fL9BdLXLlKLWinThkj6p+dj6IUfsrUzOM+3p3z1OgWVJ8JIHwIECBFh7rwFlEEIFHtEDst+n5RqxAcPRUIYbCtdjyCQH/CJyfrOINQfO2BSPQUIX/Bt2BAAVgkTU6IqWNFiGN0S/ZYt1yqMDEpKEQrC+BBinVXQUkdh3A9k4QVyjpgS2jsOPBo+N61eim/WJtnmDXBTRkg9otm84Z1lEDzXfFm2Hbq5cWbzHJDCh+O0AFapwW8IXrc7nOFzsNnKSFfbGlVShbQws0584CqDXWT4vBQkAN6thJS4z08XprtRVo369Llxd/+dmMlazlMPZTIbi5IN+Iq900uP9X3cbJLdBw8qpt23StvtXCxmW6TokyuGNHFfXxkllYKGlaJy01a5vGCCbLTQcf6nWeToEWrfXUPp73hdfzeJAESKBhCFCgNQxnXqWJEYAwQpV/uAGdDWIJe2SeukeyR520YAQaxoWweeqnDFmqCQq2QaydrBYt7MN59dw03wJNFRrKbNz75UZTosP2H6r11q47sKtWxPfusrTn2UfsPvD+smwViiXGCobjsB669wGFcJz28xbdoaGyLpntj90T9ta5YluqwR29Z4zac2v72NACDTFin6WuVoGeprs4FBoxhDn7qj+G92or0GANe1e3mPpY65rZ1l7F4D/2GW5Emq+tnnButu5Lih0Fftf9OjGObdjTc4CKs9EqIkf17GUPezzeecct8tVXlaJs9OhD5a677/d4ny9IgAQalgAFWsPy5tWaGAEItPTcUhOPBLdnF3UpBhH+UyOVzbo7wSa1RnXS8WFFg3WsNg1xcxu1f2/dLD1QYVab8Z3nFqkbFUxQBgQbu4MJRBpb7QjklZToVlC5pvp/59aebuOaRoKQ3JyfryKySNrFxZpN2bE3p6+GmnonnXiM2dcUYu7551+Rvv36+zqdx0mABBqAAAVaA0DmJUiABEggnAmsWrVSLr7oPDPFwzXJ4Lbb7grn6XJuJNAsCFCgNYtl5k2SAAmQgG8C78z4nzz99OPSUjNUX5r+hvT04Qb1PQLfIQESCDUBCrRQE+V4JEACJBBhBF566TlZ9MtC2XvvfeWCCy+JsNlzuiTQNAlQoDXNdeVdkQAJkAAJkAAJRDABCrT/Z+9K4KuorveBEAIBAkkIEPYdEWRXXEHEiqK4oNattbVatai483cX91oq7mtbbbWtrVtdQFAWRXBBxAVBZElYA9lDFrIH/t93k/syb/LeS957EXnJOb9f8ubN3Jm58907737znXPuRHDjadUVAUVAEVAEFAFFoGkioAStabarXpUioAgoAoqAIqAIRDACStAiuPG06oqAIqAIKAKKgCLQNBFQgtY021WvShFQBBQBRUARUAQiGAElaBHceFp1RUARUAQUAUVAEWiaCChBa5rtqlelCCgCioAioAgoAhGMgBK0CG48rboioAgoAoqAIqAINE0ElKA1zXbVq1IEFAFFQBFQBBSBCEZACVoEN55WXRFQBBQBRUARUASaJgJK0Jpmu+pVKQKKgCKgCCgCikAEI6AELYIbT6uuCCgCioAioAgoAk0TASVoTbNd9arqQWBtZonsKiyXNq1ayoQ+HTylv8f63T7WewroQpNBYD+upLh8n8S2biktmsxV6YVEGgK7CitkbWaxqfZx+C1qi98kWhp+h9bh94jmXG9WHCT/9u/fLy1a6N3zUzWHErSfClk97kGNwBMrM2TZtkLpHNtKnj+tr6euj2P9Jz7Wewr8TAsV+/aDUFZIFH4Le8a1DliL/6zNla/T93qViY1uKV1io6VPp9ZyYr+OEtOqef6oAkb5ICVfPsTf7qIKqajaL9EtW0jX9tEyulusGQgHxMd4YWe/BNMGdp+f47OovEpySqqkHdqc/TuQbcgplb99k+VVhHQ1oW2UdGkXLWO7t5PDurT12q5f6kcgmDZYuqVAnl6VaQ76zKl9pCtwpy3B+mdq1j+L9WyPg8FS83JlSWqKbM7Nkb3l5dI/IUFGdUuWE/oNOBiq16TqoAStSTWnXkxDEYg0grazoFyuXbhdOrWJkr+d3i/gZVqS6a8Qj3H1EV0NIfFXpimuJ8G6c2mabMotNZfXCsSsT8fWkl1cKfllVWbdRCgYM8d39Xn5wbSBzwMcoJUkoC+szpJjerWXG47qFvCs36QXy/2f7ApYZhSI66yjk5stqQ8Ijp+NwbRBJBG0DdlZ8uTKz6Wsqgreh1YSFxMjmXurHwYn9x8g5w0foWq0nz4RymolaKGgpvtEPALNgaAdjQH6irFJpq12Q337ctdeWbG9CD+oFdK+dZTMndJLEtsGVlgivqEdF/DSt9kyb+Me6Qa17OIRiTICxMO6k3JLKmX+pnwprdwnvx9TjZljV7PYlAkavVR/P6Oa+FNlzAJpXQ4lef6mPcLvUwZ0lMtr+pIbF/1eF4GmSNBKKyvlpg8XSBk+ScbOHTYcin5L2ZiTLY998RnU6Cq5ZPRYObpX77qA6JqQEFCCFhJsulOkI9AcCBpj6651qUE5ICLXLtguJSAiFx6WKGcPjY/0pmxw/X/zdqoUIebsgRN6yiGd2/jcj3Fp/py/TZ2gvXHuwDqYvPp9jryxPs9g8sr0/h5CW6egrvBCoCkStOXbtsrL330jyR06yOzjJ0tLR+zZ4yBoazMzZFBiosw6ZoIXFvoldASUoIWOne4ZwQg0BkHLgBL1YUqBbM8vM/FhVKV6w2V2Yv84GZLoTQD2VuyTb3bvla93F5vYpz2lVZKI+KDeiCc7vEc7n+7GL9NYvtp9wP0/21EkrRGERjec04YmtfVaZ12cvgga95u9LE2+zyiRY3u3l+uP9HaBZe6tlNU455qMYqOiFOO83aE49e4YgxiTDj7j37buKZOFm/Pxwx0tZwyJl4+2Fsi3cJ2l5pWZeBricWTP9s4qey0zEHop9tmcW2ZipoYj5onHeWdDnuQDp1MHd5IkH7FUdEu+D9VrS14pAqorzLkGJcTImYfES1vEXzmNbswr5m01q/55FoiGa7uzrHM51DbgMUJpc3tuKnqvrcuV2OgouXhkoukzX+wsQh8qFvYdxhKeDlwG1fSz//2YJxmIqaPtLKiQ9dklRil0x49N7hfn2YdlrYuTY60vgsZA9Zkg9LQ/Tu7ptS/XVUFeWwiX6obsUtmWX27i3vp2ipHTULfu6A/+jARmC/oH++ghndvKyrTqa2O9O+A+4j0xdVAniWHQpcuCue/srjzXR1sLhX01r7RSeuG+G9E11iiDDp5hixtSmo37e9qQToaI0A3JxCLGLA4G5hfh4aYdkkucFmobNIaLc/78d2Xzpo2mOgkJifLriy9xVq1Rlh9e8YmJO5s6aLCcNXSY55hrMtKN29OueGDySYiXa2e/6mcYCChBCwM83TVyEQiXoJGQvLwmB3L/PgNCPFyFBSAMHLBoc0/qhUG0Ntj8r19nyQLsQ+OAkNCmlRnA6VKjkZD8Cm43hEV57F9QL96CelGfcdCdcXgXT7H6CNqsRTskBQPWERgE/++YZM9+XLjug+2yAwMtjcHzHRGvRkJQieuKQXbZjHFJIHbeBHEVXKd/XLFbhmKgHQZy9cYPuWZgLcNgZu0q1O8E1NNtDIR+/qssqUI2GGPC2iB5gSoXy/6IwZqJEQ+BGHBQdBoJ4JNfZpi6Ec944MmBF4cxxITXRbJsjW1zyTtbzFfGZTE+qyEWahvw2KG0ua0Tyc4NaAvGCz58Yi+5GW3Ga3Aaiew9x/cwq25bslMY8F+fUVF1Zi3XR9DY9pe+W43bHRO6ez1IpIMQzv0iXVJArGms6160HWP9mB3NNqeb3ZfN+SxdSDjpgk8vqjRk3F3uvkk95FA8fDgt2PuO+5Lo//v7XNOH2adJrHhdtJEgaTcd3Q1E2Jts3QS8Sep4Da8i6SYPhLkVyCIJGi0ZDy2Pntzb3CNmBf6F2gaNQdDumX27fPLJx6Yqvfv0lZde+petVqN9zpj3Ltq2Sq4/6hi0S/XvDWPR7l66WMqxnlZYViZXjDtCxnWv7peNdvJmeiAlaM204Zv7ZZNU2Cf+UwZ29MDhb72nABaogj2wfJchU+cemiCn4kmfP/okZyQ+LyLW6UoMPFQSrP0TZI5qFNUkEgeSEdp6KA9zP08XKibXIHD/+L615McMBdXjgeyEknFdTZLAX6f1s4et/sShqo9W/TUQQSPhuWbBNlPwl8MS5Dz8Oe0+BIxTkZsAdS0JWZ8kP+ScH0Pheuarmkyzqd4ZZZagUd2Li4mSG6DKDYYLMRUD9+sga9zODLSnsV/NZZtTMs7pqvnbDDm7AIrEGVAriAvVuzmfphs3LAu6CRpVvpkLt0klBku6aKcPTTAB7GWV++WVNdmGCBP7Ob/o5XW+q9/fZpQoxqAxzowKirM+ThzscqhtwP1DaXN7XkvQqCaxvjSqNlTOSJZ/RL+homPjwpz1pDr1FzwQkByxLZzmVovqI2hfoe0eAvmmPYdsZ6tksk/c8GE1mT8cmZ6/R39nPCPXU0FlkgLFrydO6eMzk9QStDHJsUbNPW94gvA4VJWpBC5KLUAf7CBDHK7oUO47xlw+ChLJjFbW8eheHUy9qKjyPvkhq0R4/1/miju0BI19mvF3vE+IHVW4/6zNMQ8R7oeOUNuAqt5X+E2hsS6sK83ferPR9e+nJmgllRUy8/155qz3TjrRuDn55fV1a+FF2CSXg5QthIK3PX+PXHDYCM3odLVPqF+VoIWKnO7XLBHg4MhsSqoH/mK4qOKwXDRHqAbYYgxGz4L80B01u0YRce8WTPyTL4LG+vAYL3+XI9+BAJFIPXlKb5Ms4D6Xv++PfZEhy7cXyvkYTElMrVmCxu93QWUZieB7ayUgpVRgqKaRoFmywe1WYfKl5DGYn0H9NDdBs4P7NLjRfjuqsylj/xH7GSBiTIRwE14SvweW7zZtw/LEYBjIKLMUj+zZrl4sgmkDWx9/n/W1uSVo3H9QQhvEzfWQqPrYZM3Jgol/CkTQ2MeZ4cnpSNhuT6H9bI+mGsz2M3WDwunu6lQ3PwaZmdQ3DhnDtequxcO2Ib/fcmyyIWd2m6/PUO67cvQ5PoyQjN2Kc4wDAXQaXaVXoa/wmp4EkXT2TUvQGKrwIK7PaVTUqBL7CyFg2WDawHnsUJd/aoKWUVQkdyxdZKo356RToJa2MWTsAah2w7t0lWvGH4UHzRWyPisLrukhcIEeGuql6H4OBJSgOcDQRUWgPgQYa3Pb0p3GJUIlqzHmE6OLaNbiHWYurmcwCPqyYMiBJWgcz+2gzgGO5IWkcRSUo0uhGFg1xNf5fK17Z8MeELxs436kemDNEjSqPX8/s59d7fm8Hq667XDZ3QuXFQmRNQ6OJAGz4I4cD3er05wuSSdBI9G76M0UwaXIC9P6+sxCtfX0RQ62Qa14CdfAuDdA4jHiNBXqBd3MVt30bKxZCKYN3Pu6v9fX5k6C5nYtuo/l/h4MOfAQNBxkUo0Leh86CtXNjejrdFdSObp/kndixS2Ld5rpStwuU1sXe31UTjmHl9ssQWMMHWPb6rNQ7juruJF48eHAlz0IJXw11Cs3mbcE7dLRSSActQo7j0HXLOtPd/69fh6ogmkDX/UKdt0KxIft2LHN7BYX11FOPfX0YA8RsHxKbi7CGJaZMk9NnYZY2Ch5cPky3L+Fcg8UtYS2beXZVSvhXdgF4tpXfj1ydMDj6caGIaAErWE4aSlFwCBA981TX2aamCgSh2CM7kUqQ3RdcABkEDmNs3HzaT/QHGfBkANL0OieaQfSxOPbmJs+CPa/dExnL6Lkvga+TcFO5JqDetpYMrpwSfTcyQWWoPXDBK9/hlvRbXd8lIYn6xLMpdVNxtckC5Abnf9Gijneo1N6e8WL2f0veivVTHvhJGjE7sYPd5gi7WuCtEk8aTUfcJmKiQ30Vx+WZYIBEzDWZZaapAgb3+VLzWN5WjBtUL2HmBi6UNrcSdBeQVKDO0bKHt/XZzDkwBI0X8chwWeMFl2rxNJpF/8v1fRfTlMSBY+cbQOWse1Alz7NV/0tQWMywSUuFdTs5PoXyn3HKUJe/CYb6l4LJIW08FlHElDGlbnVWEvQfKl7vD9mf5xm+iz7ri8Lpg187X+wrUsrKMA1LzHVemTKVFmVthOu3jVwZ47EA1t/s95mck4ZOEjOOXT4wXYJEVkfJWgR2Wxa6Z8LAeveYHzPjfVMAuqsI909T63KMIMEY3W6x0VLe2ToUZ3gQMag945wub1YMxeVc18uB0MOLEFzumAY48Z4nJcRo4VTmid/xpq5jTOaM2iZxjcWdGnXygR88ztdXQycdl+7JWhMErgfrji33QmCxlgfJ0FzKmSceJfk1G1/QHwaXZVOgrYS6sWfoF5QCRyb7K26ufePxzHdsUXuMvyOMdq4rP6LrEmar+B0rg+mDVg+nDa3BI3EjAQnGAuGHFiCxn5oEw7At4RJL1RYrQLrPD9nyf/N21vMKrqz7VxyzjLO5RnjutTJeLQE7XejO5sYTmd5X8uh3Hd8QwKzfPk2hYFwEweyEV3bmlgzW8YStNkTe8hh2OY0xv7d3cwIWmF5mdyw8H0Dw3VIEngOaln3DnFwT0/Abxh/URCKAEWNbxkgOSNJUwsfASVo4WOoR2hGCNjYKCoLd03s3qArZwzM1YiFofrEwYqut5rfNLP/RmTf3YosvJ+SoNmK2qzEXkhUmHtSb68geU7j8QgSFhibdftx3TGoeasmnEaAge+NQdCocp3/xmZDjhj/42tKBjtvmZOgrQPRuwuEj1mC/8K8XI1lJGmMlSNxpJvzLEzV4bZgCFq4bW4JWiBV1V0/+z1UguZrmg17TOcn2+4CqJ/MvP0TFFN/r8Zy7uNetgSNWZwnIQi/PgvlvuM0JSTdjD1jDFowpgTNGy2q8FfOewf3634Q3nbImMZ9OHGSIWm25O1LFuGBqggK/TjEdNZV0m05/Ww4AkrQGo6VllQEPBmcfHejv3gxN0w2k4wZayQ+bmPgPQPwDwRB4wS1M6BMkYgweJtk0drzqzPNvG6/BkHhXGJuYyIDg9sbg6Dx2JyXjESGRJeE12nMyLzwrRSzyknQOJXGZe9uNev/PX1Ao8QA2vNa5dGf2y0YghZumx/MBI14MfieLvvbjkuuV8m0+Do/gyVoNp4suPuuEBmcGTIADxp/wlQlwVikEbQiBPGXQ+WiRUW1ko4d6ye9weDBspaAcfm0wYfIGYcM5aIxKmw3QmEDd5dbj5so/eNrk4hqipiPkhLEftZMycF6tkGygZp/BJSg+cdGtygCdRCgq/BKTg0BycWX+6PODlhhg9Y5jQBjWtz28Ke7hROiBiJo1iXIAPb/nDPAk03nPha/W6LhdHE6y1kljMHTnAbBZuDZgGlmRjImx2mMkWNQP6+/sQgapxf5FKqdex43npcvrOd10JwEjd8tsXMHdnNbIGOclFO5dJe9A+/p5ESpnLqCUyu4LZg2CLfNwyFoVgltiMrrdHE2VEEjLraPcb46Z8KIGzN/34MlaKHcd3TJk0jy5e9PIGPZmaXpr152fbgELZg2sOcM5/OnzuJk3d7b8KO8u2E9JhIG4T3pZCTT0BlebSt37kBW71eShAlqOVFttdPTbq39vObqy+WHH9aZFWPGHi5z5jxWu1GX6iCgBK0OJLpCEQiMAKeq4OSXjNGi68T9w0/1ZFBijJnZnkeyc0kxWJmZh854K6u0sFwggsbtv0LQPBWw+iZatYOnP4LGmDeSHH46VbR/ILvxXWRqcp42Z/Az3X8vIp7HTrTbWASNbxrgBKyMJ+PLuKkw0vg6Ksat2Znx3QTNYsbYImY4clZ4pzHoe8WOQjzFtzEvQ7fbOAkvZ9+fCNXQklJuYxLE4tR8E1BOAvcI3HbOSYbt/vxsaBuE2+bhEDTOxcfJiOkGfgQTJrv7p/N6QiVodi46PqjcjLZjcoXTqKSsQVwlsXVvY7lgCRr3Cfa+4z5WFSZZveGornWmUmHyzGLEXNKl7ewT4RK0YNqA9QzXDgRByykullsXf2BUMuc7N4vKy+W+ZUvx8FYC5f1QvPljiN/LUYLmFxqfG5Sg+YRFVyoC/hEgSaLawoxCvjKIyhjJ2h643zZhyoxNiCnjwGgnqmWmGIkIZ+hn5uHh3dub1yIx9owDOd2MzFKrj6DZ+DHWjOSEs+sz0254l1j5BSbAtVYfQWM5eywO3owB43GoOHD2eqplnB7hKGRcYoyXbzF/2E7UfSyuk8pAYxE01sO+wJznJ6GKi2lpJu8diglK6ULjNBxugsb9GCvHulBRJAFgTB0nruUrnxjEzUB295xszBplWzDGri8mfO3RobW5Zsa12Rnip2PiW2Yt+jOLG7cHaoNw2zwcgsa6cSoYTk1BYz/siaQU2skDO+GND7VupVAJGo/FAPwXv80yiS8MpB+I9uObINhufKsB284fnqEQtGDvO9axEP3g9iVp6Bfl5sFoDBJLGO/IV4jtwLyA7CuMDf0vVGnn9CrhEjSeu6FtwLLh2oEgaKyjVdGioJ4Nw9sEEmNjkeC0G29aKEE/izdvGYiNru5rvq5JCZovVPyvU4LmHxvdogj4RYA/6q//kCfvYdoM+7onFmbWG4nNZZjKgvOCWeNgxQxJZjNaI1k7BxO+jkYmHCe/rY+g8ZxUsZgdmF1cYWYz57HcLsKGEDQqB1fO32qIidNV+B1Uj+cwCzyzJ62RiMzEWw44oNkZ6p0ZrKFkcdpj85PXtIjvNC0oM69sYkYdZ/rndBrEbS6mMugDAuY2klomLdgpROx24sh3OfJNCcyYtUa3I+ewIoGmwuM0Ziyy/PEgyySL/qyhbcD9w2nzcAkapxF5HQHya/DOVfYVO1WKe96ycAgar5EPGc/hVV3b8D5ap3GKF04AzFeY+XoxfSgEjccP9r7jPiTfr2L2f74myuLA9bTuIOmcpPjC4Yle7u/GIGgNbYPqmoT3/0ARNNbyg82bQM43QIGv/o0gWTs0KQmhAUeAoNfeb+4rYqLB2dNPlfz86lfeXXX1dTJ9+rnuYvrdgYASNAcYuqgIBIsAB/oskBmqBnzdE3/w7atafB2Ls5eno2wSFCq+XDwAF/C1+wFZR7cVlSjG/fDVQnzP5YEwDqTOty9ciAlpOaAyW5PuOn9GgkbySCxJJrsC20CxZnxfZCZIS15JlVFAOZUI340aaB9/527I+kho84ZcR6AyfGME24Buc76uiW1AkvZTWbD3HevBGES2O+/VWPSnJLa7g8D/VHVtiscl/umFhVAoy4xyxolr67PU1M3y+8t+Y4olQX175Z+vSXQAta2+4zWH7UrQmkMr6zUqAhGGwBa4j2+CgkYFjHF7aoqAIhDZCLz15mvy9NOPm4u4/vqb5bRpZ0b2BR2A2itBOwAg6ykUAUXANwKcs4uxYHxtjtVb6Briy9KZUdnQiUx9H13XKgKKwMGCwJ133iKffbpcuiV3l3/841VpFcAderDU+eeuhxK0n7sF9PyKQDNG4AG8C5FzXDFej29XqMLbgXYgnomuTWbe3X5css/Z7JsxZHrpikBEInDbrTcJ52s7+5xfysSJJ0TkNRzoSitBO9CI6/kUAUXAg8BqvA+T2Zhb8srxfsxKE2vGjFhmxk5GZqpV1Tw76IIioAgoAs0EASVozaSh9TIVAUVAEVAEFAFFIHIQUIIWOW2lNVUEFAFFQBFQBBSBZoKAErRm0tB6mYqAIqAIKAKKgCIQOQgoQYucttKaKgKKgCKgCCgCikAzQUAJWjNpaL1MRUARUAQUAUVAEYgcBJSgRU5baU0VAUVAEVAEFAFFoJkgoAStmTS0XqYioAgoAoqAIqAIRA4CStAip620poqAIqAIKAKKgCLQTBBQgtZMGlovUxFQBBQBRUARUAQiBwElaJHTVlpTRUARUAQUAUVAEWgmCChBayYNrZfpjcDazBLZVVhuXi00oU8Hz8bvsX63j/WeArqgCDQCAtvzy+VzvOKqW4domejof41waD1EIyDwybZCKa3cJ907tJbhXdp6juhvvadAhC7s379fWrQI/sVqoe4XoTAd8GorQTvgkOsJDwYEnliZIcvwI9w5tpU8f1pfT5Uex3r+CLvXewr8TAsV+/aDUFZIFH5D+a7KQPaftbnydfperyKx0S2lS2y09OnUWk7s11FiWgX/Y+x1wAj8smBzvny0taDemp8+OF6O7d2+3nLhFFixvUge/SJdRnWLlTsndPccqhLtfNvSnZ7vdiEOL5Pv0i5aBie2ET5QtGx+zWehCOkzmPuHJ7hi3lbJLq405Hnm+K6ec17+3lbJKamU4/t2kGuOqF3vKfAzLZRUVshHW1JlfVaWqcEZhwyVgQmJAWuTX1Yq7234UTbn5EjG3iL8rnSUIZ07y7QhQyUmKsrvvql5ubIkNUU25+bI3vJy6Z+QgH6cLCf0G+B3H90QGgJK0ELDTfeKcAQijaDtLCiXaxdul05touRvp/cLiL4lmf4K8RhXY3AZDXLQnOyfa3Lkfz/m1XvJvxvdWU4d1KnecuEU8EfQKqr2y/lvpgQ8dA+oOjcf00161UPUAx6kmW0M5v4hNJFC0ArLymRR6mZDzkorKz2tOuPw8TI6uZb4ezbULOSVlMgjn6+QjKIiiWrZUrq2ay+7iwqFihiJ3bVHHg3vQiv3brIhO0ueXPm5lFVVme1xMTGSubf6YXBy/wFy3vARos8OdWALeYUStJCh0x0jGYHmQNCO7tVerhibZJppN9S3L3ftFRKDzL0V0h6KzNwpvSSxbd0f4Uhu10B1twTtkM5t5Poju/kt2r51S+P69lugETY0hKDdflx3KGYx5mx7SquE7neqo0XlVdK3U4w8fGJPaaVSWoNaoykStJySYrlz6WKpAFkiKRoFQrYuM0PK8b0+gjbn0+WyMSdbBsQnyEyQsdjoaNlTWipcnwk17eheveWS0WO9sCUBvOnDBVKGT5Kxc4cNh6Lf0hznsS8+M/XgPtxXrXEQUILWODjqUSIMgeZA0OgKu9bhnmET0T1z7YLtUoL4mgsPS5Szh8ZHWMuFXl1L0A5DTNHs43uEfqBG2LMhBO3+ST1kaFJt/BNP+11Gsdy7bJepwa3HJsu47u0aoTZN/xBNkaClQ/G6+6MlcniPnjJ10GDEy8XJdQvnG7djIIJGAnb7kkVwk7eQh06cIglta/vYws0b5c0f1knrqCh5ZMpULxVt+bat8vJ330hyhw64fyab/W3PeRwEbS3I4aDERJl1zAS7Wj/DREAJWpgA6u6RiUBjELQMKFEfphTI9vwyEx9GVap3R8R49Y+TIYgVctrein3yze698vXuYrgSKvC0WiWJiH/rDTfV4T3a+XQ3fpnG8tXuA+7/GYLKWyMIzR1UzkHcuc66OH0RNNZp9rI0+T6jxMRZuZWkzL2VshrnXAMikIUYnGKct3v7aFxXDGJMOviMf9u6p0wWIr4rGQHvZwyJN3Fe36YXS2peGVwn0QaPI3v6j+laB2VoKWLDNueWmdg/BmXzOO9syJN84HTq4E6SBKzcll9WJe9vypcteaWSBoWQ5xqUECNnHhIvbRFz57ZQCdob6/MkG209bUgnMygt3VKAwagEisF+ExN2EYhuO6huvqwcZd6GW3V9donkllQJ1Tv2j4yiSp8xaE4Xpy+CxnNc+u4W039+NSJRzsK1um0l+s1qqKVsF8Ze9YPadhzIeiCXNq9nxfZCuLeq67c+u1RW4TgkhFRnWG/iythMtzGY3rQDzsfkB4p6DK5nHN8RPdqbuEn3PsG2Hfs+++RYEFL2D/Y39hv2V8ZVnnNogvTBvee0UO8fHiNcF+d3IDIfgzxZu/yKq6StgwjZ9eF8FldUQE0tR2xiLUlvCEF7+8cfZP7GDUY9u+W4iZ4qUEG7c+kiJEdUu0p/M2oM2rCPZ/vDKz4xcWckg2cNHeZZvyYj3bg97YoHJp/kVSe7Xj+DR0AJWvCY6R5NAIFwCRoHiJcR01SGwYkWD1dhAQhDFQZE2tyTemHgqHZP8ftfv84SBqnTmCyV0KaVkHRxcKORkHDAdXqs/vV9jrwFclCfTe4XB5dGF0+x+gjarEU7JAXk6QgQw/87JtmzHxeu+2C77MAgS4tGZToiXo1kksHrMa1ayoxxSfjRrs16ZblVIAN/XLFbhnZuK8MweL7xQy6CjFsgTqUaC5a5CvU7AfV02xKQnee/ypIqxL7QXdcGyQtF5ftM2R9BapgY8dDknoYIOfclAXzyywxTN+IZDzzzSisRQyPSDYSS10Wy7LRQCdpNwGsL8OI1vAoXYx5UyFa4PpIpWjLO9+jJvQ1ezvORhDy4fDcGtVKzumNMlOkjbYAjsZi/aU+dJIGGELSZUEDTkGlMcsY+Y4196YXVWSb5hevagaSyhiTZJFmno49dPLK2PMtYI8H62zdZhlSR2D+Eete2XnWp84YnyC9BhJy2LqtEnvoy07jNuZ4PKbwHqNDSfMXzhdJ2f/82W97buMfcJ6l7Ss0DhrOPsW+ynzhJWqj3D+sdLkF7+39vyJNPPspDGXvzrXnSqVNdMm23N9bntQvmob0rAro4rdo1ddAQEK1DPad+btVKPBDuMkpcWmGBHN+3n1w0YpRn+4x574LwV8n1Rx0jhyZV/94wFu3upYulHOtpjIm7YtwRUHZ/XoXaU+kIX1CCFuENqNUPDQGSim0gIhzEThnY0XMQf+s9BbBAFeyB5bsMmToXAxYDyqmgcGAi8XkRg8mViP1inJA1kgMOlFRPSBxs7BCVirmfp0NdqTRZYcwOs2YGyJpRcicG5OtqkgT+Oq2fLVL9idGXA7C1QASNhOeaBdtM0V8OS5Dz8Oe0+z7ZZdxqE6B+JCHrk+SHnPNjKFzPfJVpij4ztY/JKLT7WYJGdS8OJOQGxHcNhuKSCkXsdZA1bmcG4tPYz0lAqdBdNX+bIWcXQIU6AwoVcaFSMufTdM8g7yZoVE1mLtwmlSBIdNFOH5pgslLLKvfLK2uyDREm9nN+0cvrfJagMQs2kGv3KKh90bgWa5ag8fqmDOhoMCMuH20tRExYjiGUvgjoM6syhQS0F9qb7kgqfIwf48PBavQhmjuLsz6Cxv1/9+5W09eYRejsL8+vzjSKLq/vapDJQTUqLvvYo+hjdG/ffHQ38aVmWoLGLFFOP0PX6cm4L3pCCSPRZBuybZz3Con71e9vM+00HmT/d6OTjMLGLpsBlfi1dbkyAIqmM+Ei1LazBI1twDry2hk/yXq9ijagcufOrAz1/mG78GGKD1AkfIc73MjEqRjksy/WB3IvH8wE7d5lS/EQlg/yNRKY9efl4p6rVsEmgpTRvbkoZbOMQUzbH5BsQGOW6Mz355nleyedaNyc/PL6urXoc5vkcpCyhZs2oh32yAWHjcADiGZ0GrDC/KcELUwAdffmhQCVJGZTpmMA8hfDRRWH5ZyDfCCUFqcWyLMgP4Fio4KJofFF0FgfHuPl73KM24pE6slTehvFI1DdnNse+yJDlsMNdj6UFBJTa5ag8ftdmDJipCM7tASDHF1yVNNI0KhuWbOqoi8lbx7UkpdAdGlugjbns3T5YmeRTIPr87ejOtvDmU9iPwOkgYkQbgJjCZrXDj6+MEuWma7WLEGj2/pBqDROo6JGxdDtTibh/gPIJ3F/dEpvLzWPbs/LgAkJQDAEjVg+AdWQrjuSpceh2lk86c5kPWOhJM3F+dyuSE4vQqWLRPnZU/s4L8EsW4LGL75wrbMDVlDB/Bgkle3NdvdlJM3OKV1CbTtL0KiUvXBaH69+S3c93fYJIGx/mdbXVzVM329oFrTPAwS58mAmaAz0z4c787Kx42R8j14mI/MuqGD79u+T+074hZlCg27QAcjmvOXY6ngyZnveAfcnbc5Jp+D+aGPI2AOffAyXc1e5ZvxReNBcYab5cCtzQUKnxR0IKEFzgKGLikB9CGyAGsF5qjivGJUs5+BT377+tqdAaZq1eId0BXmhOuXLQiFoGMORQl+tBJEokLyQNI7qGiuXjknyGdfl69x23Tsb9oDgZRv3HBUja5agdYB76+9n9rOrPZ/Xw21KheNeBL0PcwS9XwUiRaI7C+5IKjBOo7v4kne2mFVOgkaidxGmocClyAsYjH1lodp6Tuobh+lEautpCRrJC1Uyf0ZXXlsQAWuWoF0KhWjqoFq1ldtJFEk66Nq915F4wLn0SJT7IHaP2bJuIyEnMQ9E0MYkx2IgrI752gP3LWP0iAvNHX/2ChRaxrq53d32vFTmfo85vAqhwD2Hef/cMX2WoNFtSFzpqgxk7EsXvJVi3Lz3n9AT7m3vmEtf+4bTdpagUf2jCug0XtNv395i1NL/njPQSzW15YK5f+w+4XxuRIzX6tVfeg4xffq5EhNTP0aeHUJcaIiL88p570CB3WdI1Yiu3aB0fm8UsxlHHIk4xWRZuiVFXv1+DX6P2sv9IGy0lNxchDEsM8tPTZ1mVLYHly/D/Vso90BRY6LBszUu0gl9+sqvR442ZfVfeAgoQQsPP927mSFglQi6WUgcgjG6F6kMUe2ge48KCo1zD1FVCTTHWTADjFXQ6A5qh4GWx6c7ikbCcOmYzl5EyWxw/ON0Dh+m5JtkhhzU08aS0YVLosfgb2dygSVo/eJj5M9wK7rtjo/S8GRdIrMwsI6vIUYkWOe/keJTYbL7X/RWqonRcxI0YnfjhztMEU6HQSNZMJ/VH3CZiokNdNfHErRASmXNIbw+LEG7BW5Kp7uLhYjV7I/TjEJGpcwaYwcZA+WLULAMEyCoZgYiaPZYzk+6x88fnliH0D786W6jrLHN+Wcx4b418ACT/cad7Os6LEFjQsGfET9Zn9FV+Yf5W41r/dWzBzRILQ6n7SxB86Xu8VrPeX2zqfI/8IDgi1wGc//Ud+0H8/aGELTrkenJ5AK6JbsiwYAqGInZlTXuzIWbNyGTcy1CNOLl9gnHm8tNKyhAP19ilpnduSptJ9z7a+DOHIkHtmo3qY1tmzJwEJI2hh/MMEVM3ZSgRUxTaUUPBgSsS4tzjN14lPeTfKD60RX01KoMM3BS9ekeFy3to6NMjBdj0xg4zSDyF8+oq0DxuMEMMJagOd1udLlxaoeXEaNFTY1qj3sKB57nacRNMUuRxlimLu1aeeYEY/Ypg+Xd124JGpME7j+hbnDwnSBoP7gImlMhc7sUzcnxjy5CuiqdBG0lFKs/QbGiEjg22Vt1s/vZz3i4KS+DUmgtXII2e2IPOaxr7ZQEPC6zH+/2QdD+gqQQJpIwZu3ymrnobD34yf5AF2EggkbFjhmKNLqk+SYIf4qtVSn7gyTTjRnIToNr2K14WYLmy93s61jWrRioz7r3C6ftLEFjtuYFUDidRgJ6zmtK0IhJQwjaXR8txuvsCg25+mzHNsnCRLOMK+sItyXtrfXrZAHiyaiu0XVJKywvkxsWvm+Wr0OSABMKOK0HXaD2FVEPQVHjWwZIzkjS1MJH4P8BAAD//6cRPDsAAEAASURBVOydB3hURffGDyQhECCk0HvvUgUVOyoIiij23vWzN+yi2PWz8Cn2Xj/9+yGKoiACiiCKiAjSOwQICaT3yv+8E+7m7mY32Wzabvad5yF79947c2d+s2HfnHPmTIPs3PyDwkICJOAVgdmbUuX9vw/I4DYR8vDx7b2qcyC7UG6es1MKiw/KjYe3lhO7RkqDBqVVNyXlyv0LdkuL8BB5b2K30gu2o93p+XLb3F0S1ThE3j3D/T3W7S8tS5BfdmbIcV2ay21HtLFOm9dP/0mSmetTpFOLRvLimM7S0NaPpXGZ8sJv+yRS+/Hgse2lZ0y4U92vNqTIJ6uTZFSnZnLXUW0d15bvzZJnlsRLv5ZN5InRHRznrYMpP+2Rdftz5J5RbeWIjs3M6SL9X+eCGVtEkcj0cV2kffMw63bH6+Vfb5PM/GJ5+qSO0ju2sTm/Vtt5WNtrHNpQPp3U3XGvNwfoO8ZwWOsmMvWEsv301MbkH+Nke0qeTD2+gxzWponTbWsSc+SRn/dIZ+U5bWxnx7XPlPMM5exuDnDTnC1p8s5f+2VI2wiZclzp56hAwVzw5VbTzhMndpB+rZyf53iAy8HD2oe12pfLB7eUM/pEuVyt+O33m9Pk3ZX75ZjOzeSOI0vn1lPN7al5MnlenITpB+izc3qI7WPkqYpUZe4+0N+5b/V375z+MXLhwBinZ+AL7JwvtphzH57ZTZo1CnG6jjeV+f0pUzmATtw2Z7ZkFxTIjSOOkKHtSj9X9iE8v3SJbDywX1pGNJUD2Vly2eChcmyXro5bPlq1Uhbv3KGfhS5y+ZBh5vzBgwflX7Nn6e/rQVMvJVd/D48/UX9vIx31HlzwoyRmZcrVww6XIzt2cpznge8EGlCg+Q6PNYOPwF/x2fLk4r3SplmYvDa+i1cAluzKlGm/75Nh7SKM8HGttHhXhvzn94RaEWg5hcVy43c7JT2vSG4eWSIWrf68uSJR5m1Nl0sHxcqZfaOt047X1/9MlPnb0qtFoKHR62fv0C+IQiN0IXjtJa/woFw0s0So2AVaSm6hXPPNDnPrfyf1kPBQb6RBScu1KdB+VE5vKK9BKugeUWHnWiwBV10CDc/CMyeqOLtMRVplS2UFmn1+3jy9q35ph1b4yKrMXaAJtLy8XMnKynIwiY6O0T/KvP+sOipW8sAbgWYJMDTdO7alTD76WCeB/chPC2RvRrpM6jdAxvXq7eiBJcBw4vTefWVi336Oaxn5eXLX3O8FYvn+Y4+X7jpedyUnJ0eKi4vMpZCQUGncuOQPL3f38pwIBRo/BSRQCQLJOYXyLxU4RWr6cWdRcdfUrI2p8tGqAzKifVO575h2ZW559td4+WNPVrkCDYLqylnbJVQtFp9XYLEoz4KGh1uWsLYqMl9W61XIoe+Np1R4rlABesWQljKht7MVJl8tOzd9v1Mw/uqwoKEfL6q17le12p3ULVL/4m+NU44CCyDGgWIXaHhvCbtbRraRE7o2xymvSm0KtI0HcuWBhbslXOG+q1bRJmrxsxdYn2CFqi6BtmB7ury2PFHa6Zy+ZJtT+zPLO66sQENbt/+wS+LS8t1atTw9y9e5q6pAq8zvj6e+V+b811/NkOnTpzmqfDlztkRFlf2jx3FDNR14I9A2JR2Q535dbJ44Ra1gnVuU/q6nqIC658e5RrA9fcpYiW1S+ofTtxs3yDcb10vzRuHy7zGn6v9FpZ/pZbvj1CL8p7Rq2lSePGmMk+CzD+2Wm6+TdevWmlPDho+Q5577j/0yj10IUKC5AOFbEqiIwEerkmTWxhTpGNlI7lfBBaFjL7CY9YoNlzZNS87/qS7Ap9UFGKJ/Qb81oatxU1r3W9Y1vC/PxYnrl8zcJrCA3anuxaPVzeipVCTQsguKjcjBq92K9qGKyG9UTLq66+CGfE/dX3DLoVSXQNumbsO71X0YpiLmnlHtjIUR7SepCIRbNCGzAG/LCDSLGaw2D6l7sJPOg73ATbgkLkP/im8sXdT1aJXaFGh45j3z42Rrcp5aIqLl4sNirW6I5UrGieoSaHAZT563S3apYIL18yJ9niW8rQfjGtyM43q2sE45Xn0RaJY1Ge5muK8Hq7vWXjC/afqHxVDbeV/nrqoCDf3y9vfHPgZfj/1ZoMHK9eD8ebJf3ZujOnWWK4cON8PE+VeW/SarE/apa72V/j9zjNPwk7Kz5f75PxgrGeqgLkpmfr48vmih/vGWo5+9/nJa7z5O9exvKNDsNCo+pkCrmBHvIAEnAhBJDy3cIzvUAtIkrKGxjEGspar7bbN+IW/WmLIXxnSSrlElMVwFqnAgRGBtaNYI9zeTdhpzhdgziDfEpP20I71CgWbFj6EzECeIy0IM2cDWEXJK99JYkIoEGupbbUFcIgYM7cSrILpTrSKwlrVWcXmUxovB8PN3Qrbs1r4PVwsgxEV1CTT0A/F8iOvD8yGoIsMbynq1PvVr2VjdLAWyT/vkakFDPcTKoS+wKI7s0NTE1BVqv/doHcSFZeYXycMq3uyiwRJoIVqnmc6bp3Kkjvu64a0cl32JQUPlv/dly1MqzGFthXsb87UnvcD0G/OPuKjqEmh4Hqx2cL9nqfBGjOFAjV+L1c9JYlaBWuvyzeeyj/bhKY3pcy2+CDS08apa7Raq9Q5GWHw+uutnvlDjlHbq78ZKHT+ssaf1KrXQoI4vc1cdAs36zKMP5f3+4HpVS20JtJ93bNPfn42O7qbn5hoBFREWpn/4lMTiddA4sTuOOtpxDw7WJibIq38skwJ1N3ZTd2TPmBjZoHFpcWlp+n9UIyPOOrUoK+QtK1qIWs8GtGqtn68I/ZzHCyxvXdVCiOfg2Z4KBZonMu7PU6C558KzJFAuAQT8/29diglczlPBZhV8+UPYXDOspboCSoOVITTwZYZgeatArCHoGRYGLACoyIKGZ8KK9fOODI3dKjAB9GjL1UXojUBLzS1SV+0OgbXJ7ipcpV+qb6zYb77UrX7iy+xWdSfGqaB4WwPbq1Og4RkY048a+7YrPU+iG4eauK1rh7WSu9QNCG4vavC93RJm9QuiFqILY7EXcByhou28ATHqoimNjbIEmv1ed8fHdm4utx9ZurjCV4GGtv9JyDHxh7AkocCKOqZHpPRVATpN4w6rU6Chfbig39T5W6mu6iIVSlZB+FPf2CZysgp5d25hXwUa2odVDNZXPNte+qtAvFIFWvdo58UmuKeyc1cdAs3b3x/7GHw9ri2BNnfLZvly3ZpyuwkXJlyZrgWC7IOVf6nFOttxCUH/16nrsUNk6R98jouHDn7QZ36/eaNZjIBTEGv91eJ23fCRunin9PfNtR4WGpw96TRJUxGIctPNt8ukSee63sb3NgIUaDYYPCSByhLAV+B+tVDA2tNUBVf75o2kaTnWmQS9d5/e20otVLCiwPLgbwUWH1ii8IXbJaqREU210UeIRbg7rXKRrmbM03NYrQk3mqcCgQbxiJoQk3At10I8tqfulDmPz0j8IZ69YhpXamFDmca8PAExgjlM0kUYWPkLJvh81mSBCIWVGOwRCxdjE8eenuvvc+ep3/XpPKxf+zIz1OoaZaxn3owNn+l9GRmCxQGwnDU6ZK0rr+62bVvk2msuN7e0Uuvbx598IWHlWNvKaytYrlGgBctMc5wkEEAErDQOsIAhbo+FBEggsAnM/PILefXVl8wg7rjjbjl9wpmBPaBa6D0FWi1A5iNIgATcE/hha5p0UKvjAM1NZtnOYIl57td9GouWI1cNLRvD5L4lniUBEvBnAlOm3CdLdfVoW83P9uGHn0loOe5Qfx5HbfaNAq02afNZJEACTgQQ1I7VgIjXax8ZpgH1om6yPOPaRG60B49tpzEulnRzqso3JEACAUTggfsnS2Zmppx9znly/PGjA6jndddVCrS6Y88nk0DQE1gRn2VWNW5PydeUDIUm1gwrYpEz7iQNaKc0C/qPCAGQQNASoEAL2qnnwEmABEiABEiABPyVAAWav84M+0UCJEACJEACJBC0BCjQgnbqOXASIAESIAESIAF/JUCB5q8zw36RAAmQAAmQAAkELQEKtKCdeg6cBEiABEiABEjAXwlQoPnrzLBfJEACJEACJEACQUuAAi1op54DJwESIAESIAES8FcCFGj+OjPsFwmQAAmQAAmQQNASoEAL2qnnwEmABEiABEiABPyVAAWav84M+0UCJEACJEACJBC0BCjQgnbqg3vgaxJzZG9Gvtla6LguzR0w/tHz8W7OO27gAQl4SeCXnRmSW1gs7XUz+IG6GbxVPJ23rgfq68GDB6VBg8pvzuVrvUDlxH6TgLcEKNC8JcX76hWBl5clyCL9Am0ZESpvnt7VMbaX9Dy+QF3PQ9DNWJds7mvTLExuOLy1o4518M3GVN34O8u8PaJjMxnXs4U5Ts4plGd+jbduc7xG6gbhrZqGCjYFx/0VfbWh/SVxGab+Gb2j5JjOpcLS0ageFBYflAcW7rafMsd4XuumYdI7trFAlHIP8jKIyj1RoFz3ZhRIiE4U9gutqFw/e4ccyC6U45X1rUe0cdx+3bc7JEk/Eyd0bS63jCw977ihjg5yCgvkp+3bZP3+/aYHE/v2k54xseX2Ji0vV77duEG2JCVJQlamcmkhfVq2lAl9+kl4SIjHuttSkmXBtq2yJTlJsvLzpXtMjAxp205Gd+vhsQ4vkECwEaBAC7YZ53gNgcoKtCW7MmXa7/tMXQipN1TUQcRZRY0Hcp1+IUOMoZzWq4VcNbSVOU7MKpAbvttpjj396BoVLlNPaC/NVUR5KrfO2SV71LqHMqxdhDx4bHu3txYUHZQLvtzq9pp1soNade4+uq108kJoWHWC/XV3er7cNneXRDUOkXfP6FYhjkARaBl5efLjti1GnOUWlnx+MbgbRxwhQ9u5/4zhekpOjrzw2xJJyMyUkIYNpU3TZhKfmSGwiEHY3XbkKLVQl/6OoA7KxgP7Zfqy3ySvqMhcjwwPl8Sskj9sTureQ84fOKjCP1ZKWuJPEqjfBCjQ6vf8cnQeCPgq0GKahBoRdtngljKxT5Sj9bX7c+Thn/aIdd2TQHvm5I7STi1wKJn5xbI1JU8++PuAafPw9k3l/mPaOdq0H8RnFsjN3+8UWO9SVQSqMUc+OLObcdHa78OxXaBBxPWODTe3pOYWCVy4n69J1mcXCUThs9qfUJrSXBG6fV8fBVpSTrZMWThfPzNFRhQNUUG2NjFB8vV9RQLtuV8Xy6akA9IjOkZuVTEWEaafzdxcwflEtaaN6tRZrhw63IklBODkeXMkT18hxs4dMFAtkg1NO//5fanpB+qgLgsJBDsBCrRg/wQE6fh9FWgDNJYoW4WVGgzk3yd3ctB7a8V+Wbg9XV00kfLD1jSPFrTp47poTFKJQLMqf7UhRT5ZnWRcjv+d1EPC4ENzKXBvfrjqgGkXYu2v+Gy5Z1Rb4xp1udVJoD1xYgfp16o0/gn3rkrIlscW7TXVIAghDFkqJlAfBdo+tXg98tMCGdGho4zv1Vs/m5Fy+9zvjNuxPIEGAfbggh/1M9tAnj55rP5hUvoZm7tlk3y5bq00CgmRF8aOd7KiLd65Qz5atVLaNW+uFuOTTH2L/Esq0NaoOOwVGyv3HH2cdZqvJBC0BCjQgnbqg3vgVRFoQ9tGGEH16vgu0lYtWupRlGu+2S59WzYWuA4huDxZ0NwJtG1qRbv7xzgzIa+f1sXEibnOzkNqnVuvVjpYxOIz8+W9lQc8xjDZLWjuBBravlr7C4vaJYNi5ay+0a6Pk2V7smTF3izZkZoniL3qpta2YzWWCmP3VBCnt2RXhrq3GsvJ3SNl/YFcWa7tQBBCcoLPmfosu2vYagvB9N9vTpPt+rxdaflGrCK4/pjOzWRkh2Ym7su613pNyysqqZOSq67fAnWxhUmvmHDzjCZhqqBdytK4TFmtfRmughRB+3O3pKm1KEetPYXSJaqRnNM/Rrq0cI4t+0P7b8UVZhUUC9popAIacWX2AhHseq6qLs5VKmR+VvFkleuuv0ma2ISQdb4qr9kFBWpNzdfPXKlI90agfb1hnXy3aaOxnt137PGOLsCCNmXhj7o4osRVevmQYTqHXRzXn13yi4k7gxg8q98Ax/nVCfuM29M68eRJY5z6ZJ3nKwkEEwEKtGCabY7VQaAqAu2mEa3lRo0pu/iwWJnUL1pW7VOL1C975Y4j2xpBU1mB9t7K/fKdipPOKg6mjS3r2klXIQJBFaLWig/P6i5JGnh+y5ydEhleEgvl6qH0RqBZ8WwQZxBpVoFQgjUQCyhQmqrQUf0p2SpOILLO6BMtlw0uvR/3WAUC610dC0QVFiE8vTje1LWu4/X8gTFyngohe4F7+JU/ElUoFZjTzTQOr0hFYY72BeWqoS1V8Ja6k3Hub2U+/Y8EIzKxcDC6caik5BZq/JMY0Xzv0e0MT9xrFbiSv92Uqq7paNmWmiv/JORoIHsDjYXCCEXCQxvK0yd1dBJpn/6TJDPXp1hNeHw9SS2nN+rnwl6qKtC+/mqGTJ8+zdHklzNnS1RUWTHtuKGaDm6bM1vnu6BcF6dl7Rrfq48Krf6OJ7+xfJkK2r3GErcnI13/iOgmFw8a4rh+4+xvVPAXyR1HHS39W5XwQizaIwvnS76eR0FM3PWHj1TLbgdHPR6QQDASoEALxlnnmGW5Wod2qqUGAsRabQksns5biwTg4nzshA5y7/zdZrXkC2M6yavLE43l6IOJ3eV/utKzPIF2zbBWEqtxbJAEGSq8NqiVCatGIzXw/F/DW7l1N/68I8OIkUFtmsgjx5d8aWHRAQSNOwtZRQIN8WdXfbPDiCCsIsRqQqu8uSJR5m1NN6sUb1bB0UtXfKLAGjbtt31m9eHd6lo9UleduhZLoGGVKFKYwHV6qq5k7aiWMFi7wBbxbnbesOIhtg5i7IgOTc3CCljYwCdBXblfrE2WHmoVsws0WLxunbtTClVYna0CeVK/GBVXKrQKD8rHqw/IHLWMIb7uuVM6GUuc1U9LoMEChj5i7JgL9OuzNUnGcue6stJItxL9Jrt1TLcfWiTwzoRuVrMlryoSIWDtBf2A1Q1WuRE2NzI4Zet4u+r58tzL/izQHlu0UOLS0lR8DdbPT3czbMsKdryKMrg3f9y6RReztJcbdLEBClaJ3vr9bHP82IknGzcn3vxv7Rr9zG2W61SUzd28SechVS48bBBXdBpS/BHMBCjQgnn2OXavCbgKNCsmDAINiwMGaaqMySpcEEtWnkBz98A+6vq7Z1Q7szrQ3fXnlu6T33dnquWqdGGCJaTO0IUKl+t5eylPoOWoYHhZLU9w3UEsvXRqZ2NxQn24MyerqzVCLUkvqiXP1RX50450Y+lCqg64Yl2LJdBwfoKmAbliiHO/XO/He1jBIEAHq+v04ePcrxiE8IIAs4rFw90zYEG7UQUfxKur+LQEGixlb53eRWCpswqsaVMXlSzyeHtCV+u002tlY9CcKvvwxp8FGgL909Sdec3ww1VYdzIrMh9WK1jxwWJ5fPQpJoUG3KA9dDXnfceUxJNhtedD6v5EeW7MOP28NzZi7MlfflaXcxu55Yij5EVdFYo0H66WOR/wsQoJBDwBCrSAn0IOoDYIuAo05Lf61+wdJt5qc3KuEWdHqVWpIoF2isZmNVfXJApcl3FqxduYlGtcbciV5WqZQvzXFV9vNwlP4f6EGxQFAutZza2GBQeIa7MXu0BDOo4odf+hpKoLcEtynnku3rvGn32s4vJrjZ9z567D/Wj3Ws3hlaEWOKQZaWVLM4LrlkCD2/AtFTl2AYTrrgVi6sKZW027T4zuKP1UqFZU4I68WFOIaFXzDFjAXMssXVDxkS6oOLFrpNw8stTtaAk0MIYV0F4wJnBWzSr/d05PJ8ubdV9tC7RNGuO1YsUf1uNl0qRzJTy8YkaOCj4eeOPi/NfsWWqBLTaialCbtmrp/MdYzG4ceaTGKbbTBTNb5bN/Vuuq42byhAo2lK3JyfLMkkXm+JXxE4yV7anFiwQLFR5VixoWGrx+yEV6XJeucungoeZe/iCBYCVAgRasM89xV4qAq0BD5Qc1GSxclI3VIvP+RLh1GlQo0NwtElim1rF/q5UMMWavjO/stEgAqzWfXLzXpO+wW3ZgCbtcBUWRqpyXx3U2ixOsAdkFmnXO/gqRd8HAWONStJ+H4IPwwzjwDwLKKtYhrFl45n26+tPutsN9lkDDgoLn1bJYUYGr8obvdhjX4Gdnu1+96toGrHx3zStZUNGsUclCAKufVh8RUpanLsRu0doPdXNaxRJonixv5/xvi7n1Q01f4k5c1rZAs/pd26/eCLQ7dKUnFhfALdlGFxjACgZh9q9D7sy5WzbrSs416mqOlgePO8EMYU96ukz9uWTRA1Z3Lt+zW1O+rFZ35mB1Z5a4Sa3YtrE9e+mijYG1PXQ+jwT8igAFml9NBzvjrwTcCTRLkCCj/x1HlmSEr8iC5k6gYcxTf95jcpRhleOltqB9y5WJ1ZMX6aIEe4GrEhY4V0uYXaBdrclysUIRBYsKWkeEObkL7e3d8cMuE4fVXYUN3JjlldPVhelq8bJ4jNRYMgTpV1Qst2IL7dd7KnC9KZaYRSqS4e1KVx66qxutcX2I+bOKJdCwWvNCXaxgLxB353xBgQYm3gi0h3+ar1uiZRhxtTRup+zXRLOIK2uhbkuUmevXyhyNJ4N1Da5LlIz8PLlz7vfm+HZdJIAFBUjrAReotUXU02pRwy4DEGcQaSwkEMwEKNCCefY5dq8JuBNo+FLHakPkgoJrDMVXgfbOX/tNcLtd3KB9bAtk7U5gHuDmB2LYnlIXoVXsAs3dIgLrPtfXh1UkIu0EYtoQ21bZYgk0rOLEitaKClJqTFZrWJjC++ycHmWC7N3VtxICw2r56aQSq4u7+9ydo0BzR6XsOW8E2vNLl5gdAVpGNNXtrLI0PnKopmHp6mgMuc4Wa84zpNhAqg0U7DAA12ixvqJeSq4mdz7+RCPSrIrIrYYca1cPO1zd/aXWT+s6X0kgmAhQoAXTbHOsPhNwJ9DcNearQEMSWiw8sFaJou2tGi92z/w4E8x/rJt9Nws0Bgj9Un1oth6CJQrFV4H2xp+JuuVPutkhAQsSKlsqK9DgLr1IY9BQsB+q66IEd89HKo1rdAUqCpL62hcPmJPl/Ag0gZan+1xmHdoCCcOK1oz9lqWpnGFW+ZI3As0SYHhY79iWMvnoY50ENpLf7tU0G5M019m4Xr0dfbIEGE6c3ruvYL9Pq8DCdpda2PCHyf2aW627jpeFBIKZAAVaMM8+x+41gZoWaFYiWqSluPaQWw5bMiFtx2Ga2mOqpvZwV6xcW8jNhl0MUHwVaAt0J4TXNGUItqJ6SRceqBexUqWyAg2N365uVbhp3bkdPT3cGrPrKk1P91vnqyrQsKjjylnbjWD+3EuLn/VsX179eRUntnjClk4oU9QK1rlFqcUVe3Te8+NcI9iePmWspjIpTW6MjdW/2bhe95wNl3+POVVZlsQRop1lu+Pknb/+lFaIadNEtZX8+KEJFhKoVwQo0OrVdHIwNUWgpgQaVg9+tT5VZm0sSYaKnQKw8hLlzh/iNFdbnolJQ2yau/K6Wr3mq9XL7hr1VaAhuH7yvJI4NDwPMW+uIg1Z/uFmtOcys/rli0CzFkHAZYmtq5Buw16wywJyqNl3MLDmAha3hzQ1h+uG7xj/krgMtcA0dko6W1WBhn5dMnObydl251Ft5ehOZXPB2fte1WN/Fmiwcj04f57sV/emfc9NnH9FN0JHTrR+rVrJnUcd44QhKTtb7p//g7GS2ffcxIKDxzW3WrKKuzP79pfTevdxqsc3JBCMBCjQgnHWOeZKE7BEgd0F6a6RilycSAsRcihgLUvFGRKZWsW+QMBa4YhryLWGxKvuihU0j9QWH5zZ3ay+9FWgof2NuioVq0bRr0662nOgbmEUq0IIecW2p+bLZk0J0keTvD6lGfddiy8CDW0g0S/2MYXFBNswddexFmqc0k6NUVupOwYgn5o9US3qvKBJc7HtEnK5QZyir0hciy2fsOUUkvEir5pd8FWHQLPvLACBiIS3mM6BrSMEKVSqs9SWQPt5xzaZrSk9rJKu+c0gtLD5eZgmnEXpoMH8yP5vL9hU/dU/lpmdAbqpO7JnTIyuat5vEtg2a9TIiLNOLVrYq5hjy4oWotazAa1a6+crQneGiBdY3rDqE8/Bs1lIINgJUKAF+yeA4/eKQHUJNPvDmmuiVIgfpL2AAOmpGfOtYomdKF2J+M4Z3Ty6e+zpNqyNz6si0PB8LEp4U7d7WqkpPpBSwyqIdesb28Tss2nffcC6bvXZ20UCVj28gi/i8FwXRPRXgXilCjSsLHUtSJwLQYzdCOwFsXgjVLSdNyDG7BRgXasOgVaoi0KwQwCS6x7Ixj6WJQLbU+4469m+vNaWQLNSYpTXR7gw4cp0LRBkH6z8S3eYyHZcwsrM64aPkA6RngXrD5qG4/vNG82WUqgIsdZfLW7XDR/ptLm6o1EekEAQEqBAC8JJ55BJwBsCECOwSGHvTwhFbEbe9FDuMW/q+3IP3JmISYMYRCxcjJtEtK7tQqDFpWsdvQCrFvqJ+iy1RwDWLySc7aRCDtYzbwqk/z5N1YHFAbCcYXsoFhIggVICFGilLHhEAiRAAiRAAiRAAn5BgALNL6aBnSABEiABEiABEiCBUgIUaKUseEQCJEACJEACJEACfkGAAs0vpoGdIAESIAESIAESIIFSAhRopSx4RAIkQAIkQAIkQAJ+QYACzS+mgZ0gARIgARIgARIggVICFGilLHhEAiRAAiRAAiRAAn5BgALNL6aBnSABEiABEiABEiCBUgIUaKUseEQCJEACJEACJEACfkGAAs0vpoGdIAESIAESIAESIIFSAhRopSx4RAIkQAIkQAIkQAJ+QYACzS+mgZ0gARIgARIgARIggVICFGilLHhEAiRAAiRAAiRAAn5BgALNL6aBnSABEiABEiABEiCBUgIUaKUseFSHBAoKCuSaqy+V5s0jJTo6WoYMGSbjxk+QiIiIOuwVH00CJEACJEACdUOAAq1uuPOpLgQKCwvk7sm3S0ZGhsTF7ZTCwkIZNuxwee75l1zu5FsSIAESIAESqP8EKNDq/xwH3Ah3746Tq6+6VEVagbz73ifStWu3gBsDO0wCJEACJEACVSFAgVYVeqxbYwRuvPEa2bhhvTz11HNyxJGjauw5bJgESIAESIAE/JEABZo/zgr7JPfde6csX75M7r7nATn11NNIhARIgARIgASCigAFWlBNd+AM9r777pLlf/wuk+++X8aNOz1wOs6ekgAJkAAJkEA1EKBAqwaIbKL6CVCgVT9TtkgCJEACJBA4BCjQAmeugqqnUx66V5YuXSJXX/MvueiiS4Nq7BwsCZAACZAACVCg8TPglwRefukFmTVrpgweMlRefPEVv+wjO0UCJEACJEACNUWAAq2myLLdKhFY889que22GyQ0NFSeefZFGTp0eJXaY2USIAESIAESCCQCFGiBNFtB1tc1a1bLrK9nyvr1ayU7O0tiYlrKCSeOlksuuSLISHC4JEACJEACwUaAAi3YZjyAxguB9uWM/1OBtk4KCvKlTZu2ctxxJ8oFF14SQKNgV0mABEiABEig8gQo0CrPjDVqgQCsZrfcfL0cPHhQ7rt/ipxyyqm18FQ+ggRIgARIgAT8gwAFmn/MA3vhQmD6yy/K119/KT179pI33/rA5SrfkgAJkAAJkED9JkCBVr/nN2BHN2XKfbL018VyxZXXyKWXXhmw42DHSYAESIAESMAXAhRovlBjnRonwES1NY6YDyABEiABEvBjAhRofjw5wdw1CrRgnn2OnQRIgARIgAKNnwG/JIAcaMiF9vAjj8vxx4/2yz6yUyRAAiRAAiRQUwQo0GqKLNv1mUBhYYGcf95ZkpqaItNfeUv69x/gc1usSAIkQAIkQAKBSIACLRBnrR72ubi42GztlJmRIcuXL5O1a/+RVq1ay4cffS7h4eH1cMQcEgmQAAmQAAl4JkCB5pkNr9Qigby8PBk/rtSV2b//QLn++ptk4GGDarEXfBQJkAAJkAAJ+AcBCjT/mIeg7wUS0m7dukUiIyMlKipaGjVqFPRMCIAESIAESCB4CVCgBe/cc+QkQAIkQAIkQAJ+SoACzU8nht0iARIgARIgARIIXgIUaME79xw5CZAACZAACZCAnxKgQPPTiWG3SIAESIAESIAEgpcABVrwzj1HTgIkQAIkQAIk4KcEKND8dGLYLRIgARIgARIggeAlQIEWvHPPkZMACZAACZAACfgpAQo0P50YdosESIAESIAESCB4CVCgBe/cc+QkQAIkQAIkQAJ+SoACzU8nht0iARIgARIgARIIXgIUaME79xw5CZAACZAACZCAnxKgQPPTifGHbj069UHZG79XoqNjpEf3HnLGxEnSpk1bf+ga+0ACJEACJEAC9ZoABVq9nt6qDe4/056TjRvXy+7duyU7O0s3Mm8hH3/yhTRr1qxqDbM2CZAACZAACZBAuQQo0MrFw4sgkJOTI7fcfJ1s375Nbr31Tpl45tkEQwIkQAIkQAIkUIMEKNBqEG59avqtN1+V//u//8p5510k1//rpvo0NI6FBEiABEiABPyOAAWa302Jf3bos88+lnfefkPGjBkn9973kH92kr0iARIgARIggXpCgAKtnkxkTQ/j888+kbfffl1OOeVUue/+KTX9OLZPAiRAAiRAAkFNgAItqKff+8FToHnPineSAAmQAAmQQFUJUKBVlWCQ1J8x4//k9ddelsMPHynP/ntakIyawyQBEiABEiCBuiFAgVY33APuqYsWLZTHHp0i4eHh8tXXc8xrwA2CHSYBEiABEiCBACFAgRYgE1XX3czMzJTLLj1P0tLS5KqrrpOLLr5MGjRoUNfd4vNJgARIgARIoF4SoECrl9NaM4Paty9eZvzvc1m9+m/BccuWraRDh47y+BPP1swD2SoJkAAJkAAJBCkBCrQgnXhfhg1RhsUCq1SgHdi/X9q3b68CrZM8/MjjvjTHOiRAAiRAAiRAAh4IUKB5AMPTzgSw1dPll10oyclJcvqEM82OAiEhIc438R0JkAAJkAAJkEC1EKBAqxaM9b+Rxb/8LFN183SIshlffmv25az/o+YISYAESIAESKBuCFCg1Q33gHuqlWZj6NDh8vwLL3vV/6KiIsnNzXHc26RJhDRs2NDxngckQAIkQAIkQALuCVCguefCsy4EfElUu3z5Mrnv3jsdLb308usycOAgx3sekAAJkAAJkAAJuCdAgeaeC8+6EKBAcwHCtyRAAiRAAiRQgwQo0GoQbn1q+v333pZPPvlAJk6cJLfedpdXQ6MFzStMvIkESIAESIAEyhCgQCuDhCfcEZgy5T5Z+utiuebaf8mFF17q7pYy5776aoa8Mr1kW6jY2Jby8SdfcAeCMpR4ggRIgARIgATKEqBAK8uEZw4RwPZOe/bska1bNsmiRT/p2Qby5lvvS48ePb1i9MjDD8iSJYvMvbfeeqdMPPNsr+rxJhIgARIgARIIdgIUaMH+CShn/DfdeK1s2LDO3NG2XXu55OLLZdz408upUXrp4MGDctaZ4yUjI13atGkrH338uYSGhpXewCMSIAESIAESIAGPBCjQPKLhhd2748x+m9HRMRIREVEpIFu2bJbrr7vC1Jk8+X6vhV2lHsKbSYAESIAESKCeEqBAq6cTW9fDWrx4kXzxf/+VyBYt5LHHnjYJbuu6T3w+CZAACZAACQQKAQq0QJkp9pMESIAESIAESCBoCFCgBc1Uc6AkQAIkQAIkQAKBQoACLVBmiv0kARIgARIgARIIGgIUaEEz1RwoCZAACZAACZBAoBCgQAuUmWI/SYAESIAESIAEgoYABVrQTDUHSgIkQAIkQAIkECgEKNACZabYTxIgARIgARIggaAhQIEWNFPNgZIACZAACZAACQQKAQq0QJkp9pMESIAESIAESCBoCFCgBc1Uc6AkQAIkQAIkQAKBQoACLVBmiv0kARIgARIgARIIGgIUaEEz1RwoCdQegby8PPlx3hz5Y/kySUlOlvT0NJn2n1clJia29jrBJ5EACZBAABOgQAvgyfO267/szJDcwmJp37yRDGzdxFHN03nckFd0UL5enyLSQOT8ATGOOrV9kK/9aKB9CGuoPzyUWRtT5EB2odPVfi2byKhOzZzOBeIbT3Pk6by/jPGxR6fIokULpWHDhtK5cxdp3jxSpj76lERFRflLF9kPEiABEvBrAhRofj091dO562fvMALm+C7N5dYj2jgave7bHZKUUygndG0ut4wsPY8b0vOK5MpZ2404mnFuT0ed2jiIS8+XWRtSZWtKruzW44MHRaKahMqI9hFyWq8o6RjZyKkb9/wYp/fmOZ0b26OFXDe8ldO5QHzjy9zV9TiTkpLkvHPP0M9OA3n1tXekT5++dd0lPp8ESIAEAo4ABVrATVnlO+zLl3xdCbRle7Lk5WUJxuIHyxnEGKxoiZkFojpNxvdqIVcPdRZeuF4MFacFwu6LdclCgWZw1MmPdevWyi03Xyft2rWXTz79X530gQ8lARIggUAnQIEW6DPoRf8DRaD9vS9bnvhlrxFisJRdODBGmoQ1NCPMKiiWrzekSFGxyGWDPccxzVC37Gf/JFGgefG5qKlbli5dIlMeutdYzl57/d2aegzbJQESIIF6TYACrV5Pb8ngAkWgPbBgt2xMyi1XXBUVH5SQcuLRKNDq/gO99NfFMmXKfdKnbz95TV2cLCRAAiRAApUnQIFWeWYBV6M6BNr8bemyIj5LY8IKpGtUIzmqY7MKg/DhrlyxN0t2pOZJgQqrblHhcqzGwQ1tG1GG4T8JOTJ10R6sSZBXxneRts3CytzjzQlvBVqh9mdtYo78qWPamZpvYvEi1FrXuUUj6RPbWE7p3sLE33l65pbkPPluc6rszSiQtNxCiQwPkTba5+HtmhoujULKLmqAE/a3uExZpIs2ErMK1I17UKIbh5hnjuzQTIa1K8vFl7mz93nVqpXy808LHKeuu/4madKkdKGI40I1HlCgVSNMNkUCJBC0BCjQgmDqffmSt8egnd03WiB8wlV0NNTAsBxdEYpypp6/dFBZdyNWjL61Yr8RIrivqQofiJNsdVNCtpzRJ7qMm/KDvw/It5tSjTh66qSOqOZT8Vag/bY7U55fus/xjBYqsNBHjBtlsIrIO45sI80bhZj39h/ztqbJmzo+FIynZUSopOcXS94hLs+d0km6R4eb6/Yf035PkCW7MsypULUCxujCByzSgFWwSWhD+WRSd/vt5tiXubM38vVXM2T69GmOU1/OnK0rKaMd72viYPbsWTLtxX/LwIGD5KWXX6+JR7BNEiABEqj3BCjQ6v0Ui8zZkiaI4eqi1qER7Zs6Rvz95jTJVlHRVc8fbjuPGyyBhmME6183rJWc1C3SCDSIm5c0kB9WqKnHd5DD2jhbZN5ckSjztqabAP+bR7SWXmqRQll/IFem/bbPiJK7R7WVI9UKZ5XnVCz9ru26W1Fq3ePNq7cCDda9n7any7ieLaR3y8ZGIKF9WLam/5Eo6/bnyGgd703af3uBOL3y6+3GIniJitMxamlr2qgkTg7WtB9UvJ3SPbLMStNVGl/3mMbXhSjMB49rJ/01DUiYCl5FKBsP5MiC7Rly80jnZ+G5vsydvb91IdCmPvKALF68SE4cfbI89NCj9u7wmARIgARIwEsCFGheggq22+wCDcLsRheh8qkG4s9Uq9ogFWePqEizCtyZkzXtRYRahF4c29lYl6xreP1pR7q8ogKoddMwef20Lo5LVqqMiW6sa46bvDjwVqCV11S8rhi9+fudJvfap2f3UFFVevcGFZkPLtwtUeqafHtCNxWspdfKO7L6BdfwZBWntVVqW6CtX79W7rn7dsnOzpbHn3hWRo06praGyueQAAmQQL0iQIFWr6az+gZjF2iPndhBBrRytpLtSsuXO37YZQTK5+f0dIiYj1cnmdWW7kQdelegKTGu1fxrGflF8sbpXaWVugdRrv5mu6TmFhmXKVynvhZLCFU1zcZFM7cZl+Wb2ke4MK2C2LN758cZq+KrGivXRoWmNwXJdD9alWTi1F4d16Xc+DZv2vP2nk2bNsqKFX84bp806VwJDy+xaDpOVvHgK3Wjfjf7G0lNTZGwsDDp26+/nH76RBk+fEQVW2Z1EiABEgheAhRowTv35Y7cLtDentDVxEvZK0BoXfDlVnPKLmKe/TVe/lD3IYLk8e9QejJzH2K8UPI0OL5IL9x3TDuHy/V2FXtxKvrO6RctFx5WNq6tpGbFPysj0DJVJMKF+I8uFkjSnQjSVCCWRNeJ5KsrE/2drmKqffNSEQa37u1zdwmsbM3UtXl0p+bSX8Vrb3Xjtm5aKuRcewr3JwQt6rfTxQRH6S4H2O2gV2y42zg31/r+/P7bb76WOXNny/7ERNPNvrp688yzzqFA8+dJY99IgAT8ngAFmt9PUd100C7QvtCdBOxuPqtHl6iVCTFZCOrHykcUiBBY1xAkDzdmeeX03lEqUkrqPbl4r/wVn23i3FzdqeW14XrNW4GGPj6grsocjc3D6s0uLcKlhbotLZflchWZWHn60qmdy8STQWy9/mdJnJr9+YjjO69/jPSIKbtAAPet1Dg0LJ5AnJtVsIXVyRqzNkmFKRYNBHpBDrRHHr5fiouL5ZlnXpARI48M9CGx/yRAAiRQJwQo0OoEu/8/1C7QPjqru1mJae81LGPnzdhigtztIubhn/eY9BWXD26pqzW933cRwgUB9kN09eSU49rbH1WpY28F2m1qBcM2UnCFoq/hoaXBZLCcXaTWQexQYB+ba0ew/+fqhGxNP5Itf2o6EVjHUJ7XVZzd3KzitOpv122p1ugiBCy22KgxbShI0/GOWirLy/Fm1ff317sn3yZ//fWnjB59ijz40FR/7y77RwIkQAJ+SYACzS+npe47ZRdo7kRKmqajuEr36kT576QeDoHzhlqWftScaRNVnF2mwsfb8vOODF09mSBIP/HOGV19dvtZsV7lrQZFrBti3hrrQoaPVXxaVjOrr8ma+gJxcijuxm4uuPxATN1ji/bKNhVflVnoAEvefZqgFyk6Hjy2vdtcaC6PqtTbvLxcycrKctSJjo7R+LdSMeq4UI0Hs2bNlJdfekEGHqZpNl5imo1qRMumSIAEgogABVoQTXZlhmoXaFcMaSkT1B1pL5agcl2NuUBTV7y2PNHEWb2k8VvuXKP2dqxj5AK7UVdOwioFYQeB50v5VRPBvqipPNo3b6TxY53dNrFVA/3v0UB/5Dh7V8Wgq9UKCWjfW3nA1PVWoOHmhTr2V3XscPdWJpcb9h5F8lq4OS+uQvydu8HW9ipO9IGJat3NBM+RAAmQQOUIUKBVjlfQ3G0XaBBhT53UQbPel8RIIafaQxq/BevPlSreEEtmFfUKyuR5JXFoWI15kQoOV5GGemvVxYccZPYyVwP23/5rvxFMt45sI8d0Ls2ThvsQoxafmS/Yp9NT2YcUGXN2msUJD6mr1N2uBYibu1Tj5+CQvEdTXhxhy8e2U/s2Vd20GD+Kq0BDGpFMTUo7sLXzqlbca7l3EVN2w+HOOc3Q9zbNQqWDCkd7QfJeJKPF621HtJHjdKeF6iwUaNVJk22RAAmQQO0RoECrPdYB9SRLoMEZ1iGykW5LVGy2d4ILEgllsYoR2zG9OKazw71pDRBxVQj6h5DrpElwB+oqx1hNVYHg+O26rdJm3W/TnZUJ4u5D3VEAFiw8t7MG7mOVI2LBtqswwirP8b1ayNVDW1mPcvsKKxasWSh4PnYJQEFsG/qPgiB/bF+F94M1l1s/7SOC/5HpH3FwSFQLIeYq0Bbr9f/ojgBY2YnVm1iRid0AVutWVYhpg9v0mZM7SidlZi/W8/rqoggsoGgZEWa2wMIK0hStjy2mnjmpUxmW9jZ8Oa4LgbZy5QqZfNet0rlLV3n//U996TbrkAAJkEDQE6BAC/qPgHsADoGmegZpNp74Jd4ICutuWJDuOqqtCW63ztlfEceF7ZBWquUIKTWsgvCnvrFNzMpFxIm5K3D3fbE2WRJUBJbWFLPS8uJBMWa/S3f1rHOI1Z+xLlng7tybkW8WMuDa55p0Ftn7USA431cxuEBFmvUMXEMiWex+cI3GoIGBq0BDHrT3/96vIjPPaVxoE6IT7lmIMNcCl/BXG1KMiLNfAw+k6sCWWfZ8a/Z7qnJcFwJtz57dctml55t8azO+/EYiIkp3r6jKWFiXBEiABIKJAAVaMM12FceK+LB4tTJ10c3SserQm4KVjXu0DvKMIfs+ErtaWyNVVB9uP6x4hDmtlVqcysszVlFbnq5jwcAetXyFq+Wrm47LNR7NUz0IPLBI0fpNdAVoKx2XNwILiysSVXjiNUpdxnB7utvv09NzA+E8UmxcffWlsmvnDunVq48cNepoad48UsaNO73GN2oPBD7sIwmQAAl4Q4ACzRtKvIcESKBSBDZv3ihvvvGqwN1plc//7ytp1co5Ns+6xlcSIAESIAFnAhRozjz4jgRIoBoJFBYWSHJyimRkpEsXjUkLDQ38ZLzViIdNkQAJkIBHAhRoHtHwAgmQAAmQAAmQAAnUDQEKtLrhzqeSAAmQAAmQAAmQgEcCFGge0fACCZAACZAACZAACdQNAQq0uuHOp5IACZAACZAACZCARwIUaB7R8AIJkAAJkAAJkAAJ1A0BCrS64c6nkgAJkAAJkAAJkIBHAhRoHtHwAgmQAAmQAAmQAAnUDQEKtLrhzqeSAAmQAAmQAAmQgEcCFGge0fACCZAACZAACZAACdQNAQq0uuHOp5IACZAACZAACZCARwIUaB7R8AIJkAAJkAAJkAAJ1A0BCrS64c6nkgAJkIBXBA4ePCh/LPtN5s+fJwcO7JfUtFS59tobZNSoY7yqz5tIgAQCkwAFWmDOW73r9d6MAlmTmG3GdWyX5tIktKE53pORL2sTc8qcr3cA/GRAf+zJkn8OzYPVpajGoXJ2v2jrrVeveYUHJTy0gVf32m/ypd5BbSA7v1giGjWU8p64Rj9He/Xz1Fg/W8fpZ8wq/+j5eDfnret1/Tpr1kx5+aUXTDfatmsvLWNbymWXXyXDh4+o667x+SRAAjVIgAKtBuGyae8JLNyeLq8uTzQVXjuti7RpGmaOF+j51w6df13Ptz503vuW68edBcUHVVwUSIgqkI6RjWpsUB+uOiDfbEx1ah/Pe+nUzk7n3L3ZnpInM9anyKakXEnOKZQ2zcKkd0xjuXhQrLSKCHVXxZzzpZ7ikB+2psk8/RefWSAFRQclrGED88yhbSMEIr9HdLjTM19eliCLdmZIS+3Lm6d3dVx7Sc//4ua844Y6Prji8gslLm6X/OuGW+Tccy+o497w8SRAArVFgAKttkjzOeUSoEArF4/sTs+X2+bukqjGIfLuGd3Kv7kKVwtV+eAfCoTWo4v2GkFYkUBbuz9Hnl4SLzkFxdJIVWT75o0kTvtcpG3FNAmVR45v71ZY+lIPYnXKwj2yOTnX9DNUhVmXFo3kQHahpOUVmXPHq0C79Yg25tj6EYgCDe7NcaeeKAUFBfLZ519J69atreHwlQRIoJ4ToECr5xMcKMOjQCt/pmpLoNl7seFArjy4cHeFAg3Wq2u+3S6Z6mY8tnNzuWlka2PNyikslqcWx8s6FW+dVED9Z6yzFc7Xeu//fUBmb0qVtmqhu0ytc4PUYma5xGG5+25zmuTqs68d1so+HAlEgZadnSUTTh9jxvHd9wukcePGTmPiGxIggfpLgAKt/s5tQI2MAq386fJngbZkV6ZM+32fse69oa5DuBqtkq4WrWu+2SFFagl65qSO0iu2VGD4Wu/yr7cZMfjk6I7St2Vpe9Yz8QobYGkvSq4EokDLysqUMyaMNQP4fs4CCQ93P96SEfInCZBAfSJAgVafZjOAx1JVgYYA8CW7MqSnxjyd3D1S1qv1Z7kGvK9KyDZf1PgiP7NvtIk/smOCS+x7tbhsT8mVPRrjhdi3XjHh5t4mYSULFez3W8dbkvPUUpNq4sLScgslMjzExD8Nb9dURnVqZtx81r2ur1j08NvuTNmlLkC45eAC7KvCZUyPSKcYOwTs/xWfZapnqetwaVymaRfuO3vp16qJuJ7DdViTvlibLBFhIXLZ4FgTq/W7PndlfLak5hZJl6hGckbvKCfRZG/XWwva47/slb/3ZZs+uLoV0d5D6o5cfyBHxvZoIdcNL7Vq+VIPvK6fvcN085Ozukt5c2Rusv2oqkBLSjogn3z8gaPF8adNkF69+jje18QBBVpNUGWbJBAYBCjQAmOe6n0vqyrQILLeXblfjunczKzQe1pdayWRVKXozh8YI+f1j3GcgKiY/keCESsN1NwSrasVU1RsqbHHuM/uPbqddFbXnGtBYPqbK/ab07DSIOg8Xd17eepWQ3nulE7S3SVAHefz1RX4gbrnUB99g6EJKyRTVEjhfTNdhfjhmd1xqymf/pMkMzXovqJyUrdIuXFE2diknWn5cucPJXFrz57cSe7+MU5g0bKXga2byKMndLCfchx7K9Cu+XaHGcMNh7c24tjRwKEDaxx9VCQ/pVYvq/hSD/2/ctZ208SdR7WVo1UMe1uqKtC2b98m11x9qeNxUx5+XE44YbTjfU0c7N4dJ5dfdoE00A/o3B9+ltBQz4stauL5bJMESKDuCFCg1R17PtlGYEdqnvyplh2UcT1bSNND1itP521VzaEl0HqrJQqpFA5v31RO1XY6arA6rGTL92YJgsnRNkpiVqHcOnenFKpoQgqJSf1iTFoIpHn4ePUBmbMlTbpGhRuxZfPYCeKqrvx6uyBQ/RKNfxrTXfuqwgoFqyyxsvAUteC5W2n50aokmbUxxQix64e3lhHaxzANqMczV6il7P/U2mUPxodos1Tmbh3T7YcWCbwzoRuulBYVehCKrsUSaM0bhRjBiesXHxZrLGdYCAABBsuj3aplb8MbgQYxe96MLaLNyT0qaI/o0NTehDn+VuPFIEyxqvO18V3MOV/rofLN3+801kDEoCHObFCbCCN2TcPl/MBnAEzw2bI+B7jd03nXpupCoH311Qx5Zfo0iYmJlf/N+Ma1S3xPAiRQjwlQoNXjyQ2moVkCDWOeoG67K4a0LHf4zy3dJ3D3ubsX4uFGFQGJWQVyy8g2ckLXUpeiJVqwmvJtFUp28VbeAyHebldrFlY1wooEa5JryVOxGI48Gm6KLzFolkBDc73U9fvk6A4S4m2HtY411vLSbNgtWrDEwSLnWizraLjmH/vvpBILoa/10PZqdVs/qRZSa7Up3MsD1M07RBcLHNmxqQrgENcuVMv72hZocKk+cP9k2bJls5xzzvlyw423Vss42AgJkEBgEKBAC4x5Yi8rIGAJNAictyZ0LfdLGkLo4i+3GuMU7o3VGDDXMktzgX2kOcFO7BopN+uqRKsg9uze+XHqchJ5Va1BVr4267qn1y/VVflfdVke1qaJTD3evUvRU12cr6pAe+i49oL8YJUp3gg0JBK+dc4u0+y/1Y3aQ+P3XAti5174bZ85/fnZPYzVsNL1ztF6NnG5Uy2u7+v8IJ4P1jurQICOVysprJuwmFZnSU1NlTlzvnU0efTRx0nnziUWQcfJKh6sW7dWpr34b0HsWW5ujolxO+74E2Xs2PF0b1aRLauTQKARoEALtBljf90SsARaN3VLPj+mk9t7rJNwm941L868RdwXCqxm5rXkRVcdiokp66axZM9rTJlVYLWBqxHJUVH36E7Npb9ab+Babd20rNCz6iHW7ecdGepKjTZuRuu8t69VFWgfa0B9RDmQbL4VAABAAElEQVSLHtz1wxuBhoUI12oMGsrjJ3YwLMwb2w+MG+OHqP3fuT2NO7Yy9SDMPleB5q7AfY2FFGsTc42b2IqxG6muVsQQBlrZsGGdTH95mqSnp0mabunUs2dvGT36ZBk3foKEhNSMZTDQGLG/JBAsBCjQgmWm6/k4LYHmzRfzMnVt/ltdnIj/wqrL8kq0ujKvccmnBXfl638mmvxe9rqIe8MiBHdWJGslI+K9sJqxsqUqAg3CDAKtssUbgQYhe/7/thhr5P3HtDOxf67PwWrX91YeMILWWgQBV+/5M0qsmBXVc83879q+9R6WtBnrkk0sH855EozW/f7+umvXDrn3njslMTFBLrjwErP/pr/3mf0jARKoPgIUaNXHki3VIQFLoGEV5x1Hti23J8he//BPe8yejJ8eiokqt4KHi0j5gHioFbq44U8NQLdiomBxg+XNXp79NV6QNuMiDdKv7L6WaKcqAs3X3Qe8EWjo2xW6aCIjv6hMvB6uoXwB0bQmWdppUP8rhxYJ4Ly39SB44T71pkCkXf3NdrNaFW7OszS1SiCXTz75QN5/722J1f03v/jfrEAeCvtOAiRQSQIUaJUExtv9k0BlBBpSaSB5Ksp/J/XwaVNvU9n2AwLlMd0WaZvuRzmxT7TJO2a7rPFsJSs4R2tKjJvcpMSw3+vuuC4EmhVvh300kYDWU7lv/m6z7dL4Xi3k6qGlec6s+7EFFAQsNii/zbb90r1ab4tu11RRPaTSQEoNb4u1t+bpuljkygoWi3jbJu4rKioybkerTrNmzaVRo7JpWKzr1fG6c+cOuerKi5lmozpgsg0SCDACFGgBNmHsrnsClRFoaAHJTmEBc12l6b51785aqxX7aDzaU5o1316QmPZ5dasiseobuul7ZVcaWqseEfiOeCxvwt+tVZy+WtCQzBbWKBTs/4l23BXLhYn9N6ePc97OCa7My9TChq2XXPOkWek3Kqp3n7pOkZLEKogXRDybp1JVd7Kndmt7FSf6wUS1nmaD50mg/hOgQKv/cxwUI6ysQLO2GUJ8E1Y4dop0toRgn8glcRmacLax2YjbgogFBthz0l06iYd/3mNWFWInA4gRe1FNIfcvUEuTbkB+ZMdmKgxbGxerdQ/co9hDcmKfKOtUmddLZm4zedi8TdBaVYGGDlhC9lyNrTunf7TblZGwHsIiiTFgxwJYEK3y9l/7Za7mlEMqDORAs2f+h+hEsloj4jzUgyh8S9OZ2LOPIF0JdkA4XlfY2s9jde78bWkm3g0C7gV1NXfRRSPVVSjQqosk2yEBEvCGAAWaN5R4j98TqKxAw4CQ+gEpIGCVwuICbOiNxLXY8gkJXDNVeDys4m2wLT3FYt1O6j+/J0j75mFmxSLiqpJ0JePqhBwTJ9ZYc309c3LHMoIPz9uu7s9H1Q0KQdNat5QarCk38IoVodhQPEMFy0flBPNbGfnRFoQlVo4ik8TA1hEmOS7O20t1CLRFOzPMJuNoF1tSYdwolw5qqdtqlYofWNHe14UAKMjx1qVFuGxS9yXGDGPXzS755MyN+sOyouEe13qYlzuPbCNHqKC1lwt0cQESBUP0ddXtqjqo5Q4MEVsIYY3i62pZ+3Ncj+tCoMGtOnbMCbrKuFi+nDlboqJKxa9r//ieBEigfhGgQKtf8xm0o/FFoAHWTzvS5ZPVSWa7Jzu8FvrlP0JF23kDYpzypCEu6/2/96slLM9sAG6vA9fmZYNbetzAG/ciLcTbuk0UFgxgA3GrwOU5VvfixCICTwUWKuxwgLQVB7ILjCUP93qz1RNclL4WuGe/3pAqcWl5AisViru8augXdmGAa9ResGgDizc8FXdzAOF6w+EluwS41kOOOiQZhjWylGDJXYiXw5ydoNY1iNfqLHUh0ND/886dKEha+9zzL8mwYYdX55DYFgmQgB8ToEDz48lh12qPAERFnG5eju90WKeQgLa8OCfEVMWrpS1F6zUJbSCt9H7U87bArbdXrT77dcup2CYh0l5drPZErN6244/3YRutnSrmkOgXKUlgnYRbtqLx7deYQGzTBeubp3g3+3iz1NWcqEI1JUfnQGP7kIcuRvc2LW/e7PUD5RiJa2fPnqUrOWPl5JPHSoyu6DziiKOkUyfneL9AGQ/7SQIk4B0BCjTvOPEuEiCBShKA6xcB+9gyC25i5DurSKRV8hFBcXtaWpq88fp0WbhwvhQWFpgx33//w3LyKWODYvwcJAkEKwEKtGCdeY6bBGqBAKxpTy/ZK2fo4gdsm8XiO4Hi4mKT5gNbTrVs2UqaNy/dI9b3VlmTBEjAXwlQoPnrzLBfJEACJEACJEACQUuAAi1op54DJwESIAESIAES8FcCFGj+OjPsFwmQAAmQAAmQQNASoEAL2qnnwEmABEiABEiABPyVAAWav84M+0UCJEACJEACJBC0BCjQgnbqOXASIAESIAESIAF/JUCB5q8zw36RAAmQAAmQAAkELQEKtKCdeg6cBEiABEiABEjAXwlQoPnrzLBfJEACJEACJEACQUuAAi1op54DJwESIAESIAES8FcCFGj+OjPsFwmQAAmQAAmQQNASoEAL2qnnwEmABEiABEiABPyVAAWav84M+1WjBNYk5sjejHxpHNpQjutSuun0P3o+3s35Gu1MNTeeV3RQvl6fItJA5PwBMZVq/Y89WfJPYrZTnajGoXJ2v2inc9XxZm9Ggaw59KxjdQ6a6Fyg7FH+a3UeUOznzQn+IAESIIEgIUCBFiQTzWE6E3h5WYIs2pkhLSNC5c3TuzouvqTnf3Fz3nFDAByk5xXJlbO2SwMVaDPO7VmpHn+46oB8szHVqU7HyEby0qmdnc5Vx5uF29Pl1eWJpqnXTusibZqGmeMFev61Q+df1/OtD52vjmdWpY3C4mJJyMyUhgq2XfNSUV+VNlmXBEiABDwRoEDzRIbn6zUBCjT301tYfFDwD2VTUq48umivUKCVsIrPyJCHf5ovkeHh8sLY8SUn+ZMESIAEaogABVoNgWWz/k2AAq3i+dlwIFceXLibAu0QKgq0ij8zvIMESKD6CFCgVR9LthRABCjQKp4sCjRnRhRozjz4jgRIoGYJUKDVLF+27qcEqirQ0jTO6/vNabI9JVeD2gtM/FSvmHA5s2+0NAkrCXa3D32GBu0fyCqQCX2iTAwT4q+wUKFAA/p7xzaWiw+LlaaNytbLKiiWlfFZ8ld8tsRnFkhqbpHEatxcZ40LG9GhqQxtG2F/jDl2jUGbvy1dVmgbu9MLpGtUIzmqYzMZ1alZmXquJyor0IrUNTp3a5psVMvbzrR8aaocukaFy+m9o6R985L4MvszqiMG7c03XpXc3JIFBYMGDZETR59sf0SVj1fui5c1CftMO9kFBfLn3j0SFhKiDDs5td0rtqUc6XLOuuGLtf9IXmGhTOzbX0I0fm1F/F6d+wTZk56mMZBN5ejOXWRkh47m9gKNc5uh96NcMHCQxhFqIKGtrNa+rNW6vfV5w9t3sF0pPVyp7eO+OG0fcXOdI6NkZMeOMrB1m9KbeEQCJOD3BCjQ/H6K2MGaIFAVgfb3vmyZ/keCEUv4/ozWVY4puYVyUEO32jYLk3uPbiedWzRy6vbkH+NUzOXJTSNay2drkiUlp1BCQxoYgYYb22m9aRqIH9bQ+Qv5nb/2y5wtaaYtPCtGnwXRlltYbM5N7BMtlwyKVdFn3pofdoF2tgpGiMNwfRaC23MO1YOQvFTrlVcqI9D2qXh88fd9sjU5zzQZ1ThEsvKLpUBFG1bKYtyuorA6BNpZZ46XdBUiKGeccZbcdvtkc1xdP75av1aF+KYKmztGRdblQ4a5ve/2ud8pi3yZesJJ8snqv2VLcpLTfZi6t7TvKLkq5G75/ltz/OaEM82cmTeHfnyzcb18u3GDjO7WQy48bJD9khGBn65eJb/t3mXOR4SFCaIJc1RY4hljevaSc/oPdKrDNyRAAv5LgALNf+eGPatBAsv3ZjmsPON6tnA8ydN564bErEK5de5OKVTLF1JPTOoXI+GhDfTL8aB8vPqAEVOwGj13Sicn0WQJtEYqlMb2aGHSX0Bw/bQjQz5fkySZKmYgYkZ3i7QeZV4/WZ0k2SrITu4eaURf6CEltl6tVC/+tk+SVejdMrKNnNC1dFWhJdDQAJ5x3bBWcpK2C4H22+5MwUpVLASYenwHOaxNE6fn2d94K9CwpuDOebskTq1mI9o3lWuHt5LYJqGC8z/tSJe3VuxXy5HIy+O6mFWz1jN2pObJn2oZRMEcwOKG4um8uejyo6YFGgSOUd76Ep+ZIY/8tMAsEnh+zDjnnihbiCB3xRJoh7VpI7tS0+S8gYdJj5gYTSsSplbNNJmjAvC2I0eZqlURaJ+s+ltXJm83K0yvVLHYLbokxQoE4VsrlusfBTlyw4gjZFi79u66yXMkQAJ+RoACzc8mhN3xbwLPLd0nv6vImaBuuyuGtHTqLCxoN36/UxLVlekqmiyB1kfdmU+dVOLOsirDojZjXbLJx3bbEd67oeC6fP3PRDmsdRO1zpS6u+wCDcLsRhV+9vLpP0kyU61qg1ScPaIizVPxVqDBwgdLX6+YxvKkjg1izF5gbfxZheiJXSPl5pHOfbHf58txTQs0e598jUGzBFp4aKg8MfoUiWrc2N6s07GvAg3uzMcX/aSiL1QeUUtdTBNn4b00bpe8v3KFuscj5JmTxzo9k29IgAT8kwAFmn/OC3vlhwSQAPbiL7cat9FbE7oaK5FrN2dpDrGPNJeYqxixBNrVQ1vJ+F6lFjvUh+CD8BugQusxm9Bybdv1PdyJ98yPkzbqHn1tfBfHZbtAe+zEDjKglfOX9S61dN3xwy5j4fv8nJ5lBJXVkLcC7b75u2Vzcq5AXNqT/lrtWP1EPjPkNavOMvPLLyQvv8St2qtXHzn88JHV2bxTW1UVaKf27C1n9x/g1KbrG18F2pfr1sjcLZvFk6sVsW33zJujltp8eeaUsfrZLRu76NoXvicBEqhbAhRodcufTw8gAnC93TUvzvS42aGAfljNUA69iGo4dXcWq3spXJ5XN6dVLIF23zHtjBvQOo9X7F4w9ec9xoU5bWzZhLDIuD97U6px/e3PLjQxaKh3UB+erw9EvNe7Z3TDKVPsAu1tFZIx6m60FyxMuECFJgqS9CJZr7virUC77Kttpk/YCSBEvZQWE7RpcYGbFuXjs7pLhJtFFOain/+oqkC7aeSRMqRtu3JH6atAe+2P3wULGrCAIaxhiavYepA1B1ioUKyTc7P2Y3AF/bDq8pUESKDuCFCg1R17PjnACCxTS9e/1dIVpj684e2altv7aBVN12jsl1UsgeYu7gurOR/xINDgGnxleYIRPYjrah8ZJs3CQkxsGUQPFiy0CA+R9ya6F2hf6E4Cri5H9OmSmdvMggG4W+F2dVe8EWiZ+UVy+dfbTfXBuqLU2q7JXXs4d+Phrd2uVvV0vz+dr6pAe/iE0dIp0tl66jo+XwXa1J8X6KrQdBX5USq4y7eOndKjp/SMKX+BiGu/+J4ESKD2CVCg1T5zPjFACazdn6OZ5PeYVYmfTupeqVH4ItAOqLXs5jm6IEGj7SFs4DZF0L9VkOn//gW7yxVoH6nFygq+t+rBwnXejC0miB9bOGGnAHfFG4EGi+GFM7aq5fCg/Fsthj3UclhfS1UF2uMaf9a2WfnpTSoSaF9vWCffbdpYZhXn80sXa3qTA3LugIEypkev+joFHBcJBBUBCrSgmm4OtioEkErjmm92mCb+O6mHWb3pbXu+CLQluzJlmqauGNYuQh48tuzKu8W7MuQ/vyeUK9DcCTDkcLtK9+pEKW8cWzTG7V6NcWulLtA31BXqqdyiIhJu2AeObVehZdFTG76eT01NkWKNr0JprMH3EZpXrKZKbQg05C27YfYsM4RXTjtD06OEOA3nw7//kiW7dpYRaB+vWql7yO6QsVVIpZGv8WkFBfmO5zVtWr6YdNzIAxIggRohQIFWI1jZaH0lcP3sHQLLlusqzYrG64tAsxYcIHUFYtdcy7O/xssfe7LKFWhYaYoVp/YCtylWVlYUtI+kuFd/UyLkEOOGWDd3xdpgHilCkCqkNkttruLM0MUId879XkI1xuu10yd6TKvhOn5rFac3FjTUvUPzpiGY/3FNutu2WWn6FFxDmo+9GellBBpEG8RbaxVVqIeUKpUt77z9hnz22cemWogKw3k//lLZJng/CZBANRKgQKtGmGyq/hOwrFoIrH/ouPYaU+TsHkQA/pK4DOke3Vi62JLV+iLQ/tRcbU8vidcYsgaCVaN2gWT1A8TLi0GDCHvqpA4mmS7uRZLbh3R/TazkvFLFG7L8l1csQXpu/xhNchqt4qTsF7+VGw47Cdw9qp1mxXe2YqkXVFZrrBxWwbpeK+/Z3lyrTYGG/iCJLNyQ1+lq0REeMvm79ruyAu3ZJb+YZLZIRnu+5kyzxNavKsI+UBGG4pqoFsH/j/28UHe1SJdT1Yp2Vr8BjnpWfxCjtilJVxh3c++ep0CzSPGVBPyDAAWaf8wDexFABF7QBLFL4zKNWIHg6KRCDIlrseUTAv4ROP+wijcEzVvFF4GGLPx36w4ESACLVaMj2jfTJKRh+iWbq1sOZZmYNCSC9STQIKU6qIDErgPY3gniCik9sGUUdjx4cUznCt20i3ZmCHZdQMFqUGvLpksHtdRA89J4M2x79d7f+81iBiS/7akCtbEm8IXrc6P2FzsNTNLEvtjSqjpLbQs0+84CyDXWXZPBQkD1adlKU4x0dTu0ygq033fHybt//WnaitF0GIerEEzIyjTiqrcG96/SbZxcBRpu3pqcrHO1VBMbF+g8RUrfli1V1DeRpOxs2aV50ranJGuMYIzcd+zxbvtpF2ihmk/th3mL3N7HkyRAArVDgAKtdjjzKfWMAIQRsvzDDWgvEEvYI/O8ATFOedJ8EWhoF8Lm1eWJsk4XKFgFYu0ctWhhH87b5u7yLNBUoSHNxhO/xJsUHVb9gZpv7a6j2mpGfPcuS+s+6xW7D3y9IVWFYp6xguE8rIeu+4BCOL7x537doaEkL5lVH7snDNG+Yluqvi3drxi17q3sa20LNMSI/bR9mwr0XbqLQ7YRQ+izp/xjuFZZgQZr2EzdYuoHzWtmlWgVg1cNHW5EmqetnnBvqu5Lih0F/tH9OtGOVbCnZ08VZ8eoiBzVqbN12ul16iMPyOLFJaLsmGOOl0cfe8rpOt+QAAnULgEKtNrlzafVMwIQaHHp+SYeCW7PNupS9CH8p0IqCbo7wT61RrXS9mFFg3WsMgVxc/Fav4tulu6tMKtM+/Z7c9SNCiZIA4KN3cEEIo2lcgQy8vJ0K6h0k/2/dVNnt3FFLUFIJmRmqojMkRaNw82m7Nib01NBTr1JZ51m9jWFmHv77Q+lW/cenm7neRIggVogQIFWC5D5CBIgARLwZwJbt26R66693HTxRF1k8NBDj/pzd9k3EggKAhRoQTHNHCQJkAAJeCbw5Yz/k9dee1ka6grV997/VDp5cIN6boFXSIAEqpsABVp1E2V7JEACJBBgBN577y1Z+dcKGTJkmFx9zfUB1nt2lwTqJwEKtPo5rxwVCZAACZAACZBAABOgQAvgyWPXSYAESIAESIAE6icBCrT6Oa8cFQmQAAmQAAmQQAAToEAL4Mlj10mABEiABEiABOonAQq0+jmvHBUJkAAJkAAJkEAAE6BAC+DJY9dJgARIgARIgATqJwEKtPo5rxwVCZAACZAACZBAABOgQAvgyWPXSYAESIAESIAE6icBCrT6Oa8cFQmQAAmQAAmQQAAToEAL4Mlj10mABEiABEiABOonAQq0+jmvHBUJkAAJkAAJkEAAE6BAC+DJY9dJgARIgARIgATqJwEKtPo5rxxVBQTWJObI3ox8aRzaUI7r0txx9z96Pt7NeccNPKg3BA7qSLLziyWiUUNpUG9GxYEEGoG9GQWyJjHbdPtY/b+oif6fhLJH/x9aq/8fodjPmxN+8uPgwYPSoAF/e2pqOijQaoos2/VrAi8vS5BFOzOkZUSovHl6V0dfX9Lzv7g577ihjg4Kig+qoCyQEP2/sGNko3J78fmaZPlrX5bTPRFhDaV1RJh0iWokJ3drIeGhwfmfqmKUH7amyTz9F59ZIAVFByWsYQNp0yxMhraNMF+EPaLDndhZbyozB1adunjNzC+SpJwiaapzjs93eWVjUq68u3K/0y2QqzFNQqR10zAZ3r6pHNa6idN1vqmYQGXmYOH2dHl1eaJp9LXTukgb5Y6yQM+/duj863oe8+EPZVtKsizYtlW2JCdJVn6+dI+JkSFt28nobj38oXv1qg8UaPVqOjkYbwkEmkDbnZ4vt83dJVGNQ+TdM7qVO0xLZHq6CW3cPLKNESSe7qmP5yGwpizcI5uTc83wQlWYdWnRSA5kF0paXpE5d7xaMG49oo3b4VdmDtw2UEsnIUDfWrFfju7UTO48qm25T125L1ue+GVvufcMUeF6z6h2QSvqy4Xj4WJl5iCQBNrGA/tl+rLfJK+oSL0PoRIZHi6JWSV/DJ7UvYecP3AQrdEePhO+nKZA84Ua6wQ8gWAQaKP0C/r64a3MXMWr9e2PvVmyZFem/odaIM0ahciLYztJbJPyLSwBP9G2Abz/9wGZvSlV2qq17LJBsTJIhYflTkrOKZTvNqdJbmGxXDushJmtqjmszwINXqoPJpYIf1gZ96toXayW5O82pwrej+3RQq479Fly5cL3ZQnUR4GWW1gok+fNkTx9hRg7d8BAteg3lE1JB+Q/vy9Va3SRXDl0uIzq1LksEJ7xiQAFmk/YWCnQCQSDQENs3W0u1qAkFSK3zdklOSpELjosVs7uFx3oU+l1/y//eptkaszZk6M7St+Wjd3WQ1yaJ+dvfRdoM87tWYbJZ/8kyYz1KYbJx5O6OwRtmRt5wolAfRRoi3fukI9WrZR2zZvL1BNOkoa22LOXVKCtSUyQXrGxcs/Rxzmx4BvfCVCg+c6ONQOYQHUItAS1RM3bmi670vJMfBisUp3VZXZy90jpE+ssALIKimVlfJb8FZ9tYp9Sc4skVuODOms82YgOTd26G//Yg/tL3AeovzQuUxppEBrccPbSr1UTp3OWi9OdQEO9qYv2yD8JOXJM52Zyx5HOLrDErEJZoc9cnZBtrCjZ+tz2anHq3CJcY0yau41/25GaJ3O3pOl/3GEysU+0/LQjXf5W19m2lDwTTwMeR3ZsZu+y0zECoRdqnS3JeSZmaqDGPKGdWRtTJE05ndY7Slq5iaWCW/J7tXptT8nVgOoC86xeMeFyZt9oaaLxV/YCN+b1s3eYU5+cpULD5br9Xvuxr3OANnyZc+vZsOh9sTZZIsJC5LLBseYz8/vuTP0MZQs+O4glPEO59Dr0OftqQ4okaEwdyu70All/IMdYCl3jx07qFumog3stFye+a90JNASq36qCHuWZkzo61cW5IjWvzVWX6sYDubIzLd/EvXWNCpfTtW/t9fPgqUDAbNfPBz6jfVs2kWV7SsaGfjfX3yP8TozvFSXhCLp0KZX5vbOq4lk/7cgQfFZTcgulk/7eDWoTYSyDNp1h3W5E6QH9/Z7QJ8oIEbghsbAIMYu9lfnF+sdNU11cYi++zkF1uDi/++4b2bJ5k+lOTEysXHrZlfauVcvxs0t+MXFn43v1lrP6DXC0uTphn3F7WieePGmMxss1td7ytQoEKNCqAI9VA5dAVQUaBMlHq5PU3F9sIESrqzBdBQO+sFBeHNNJv0RLg83f+Wu/zNE6KPhCiGkcar7A4VJDgSC5RN1uGhblKJ+q9WKmWi8qKvjSvXFEa8dtFQm0e36Mk636hTVSvwTvPbqdox4Obv9hl8TpFy0KgudbaLwaBEGhjitcV5fdeHgrFXbOAnG5uk6fWRIv/fSLdoCKqxnrks0Xa55+mVnlJu3faO2na0Eg9Jt/7pciXQ2GmLDGungBVi7cu0G/rLEw4mkVBvhStBcIwOl/JJi+gWe08sQXrzZjhAnGBbFsFczNlbO2m7eIy0J8ljfF1zlA277MudUniJ07dS4QL/jsyZ3kbp0zjMFeIGQfPaGDOfXAgt2CgP+KCiyq9lXLFQk0zP3V35Rwe+i49k5/SOxTQfji7/tkqwprFPQ1S+cOsX5YHY05h5vdXXlu6T6B4IQLfl9moRHjrvc9fmIH6a9/fNhLZX/vUBdC/7//JJvPMD7TEFYYF8pgFWmTR7VVIewstiYrb4g6jOEzXXSTooI5VMUiBBpKO/2jZdqpnc3viDmhP3ydg+oQaI9OfVB++eVn05XOXbrK++9/anWr2l5vnP2Nzm2R3HHU0TovJf/fIBbtkYXzJV/Po2Tk5cn1h4+Uw9uXfC6r7eFB2hAFWpBOfLAPG6LC+ot/XM8WDhyezjtu0ANYwZ5cvNeIqXP7x8hp+pc+/tOHOIPweU9jnf6lXzywJFjlExVzsEbBmgThADGCsl4tDy/+tk9gMblFA/dP6FoqfsxXQcn3gexWS8bthxYJvDOhm9Vsyas2VdJaydvyBBoEzy1zdpobzxsQI+frP3t5XAPGYZE7Tq1rrXTVJ8QPNOfPauF67c9DK83GO68oswQarHuR4SFyp1rleqsLcZt+cf9PxRquYwXaq1rv0LDNIxHndNN3O404u1AtEhPVWgEusN499+s+44bFja4CDVa+W+fulEL9soSLdlK/GBPAnld4UD5efcAIYbB/7pROTs+7+fudxhKFGDTEmcGCYu+PnYN17OscoL4vc2491xJosCahvyiw2sByBrG8QT83sOhYcWH2fsI69bb+QQBxhLmwF1drUUUC7U+du6dVfKO8oaudLUsmPhN3zisR8yN0pee1+nlHPCPOw4KKRQowfr08rovblaSWQBvWLsJYc88fGCNoB1ZlWAJ/3Jaun8Hm0sfmivbl9w4xl9NURGJFK/o4qlNz0y9YVPF7sm5/juD3/xqXuENLoOEzjfg7/J6AHaxwn69JMn9EuP7R4escwKr3p/6fgoK+oK8ons6biy4/alqg5RQWyK3fzzZPfezEk42bE2/+t3aNehE2y3UqyuaqBW9XWqpceNggruh0mR9f31Kg+UqO9YKSAL4csZoS1gNPMVyw4uC+MHxDeVHm65fR6yp+4I6aesgi4lqtMvFP7gQa+oM2PlqVJKtUAEFITR/X2SwWcH2Wp/f/+T1BFu/KkAv0yxTC1CqWQMP7h9XKMliD762So6IUFhhY0yDQLLGB65aFyZ0lD8H8COpHcRVo1pf7BHWjXTGkpbnH+gH2N6oQw0IIV8EL4ffk4ngzN7gfDAaoGMUqxSM7Nq2QRWXmwOqPp9eK5twSaKjfK6axxs11kJCK1OShh1Um/qk8gYbPOFZ4Ih0J5u0VnT/rEw1rMObP9E0tnK4fdVg3f1Yxc2LXSF0xXGrdtXhYc4j39x3Tzogz65q7V19+7/L1M4c/RiDG7tdnHK4C0F7gKr1JPysY03QVkvbPpiXQEKrwlI7PXmBRg5XYUwgB7q3MHNjb9vW4pgVaQmamPLTwR9O958aMU2tpYyPGnlSr3cDWbeSWI47SPzSXyPr9+9U13UddoP19HQrr2QhQoNlg8JAEKiKAWJsHFu42LhFYsqojnxhcRPfMjzO5uF7TL0F3pTLiwBJo+D63vtTxBQfxAtE4RC1HV6vFwLKGuHueu3OzNqaqwDtg3I+wHljFEmiw9nxwZjfrtOP1DnXV7VKX3WPqsoIgsgq+HCEC7lF35BHqbrUXu0vSLtAg9C7+cqvoUOStCV3drkK1+ulOHOxUa8X7OgbEvSkSRwGn8Wq9gJvZsm46Lh46qMwcuNZ1fV/RnNsFmqtr0bUt1/eVEQcOgaaNnHjIBV2sHxRYNzfpZx3uSliOnjjReWHFffN3m3Qlri5Tqy/W+GA5RQ4v12IJNMTQIbatouLL751lcYPwwh8H7spTaglfodYrVzFvCbSrh7ZSwVFqYUcbcM2i/3DnP+bhD6rKzIG7flX23BKND4uL22mqRUa2kNNOO6OyTZR7/9bkZA1jWGTueWX8BI2FDZGnFi/S398MeVQtajFNmsjry5epd2GvCteucungoeW2x4veEaBA844T7yIBQwDum1f+SDQxURAOlSlwL8IyBNcFvgARRI6CbNz4a7+8HGeVEQeWQIN7pqmKJrRvxdx00WD/q4e1dBJKrmPAbgpWItck7acVSwYXLoSe6+ICS6B10wSvz6tb0bU89NMe/cs6R3NptZUjDi0WgDa6YMZW0960sZ2d4sWs+hfP3GbSXtgFGtjdNS/O3NLsUJA2hCfKoRd1mYqJDfTUH9yLBQZYgLE2MdcsirDiu9xZ83A/SmXmoKSGmBg6X+bcLtA+1kUNrjFSVvvuXisjDiyB5q4dCHzEaMG1Cpb2ctlX28znF2lKQtQjZ80B7rHmAS59FHf9twQaFhNc6WIFNZVcfvjye4cUIe+tPKDWvQa6KKSB2z5CgCKuzNUaawk0d9Y9/H5M/XmP+czis+uuVGYO3NX3t3N70tN1zAtMt14YO16W79mtrt7V6s4crH+wdTfnrZWcY3v2knP6D/S3IQRkfyjQAnLa2Om6ImC5NxDfc1cFSUDtfYS755XlCeZLArE67SPDpJmu0IN1Al9kCHpvoS639w7lorLXxXFlxIEl0OwuGMS4IR7nI43R0keav/wRa+ZakNEcQcso2LGgddNQE/CN93B1IXDadeyWQMMigSfUFedapqhAQ6yPXaDZLWRIvAtx6lpu0Pg0uCrtAm2ZWi/+rdYLWAKHt3O2urnWj9Y2XWOLXO/Be/2ONi6r/9NVkyjugtNxvjJzgPurMueWQIMwg8CpTKmMOLAEGj6H/9/eeYBHVaVv/JMAgQCBBELvRQRROlZAUBQQLMi6NmwgIio2UBBBV10bgovoWnbXv666WFmwIiCKIIqsjY70TmgBQhJSgP/3nnCSm8mdSSZlSuY9zwMzuXPvPef8zkzmzdeOTThQvSVIeoGF1Vpgnf2jSv5NMzeZQ3Bn21pyznOcz0d2qZ0v49EKtFs71jIxnM7z3Z4X5XOHHRKQ5YvdFFqqm9hXO7NOZRNrZs+xAu2xng3kDH3N2RD792iECbTkjHS5f/YXBsO9miTwqlrL6leLVfd0D/0dht8oGoqgFjXsMgBxBpHGVnwCFGjFZ8g7RBABGxsFy8LEnvULNXPEwNylsTCwPuHLCq63k7/TzPV/aPbdOM3CK02BZgdqsxIbaaLClIsb5wmSRxmPyZqwgNis8d3r65daXqsJyggg8L0kBBqsXNd8tN6II8T/uJVksHXLnAJtpQq9iSr4kCX4rtblKqkGkYZYOQhHuDmv1FIdns0fgVbcNbcCzZdV1XN89ueiCjS3Mhv2ns5HrN21av1E5u1zajH1tjWW8xrP51agIYvzYg3CL6gV5XOHMiUQ3Yg9QwyaP40CLS8tWOFHfDZLP68nVPBW0Yxp/Rz27GVEmj1z/Ndz9Q+qI2qh76Ixnfkt6fY8PhaeAAVa4VnxTBLIyeDE3o3e4sU8MdlMMmSsQfh4NgTeIwA/EAINBWpHqmUKQgTB2xCLtr328x5T122IChTUEvNsSGRAcHtJCDTcG3XJIGQgdCF4nQ0ZmdfN2GAOOQUaSmkM+2SzOf6fQS1KJAbQ9mstj97cbv4ItOKueSgLNPBC8D1c9g93r1egJdPydT76K9BsPJl/n7tkzeBMlBb6h8ZzWqrEnxZuAu2IBvFnqJULLSqqvFSvXrDo9YcHzrUCDM8HnHqaXH5aGzw1DRa2B9TCptpdxnXvKc3jcpOITp5iHtLSNPbzZEkOjLOSJhuweSdAgeadDV8hgXwE4CocgdIQanJxc3/ku0AP2KB1lBFATItne/b7XYKCqL4EmnUJIoD9vcEtcrLpPO+Fn63QcLo4nedZSxiCp1EGwWbg2YBpZEYiJsfZECOHoH7Mv6QEGsqLfK9WO886bugXG9ZjHmhOgYafrbDzDOzGa74a4qSclkvPcx/RfTpRKBWlK1BawbP5swbFXfPiCDRrCS2Mldfp4iysBQ1c7HsM9eqcCSOezLz97K9AK8rnDi55CEls/v6iZiw7szS9jcseL65A82cNbJ/FeSztLE6M7dO1a+STtau1kLAK3ov7ajINnOHZbcn2bZrV+z9J0AK1KFSb7fS0r+Y+3n3XcFm1aqU50KlzV5k06W+5L/JZPgIUaPmQ8AAJ+CaAUhUofokYLbhOPH/xw3rSqma0qWyPO9laUghWRuahM97KWlpwni+Bhtdv0KB5WMAKKrRqvzy9CTTEvEHk4NFpRXtLsxs/0UxN1GlzBj/D/feGxvPYQrslJdCw0wAKsCKeDJtxw8KIhu2oELdmK+N7CjTLDLFFyHBEVXhnQ9D3om3J+ld8JbMZun0NRXhRfb+nWg2tKMVrSIKYt/GQCSiHgJusbjtnkWF7PR4LuwbFXfPiCDTU4kMxYriBJ2vBZM/3p3M+RRVothYd/lAZo2uH5ApngyVlmcZVgq3nazjPX4GGa/z93OEaaxWGWL3/nDr5SqkgeWaexlzCpe18TxRXoPmzBhhncVsgBNr+1FQZN+8rYyVz7rl5JCNDnlgwX/94S1PLe1vd+aO11+lQoHlF4/oCBZorFh4kAe8EIJJgbUFGIbYMgmUMYu2gut/WacmMdRpThi9GW6gWmWIQIqjQj8zDrvWrmm2REHuGL3K4GZGlVpBAs/FjGBnECarrI9OuXe0Y6aMFcG0rSKDhPHsvfHkjBgz3gcUB1ethLUN5hHM041K/4+U3rR+2XcfeWecJy0BJCTSMw25gjv4hqGKjy5nivW20QClcaCjD4SnQcB1i5TAWWBQhABBTh8K12PIJQdwIZPesyYasUawFYuyaasHXBtUqmjkjrs1WiB+khW+RteitWW543dcaFHfNiyPQMDaUgkFpCjS8DxtqUgpa35Y1dMeHXLdSUQUa7oUA/Dd+22sSXxBI31LXDztBYN2wqwHWzhvPogg0fz93GGOyvg/Gf71D3xcZ5g+jTppYgnhHbCG2TesC4r2C2ND31SrtLK9SXIGGvgu7Bji3uC0QAg1jtFa0KLWena67CdSMidEEp12600Kavs/izC4DMRWy32tuc6JAc6Pi/RgFmnc2fIUEvBLAL/UPVyXJp1o2w273hJOR9QZhM0xLWaAumG34skKGJLIZbYNYG6wFXztqJhyK3xYk0NAnrFjIDtyXmmmqmeNeni7Cwgg0WA5GfL7ZCBOnq/B3tXq8qlXgkT1pG4TIKN3lAF9otkK9M4O1KFmc9t54xJzmYk/Tw+lmyyZk1KHSP8ppgNsULWXQRAWYZ4OoRdKCLSFiXwdH7OWInRKQMWsb3I6oYQUBDQuPsyFjEedfoGIZYtFbK+wa4PrirHlxBRrKiHyoAfLLdM9VvFdsqRTPumXFEWiYI/7IeFW36tqi+9E6G0q8oAAwtjBz25i+KAIN9/f3c4drIL6na/V/bBNlOeA4Wn0V6ShSfF27mnnc3yUh0Aq7BtkjKd7/gRJoGOVX69epOF+rFvjs3xEQa20TEjQ0oJsK9NzPm+eMkGhw1aBL5dCh7C3v7rzrXhk06E+ep/FnBwEKNAcMPiUBfwngi36vihlYDbDdE37h261a3O6F6uW79dwEtVBhc3EfWsDt8oAcg9sKlijE/WBrIexzGYiGL1Ln7gvXaUFafKEiWxPuOm8NAg3iESwhJusoW1+xZtgvco+KlqS0Y8YCilIi2BvV1zXe+i7M8XBY88LMw9c52DECawC3ObZrwhpApJVW8/dzh3EgBhHrjs9qjL6fErDuDgFfWmMti/cF/93JyWqhTDeWMxSuLaht3Lhebht2kzktQa1vb7/zgVTwYW0r6H6R8DoFWiSsMudIAmFGYJO6j0erBQ0WMMTtsZEACYQ3gRkffyAvvzzVTOK++8bIgIFXhPeEAjB6CrQAQGYXJEAC7gRQswuxYNg2x9pb4BrCZunIqCxsIVP3u/MoCZBAqBCYMGGsLP5+odStV1/eemu6lPfhDg2VMQd7HBRowV4B9k8CEUzgr7oXImpcIV4Puysc092Btmk8E1ybyLwb372eazX7CEbGqZNAWBJ4eNxoQb22qwZfLT179g7LOQR60BRogSbO/kiABHII/Kz7YSIbc1NShu6PmWVizZARi8zYCzUz1VrVci7gExIgARKIEAIUaBGy0JwmCZAACZAACZBA+BCgQAufteJISYAESIAESIAEIoQABVqELDSnSQIkQAIkQAIkED4EKNDCZ604UhIgARIgARIggQghQIEWIQvNaZIACZAACZAACYQPAQq08FkrjpQESIAESIAESCBCCFCgRchCc5okQAIkQAIkQALhQ4ACLXzWiiMlARIgARIgARKIEAIUaBGy0JwmCZAACZAACZBA+BCgQAufteJISYAESIAESIAEIoQABVqELDSnmZfAij1psjM5w2wt1KNJtZwXl+vxXS7Hc07gExIoAQJbD2XID7rFVd1qFaSn4/1XArfmLUqAwHdbkuVo1nGpX62itKtdOeeO3o7nnBDEJ6mZmRJdPkqiTinn9yhOnDghp5zCjdX8BlfKF1CglTJg3j40Cby4JFEW6C/hWjHl5bUBTXMGOVWP45ew5/GcE4L0JPP4CRWUmfrLVwR7Vfpq7604IL/sTslzSkyFclI7poI0qVFRLmpWXX+RR94v4y/XH5JvNh/Ow8Xth8tOjZPzG1d1e6nEji3aekRe+HG3dKgbIxN61M+5b5au88Pzt+f8bJ/E6mbytatUkFNrVhL8QVEu8pbPoijSoz+fH3Rw+2ebZV9qlhHPo86qk9Pn8E83y/60LLmgaTW5u1vu8ZwTAvhk66GD+rtqs2w4cEB2H0mWrOPH9X1xisRXjpGO9epJ/1atpWpF778rDqUflU/XrpH1+/dLYsoR/b1SXVrXqiUDW7eR6KioAM6EXXkjQIHmjQyPl2kC4SbQth/OkHtmb5UalaLkX5c187k2VmR6Own3uEu/XDqqOIik9s6y/fLfNUkFTvnWjrXk0lY1CjyvOCd4E2iZx07INR9v8HnrBmrVGXNeXWlUgFD3eZMIe9Gfzw/QhINAm7NhnXy4coVZyYoqqGpUqixJR9Mk89gxcwzi7JEevaRmTP7PeVJamkz+YZEkHjkiUeXKSZ0qVWWXijxY0lrG15R7zj5XvQvlzX34X/AIUKAFjz17DiKBSBBo5zaqKrd3TjCUd6n17aedKQJhsCclU/+yjpIplzSSmpUj55ewFWin1aok951d1+u7r2rFcsb17fWEEnihMAJtfPf6ajGLNr0dPHpM4H6HdfRIxjFpWiNanr2ooZSnKa1Qq1EWBdryxETZm5oi7evUzRFhGSrOVu/dKzPXrJLthw9Ji7h4Gdu9Zz5Gk75fKH/s32deH6ViLKZCBTl49Kjg+B61pp3bqLHc0rFzvut4ILAEKNACy5u9hQiBSBBocIXd43DPAD3cM/d8uVXSNL7mujNqylVt4kJkRUp/GFagnaExRY9d0KD0O/TRQ2EE2pO9GkibhNz4J9zu98RUeXzBTnPncefXky71q/johS9ZAmVRoNm5uT1uSkqSpxZ+a16a2m+AEWD2PAiw8V/PNe7Qpy+6RF2iue+x2ev/kI9XrRRY5CZf0p9WNAstSI8UaEECz26DS6AkBFqiWqLmbDgsWw+lm/gwWKUaV9cYr+ax0lpjhZwtJfO4/LorRX7ZlaquhEz9a/WY/tVbXhqrm6prgyqu7safduD87FgyXL9Yg8orahCaZ1A5vsSdx6yL002gYUyPLdghyxPTTJyVpyVpT0qW/Kx9LlMhsFdjcFK13/pVK+i8oqV3s2qu8W+bD6bLbI3vqqcB75e3jjNxXr/tTpWNSenqOqlgeJzd0HtM10q1DM3X2LD1B9JN7B+CsnGfWWuT5JByuvTUGpKgrDzbofRj8sW6Q7Ip6ajsUAsh+moVHy1XnBYnlTXmzrMVVaB9tDpJ9ulaD2xdw3ypzd90WJBkAnckYsKuV6FbRa1ubi1Dz5mpbtXV+9LkQNoxgfUO74/EI1muMWhOF6ebQEMfQz/ZZN4/N5xZU67UuXq2Jfq++VmtpVgXxF41U2tbdxXrvlzamM+ircnq3soe3+p9R2Wp3geCEOFuGDe4IjbTsyGY3qyD9ofkBxj1EFyPOL5uDaqauEnPa/xdO7z38Z7srIIU7w+83/C+wfsVcZWD28ZLE/3sOVtRPz+4R3FdnL///qt8+83XOcMZfvudUtkhhHJeKKUnR7Oy5O4vPjV3/0uvC3U9YnN6gnXt8z/W5rOuwYI2Yf5cTY7IMufe1KGTrmGTnOv4JPAEKNACz5w9hgCB4go0fEH8W2Oa0vXLCS1OXYWHVTAc0y9EtCkXN9Ivjmz3FH7+5y97BUHqaEiWiq9UXiC68OWGBkGCL1ynx+rd5ftlhoqDgtqFzWJlZNfaOacVJNAenLtNNqh46qbC8KHz6uVchyf3frVVtumXLFoFHUx1jVeDmETwenT5cjKyS4L+0s7NesV5S1UMPLNol7SpVVlO1y/Pj1Yd0CDjUyRdxYltd+r4eus4PdvXKnZe+99eOaaxL3DXVdLkhSMZx825a1TUIDHi6QsbGiHkvBYCcNpPiWZs4BmnPJOOZmkMjUhdFZSYF8SysxVVoI1WXpuUF+YwXV2MSWqFLK/zg5hCq6f9vdC3seHl7A8i5KmFu1R4HjWHq0dHmfdIJeUIFp+vO5gvSaAwAm2UWkB3aKYxxBneM7bhvfT6z3tN8guOVVGRihFCZENkXabvsRvb556Pc2yDwPrXr3uNqIKwf1rHnbt62Wf9uV28XK1CyNlW7k2Tl37aY9zmOI4/UvAZgIUWzS2eryhr9+Zv++TTPw6az8nGg0fNHxjO9xjem3ifOEVaUT8/GHdxBdrM/34k06a9gFuZ9vGMz6RGjfxi2r5e0o9r9u2VyYsXGdfnM2olc7apPy7WPzASTRLBlW3a5rz06tIl+gfhTiPmdiQflguaNpPrz+yQ8zqfBJ4ABVrgmbPHECAAUbFFhQi+xPq1rJ4zIm/Hc07QJ7CC/XXhTiOm/qRfWAgohwUFX0wQPm/ol8kIjf1CnJBtEAf4ooT1BMLBxg7BUjHlh91qXdG/eDVwH9lhtpkvyJPfktv1C/nek0kC/xzYzJ6S/ajfvvgCts2XQIPgufvLLebUq0+Plz/rP2d74rudxq3WQ60fCZr1CfEDzfmtWrj+/r895tS/929iMgrtdVagwboXqyLkfo3vOlUtLhvVIvahijW8jgzEl/U61WA5DRa6Oz/fYsTZtWqFulwtVOACS8mk73fnfMl7CjRYTUbN3iJZKpDgoh3UJt5kpaZnnZC3l+0zQhjsJ/VplKc/K9CQBevLtXuOWvsq6FxsswIN87ukRXXDDFy+2ZysMWH7jaB0E6B/X7pHIEAb6XrDHQkLH+LH8MfBz/oeQvPM4ixIoOH6Wz/ZbN5rnu+X137eYyy6mN9dKiZbnbTi4j32gr7H4N4ec25dcbNmWoEGiyDKz8B12lc/Fw3VEgahiTXE2jg/KxDud32xxazTWSr2b+2YYCxseMsmqpX4g5UHpIVaNJ0JF0VdOyvQsAYYI+aO+EmMa7quASx3npmVRf38YF3wxxT+gILg6+pwI4NTqorPpnrcl3s5WAJtT0qKEV9fqavygCYCXHFaW7VAt8aUctrjC+brH2GHVHy1V2bNzfFlibtl2pIfpKeKMrg3525YL53q1Zc7up6Vcx2fBJ4ABVrgmbPHMCYASxKyKXfrF5C3GC5YcXCe80ve15TnbTwsr6j48RUb5U8MjZtAw3hwj3//vt+4rSCkpvVrbCwevsbmfO1vPybKQnWDXaOWFAhT26xAw88TtWREe0d2aJp+ycElB2saBBqsW7ZZq6KbJe8ztZb8nwpdNE+BNmnxbvlx+xEZqK7PmzvUsrczj2A/UkUDEiE8BYwVaHkucPkBWbLIdLXNCjS4rZ9SK42zwaIGi6GnOxmC+w4Vn+D+wiWN81jz4PYcpkwgAPwRaGD5oloN4bqDWJqqVjvLE+5MjDNGLUlTtD9PVyTKi8DSBaH8yqVNnFMwz61Aww9uXPNdoAdgwfxWRSrWG+vu1iCanSVdirp2VqDBUvb6gCZ53rdw18NtH6+C7R8Dm7oNw7z3C5sF7XoDPw8GUqDBJfnw13P0D6kTkpKRbf2uV62afk7PlLYJuZZ1O4XRc77U0IGjMqxzFzmrQSP9bB6TifPn6fXH5YnefeTrjRtMkkELzeYce34Pexkfg0CAAi0I0Nll+BJYq9YI1KlCXTFYspxfPkWd1Qa1ND04b5vUUfEC65RbK4pA0+9wTaHPtgRBKEC8QDR2qBMjQzsluMZ1ufVtj81ae1AF3j7jnoPFyDYr0Kqpe+vNK5rZwzmP96nbFBaOxzXo/XRH0PudKqQgdB9UdyQsMM4Gd/EtszaZQ06BBqF3vZah0KnI6/pl7JaFasfZq2mslhPJHacVaBAvsJJ5a3DlVVYhYJsVaEPVQtS/Va61Fa9DKEJ0wLX7uCPxALX0IJSbaOwesmU9GwQ5hLkvgdapXowKxeyYr4PqvkWMHrigecafva0WWsS6ebq7bb+wzN2mNbyS1QL3qtb984zpswINbkNwhavSV8N76doZG4yb98neDdW9nTfm0u3a4qydFWiw/sEK6GyY080zNxlr6fuDW+axmtrz/Pn82GuK8/iHxnj9/PNPObcYNOhPEh1dMKOcC/x4AoE2+qsvBE5lW2KjUfXqMkTdk800i9Ozjfhsllpgj8vdZ50jZ2oG6AcrlxuL2chuZ2ucYj2Zv2mDTF++TH8fVZUnVbCxBY8ABVrw2LPnMCRgLRFws0A4+NPgXoRlCNYOuPdgQUFD7SFYVXzVOPPnC8Za0OAOqqJftLg/3FFoEAxDO9XKI5TMC47/UM5hzoZDJplhv47TxpLBhQuhh+BvZ3KBFWjN4qLleXUrerZHvtmhqf9p8qB+sZ51UhhBYF3z0QZXC5O9/voZG02MnlOggd0Dc7aZU1AOAw1iwTxmP6jLVExsoOd4rEDzZak8eYs8D1agjVU3pdPdhZPA6rFvdxgLGSxltiF2EDFQboIC5yABAtZMXwLN3sv5CPf4Ne1q5hO0z36/y1jWsOb4Z5ng2pN4lMkJ4052m4cVaEgoeF7jJwtqcFXe8flm41qfflWLQlmLi7N2VqC5Wfcw18EfrjdDfkv/QHATl/58fgqaeyi/Dgvaao0/+0jrox3QmmgXNW8hV59+Rp4h3zf7c3W1Z8jwLt3U7V5F/vrdt0aYjTjpzpy9fp1mcq7QEI04Gd/jgjzX8ofAEqBACyxv9hbmBKxLCzXGHjgn71/yvqYGV9BLSxPNFyesPvVjK0jVClEmxguxaQicRhD5G5fnt0Dhvv58wViB5nS7weWG0g7/1hgt2NRg7fEs4YB+Xta4KWQpoiGWqXaV8jk1wZB9imB5z7lbgYYkgSd75y9fMUEF2ioPgea0kHm6FE3n+h9chHBVOgXaErVYPacWK1gCO9fLa3Wz19nHOHVTDlNLoW3FFWiP9WwgZ9TJLUmA+yL78VEXgfYPTQpBIgli1oafrEVnx4FHvB/gIvQl0GCxQ4YiGlzS2AnCm8XWWimbq0iGG9NXG6CuYU+LlxVobu5mt3tZt6Kv96zndcVZOyvQkK15rVo4nQ0CdPAHFGhOJru1AO0TGmuGumhjzuuucXu5oQATv5mn29kly7VntNfM8C2yV+PWHu91kSYEZVv4ZqxeKV+u+8NY12BlYwseAQq04LFnz2FIwMZGtVc34cSe7nE3ntPCljF3aWA+rE8ju9QWuN4QZG7bH/uPyrivt5eqQLN92cw2BK5PubhxHncQShlMieslxQAALo9JREFU1mByiAEUSW2pAd7Ohir8EDklIdBg5brmo/UmAWFavyaaOZZfVNw0c6MJwHcKNGQNTlTBh0zIdwdlBzg7x+jreSAF2nS1nqE8h1MkO8eGIHTE4PkSaN7KbDjvY59PVJGIshM3ta+l2Zr+74JgBZqnddTe3/NxE2Le1JKJTN/pg1vkSVLxPNf+XJy1o0CzFAv/OOWH79VyvcckCSBZwLbnNbtzrVrZasVU0e2sUjSzt6OWYWlqX1bL7q+ycMtmU2IDpTbYgkeAAi147NlzGBKwGZy+4sU8p2WLkiKmCMLHsyHwHgH4vqwRxbWg2T5R/mCkWqZgwUJ8FsSibTYLcIiWbkDNK89m46ZKQqDh3raUAYQuBK+zwR13ncY4oTkFGkppDNMsRrT/DGrh1aJkTvD4L5ACba7Gl72qcWZnqsXtUbW8eTYr4EpKoKEv9IlM2BtVpPnb/BVozvXBXraeSQlu/Rdn7cJNoKXrPpcpapmyLU5jwQK9GfkrJ8tmIDPzBke5DCvAMDZY1karhc3x96I8+s3Xmsl7WLOjT5d+rU61U8jzmKYZosePZ4dNREWplf2k9S3PSfyh2AQo0IqNkDeIJAJwFY5AaQi1hrm5vNxY2KB1xC8h/sez2fghXwLNugSRvfdeARYLNxens09rCUMG4ItqvVJvoWlPaekQlH9AZiRifZwNMXII6sf8S0qgobzI92q1cwtst0H2GINToOFnK+w8szTxmq8WSIFmk0kQdP8vdVs7kw4wRlifYIUqKYGGch4o64GabFMda+qLh/M1fwUarrU189zcjs57O58Xde2KK9D8+fw4x1vU54HM4nQbIzZOH6+ZnSi1AVdm72a51mZs8YQtndAm9Oyl8ZO5n3Xs0fng3NlGsD3d5xJNwsn7h5Pt6+67hssq3XEArVPnrjJp0t/sS3wsQQIUaCUIk7eKDAII7kaQN2K0UN/Kljqws4fFrJXuoYi6V2j/01pNT2sh1yj1ayJDzlnCwVrXcJ4vgYbXb9CgeVjA7tfYt/M0Bs5bK0igIeYNX5R4dFrR3tIMzU80UxOB6M6Ad9Wi8oYWMbWFdktKoGGngTFaGgLxZA+eW0/rLmV/GaBeF+LWUEsLzVOgWWaw2jyi5R08Nw1HxuKibcnSPK5SnsKlgRRoGDcyc5GhO0hrtWG3AdusKxk/l5RAg8t49JzsbFlYP1ECxgpv2y8yaeFmdNYys68VRaBZazLczUgAcZZXwX2xvqih5tzBoKhrV1yBhvEU9vODc4vbAiHQkH15dsNGeQQWxp2uWZ3/Wf67xpdtNRuhP9qzt+7ykbe+4vh5c8w+ns49NxHL95LWQkNNtDYJCfp75nyvGCjQvKIp0Rco0EoUJ28WCQQgkh6Zv8NkY2JLIVjGINZQCmGdfiGv05iyyZoJZwvVYrsdCBFU6EfmYdf6Vc22SIg9g3iDmxHZoQUJNBs/BsYQJ8gkRRWNdrVjpI8WwLWtIIGG8+y9IC4RA4b7IAngfi2JAWsZAs1RigLVJn7TwrHbdezYZgfioqQEGsaBWmeI60P/EFSx0eU0C+2oCWJH1ivKcHgKNFyHWDmMBRZFBLYjpg6Fa7HlEwL3UdDVsyabFWgoPVJV181bQ+alM7DfZnG6WUy9JQng3kj8eEqFOaytEJ9Yrx2HM824sS0W3NYlJdDQH6x2KKCM7GDwaKclTbCdGBItNh3MMO9Lt1puuLYoAg3X2aQSGGHx/miuWaBZmla5Ra2Dv+r8YY11FqrFNUVZu5IQaPY9jzH4+vzg9eK2QAi0Oz//xCQBJGgsWe2qVfQPv8qmvtnmg0kmSxNzGNy2nVzSslW+6azckygv/7REtwI7ZkpxtIyPF+w+gAK2VStWNOIMpTq8NQo0b2RK9jgFWsny5N0ihAAC/j9clWS2n7HbPWHq+PKHsBmmpSxQF8w2CA18mSGb0TaINbiHYGFAEc2CBBr6hBULGYD7UjNNAD3u5ekiLIxAQ9mNEVomAdYmp6vwd/1SfVW3C8KXum34Mhulldu3qaBAdmJJCjT0gTnNxZ6mh9PNlk2I27pNsy9RTgPcUHjVuYWPHRdELUSXLSFij4Mj9jfFTgnOOmlWoNnzvD12162s7j27Ts7LRRVouAGyHV/4cbexJOFnWFEvbhFr9rZ8QeMOS1Kg4f5wQb+m6/eruqqxfZZtSEo5rWZls5OFc7cK+3pRBRquh1UM1lf07WxtVSDeogINmaWezd+1KwmBVtjPj+dYi/JzIATaO8t+kxWJibpDRPauFM5xwmJ2pcaQoa6ZtwZB9uavv+S5Hnt2DleXZYPY3D/4PK9H2Z6rBl0qh1TMod15172COm9sJU+AAq3kmfKOEUQAX4F7VczA2oPtnrBJNLaP8tawwfpuPTdBLVSwosDyEGoNFh9YovCFizIP2OcyEA1i0bn7wnVakBY12JCtCTeatwaBBvEIlhCTcC1DkIRKw3tk10merXQzcm+lMkpyvBAjWEPUsYNLHUy8beheUv3CnQkrMdgjFg6V/Qtqob52BY0/FF4/qPXOktKOahHidP3dU1F/t1RRS3R+UextrIg7230kWa2uNYz1zNt59vjGjevltmE3mR8TdKeCt9/5QCpUyJ+Fbc/nY9EJUKAVnR2vJAESKCUCtowDLGCI22MjARIIDQIzPv5AXn55qhnMffeNkQEDrwiNgZXBUVCglcFF5ZRIIFwIfKU7FjRQqyO2SrJGL1hisFn66n1pugF3/himcJkbx0kCZZHAhAljZbFmgdbVzdTfemu6lC9fsKW0LHIIxJwo0AJBmX2QAAm4EkBQO7IBEa+H3RWO6e5X2w6lG9cmaqON714vZz9R1xvwIAmQQEAJPDxutBzRnQquGny19NQMUbbSI0CBVnpseWcSIIECCPy8K8VkNW5KytBA+iwTa4aMWGTGXqiZqdaqVsBt+DIJkAAJlDkCFGhlbkk5IRIgARIgARIggXAnQIEW7ivI8ZMACZAACZAACZQ5AhRoZW5JOSESIAESIAESIIFwJ0CBFu4ryPGTAAmQAAmQAAmUOQIUaGVuSTkhEiABEiABEiCBcCdAgRbuK8jxkwAJkAAJkAAJlDkCFGhlbkk5IRIgARIgARIggXAnQIEW7ivI8ZMACZAACZAACZQ5AhRoZW5JOSESIAESIAESIIFwJ0CBFu4ryPGTAAmQAAmQAAmUOQIUaGVuSTkhEiABEiABEiCBcCdAgRbuK8jxF4nAij1psjM5w+z92KNJtZx7LNfju1yO55zAJyRQSALfbUmWo1nHpX61itKuduWcq7wdzzkhTJ+cOHFCTjnF/91Ti3pdmGLisEmg0AQo0AqNiieWJQIvLkmUBfoFWiumvLw2oGnO1KbqcXyBeh6HoPto1QFzXp2qFeSOLrVzrrFPPll7UH7Rzb/RzmpYVfq1rG6eH0jLkme+32WeO/+LrRglCVXKS/s6Meb8gr7acP9F25LNLS47tYac3zhXWDrvm3X8hDw8f7vzkHmO/mpXqSCn1qwkEKXlCuow3x0i+0Cmct2ZnClRyg0buhfUbv9ss+xLzZKeynrUWXVyTh/+6WbZr++JC5pWk7u75R7POSFIT9KyMuWbTRtl9d69ZgSXn9ZGWsbX9DmaQ+lH5dO1a2T9/v2SmHJEuVSX1rVqycDWbSQ6KsrrtRuTDsjXGzfI+gP7JSUjQ5rHx0uHuvWkd7MWXq/hCyQQaQQo0CJtxTlfQ8BfgbZo6xF54cfd5lromldV1EHE2abGAxmuX8gQY2iXtqout3ZMMM/3pGTKHZ9vMc+9/de0RrQ8dkF9qaYiylsb9eVW2aHWPbRO9WJkfPf6rqdmHjsh13y8wfU1e7CBWnXGnFdXGhVCaNhrIv1x++EMuWf2VqlRKUr+dVmzAnGEi0BLTk+XuRvXG3F2NCv7/YvJjex6lnSs5/4ew+tJaWky+YdFknjkiESVKyd1qlSVXUeSBRYxCLt7zj5XLdS5nxFcg7Z2316ZtuQHST92zLweGx0te1Ky/7C5sHkL+XO7MwWfMTYSiHQCFGiR/g6I0PkXVaDFVy5vRNiN7WvJ5a1r5NBbuTdNJn6zQ+zr3gTaMxc1lHpqgUM7knFcNiSly5u/7TP37FK/iow7v17OPZ1Pdh3JlLu+2CKw3h1UEajGHHnzimbGRes8D8+dAg0i7tSa0eaUg0ePCVy47604oH0fE4jCZ3U85WlK80To+nNZFGj701Jlwvx5+p45ZkRRBxVkK/ckSob+XJBAm/T9Qvlj/z5pERcvo1SMxVTQ9+bRo4Lje9Sadm6jxnJLx855WEIAjp7zpaTrI8TYn05vpxbJcuY+f/txsRkHrsG1bCQQ6QQo0CL9HRCh8y+qQDtdY4lSVVipwUCeu6hRDr3Xf94r8zcdVhdNrHy14ZBXC9q0fk00JilboNmL/7smSd5Ztt+4HP8zqIVUgA/No8G9+dbv+8x9IdZ+2ZUqD55b17hGPU7NI9Ce7NVA2iTkxj/h3N8TU+XxBTvNZRCEEIZsBRMoiwJtt1q8Hv3ma+naoKH0b3Wqvjdj5d7Znxu3oy+BBgE2/uu5+p49RZ6+6BL9wyT3PTZ7/R/y8aqVUjEqSiZf0j+PFW3hls3y799/lXrVqqnF+EJzvSU/VQXaChWHrWrWlAfP62EP85EEIpYABVrELn1kT7w4Aq1j3RgjqF7u30TqqkVLPYoy7JNNclqtSgLXIQSXNwuam0DbqFa0MXO3mQV55dImJk7Mc3UeUevcarXSwSK260iGvPHrPq8xTE4LmptAw72H6nhhUbvhzJpy5Wlxnt3Jkh0p8vPOFNl8MF0Qe9VMrW3dNZYKc/fWEKe3aGuyurcqyUXNY2X1vqOyVO8DQQjJCT5XaF9O17C9F4Lpv1h3SDZpf1sPZRixiuD68xtXlW4Nqpq4L3uufTyUfiz7mqSj6vrNVBdbBWkVH236qFxBFbRHW7ztiCzTsXRWQYqg/dnrD6m1KE2tPVnSpEZFGdw2XppUzxtb9pOO38YVpmQeF9yjogpoxJU5G0Sw57Hiujh/VyHzrYon24bffqdUdgghe7w4j6mZmWpNzdD3XK5IL4xAm7lmlXz+x1pjPRvbvWfOEGBBmzB/riZHZLtKb+rQSdewSc7rzy76zsSdQQxe2eb0nOPLEncbt6c98NcLL84zJnucjyQQSQQo0CJptTnXHALFEWh3dq0tIzWm7PozasqgNnHy+261SH23U+47u64RNP4KtDd+3SufqzhprOLghUvyu3YOqxCBoIpSa8VbVzaX/Rp4fveXWyQ2OjsWytNDWRiBZuPZIM4g0myDUII1EAkUaFVU6Kj+lFQVJxBZl7WOkxvb556Pc2yDwPqXzgWiCkkITy/cZa61r+Pxz+3i5WoVQs4G9/BLP+1RoZRpDlfVOLxjKgrTdCxot3aspYI3152MY78p82k/JRqRicTBuErlJelolsY/iRHND51Xz/DEubbBlfzpHwfVNR0nGw8eleWJaRrIforGQmGGItHly8nTFzbMI9LeXb5fZqxOsrfw+nihWk5H6vvC2Yor0Gb+9yOZNu2FnFt+POMzqVEjv5jOOaGEntzz5We63pk+XZzW2tW/VWsVWm1zen516RIVtDuNJW5H8mH9I6KZXH9mh5zXR372iQr+Y3LfOedJ24RsXohFe3T+PMnQ42iIibu9Sze17DbIuY5PSCASCVCgReKqc86yVK1DW9RSAwFisy2BxdtxmyQAF+fjFzSQh+ZtF2RLTr64kby8dI+xHL15eXP5UDM9fQm0YZ0SpKbGsUESJKvwWqNWJmSNxmrg+YjOCa7uxm83JxsxcmadyvJoz+wvLSQdQNC4WcgKEmiIP7v1k81GBCGLENmEtr328x6Zs+GwyVK8SwVHK834RIM17IUfdpvswzHqWj1bs1Q9mxVoyBJFCRO4TvtqJmtDtYTB2gW2iHdz8oYVD7F1EGNnNahiEitgYQOfRHXlfrDygLRQq5hToMHiNWr2FslSYXWVCuRBbeJVXKnQyjohby/bJ1+qZQzxdZP6NDKWODtOK9BgAcMYMXesBcY1fcV+Y7nzzKw00i1bv8l2ndO9J5ME/jmwmb1t9qOKRAhYZ8M4YHWDVa6rw40MTqk636Z63Jd7OZQF2uML5su2Q4dUfLXX909zM21rBeupogzuzbkb1msyS325Q5MN0JAlOuqLz8zzx3tdZNyc+OHDlSv0PbdOhqsom73uD12Hg3LtGWcyo9OQ4n+RTIACLZJXn3MvNAFPgWZjwiDQkBxwppbKGK3CBbFkvgSaW4et1fX34Ln1THag2+uTFu+WH7cfUctVbmKCFVKXaaLCTXrc2XwJtDQVDC+q5QmuO4ilqX0bG4sTroc7c7S6WmPUkjRFLXmershvNh82li6U6oAr1rNZgYbjA7UMyM0d8o7L83z8DCsYBGh7dZ1O7OGeMQjhBQFmm+Xh1gcsaCNV8EG8eopPK9BgKXt9QBOBpc42WNMeW5Cd5PGPgU3t4TyP/sag5bm4CD+EskBDoP8hdWcO69xFhXUjk5E5Ua1gx08clyd69zElNOAGbaHZnGPPz44nQ7bnI+r+RJt0cT99v1cyYuyv332rLuc6cvdZ58gUzQpFmQ9Py1wR8PESEgh7AhRoYb+EnEAgCHgKNNS3GvHZZhNvte7AUSPOzlGrUkECrY/GZlVT1yQaXJfb1Iq3dv9R42pDrSxPyxTiv26euckUPIX7E25QNAisZ7W2GhIOENfmbE6BhnIcNdT9h3ZQXYDrD6SbfvGzZ/zZ2youZ2r8nJu7DufjvrdpDa9ktcChzEiCo8wIXrcCDW7D11XkOAUQXvdsEFPXzthg7vtk74bSRoVqQQ3uyOu1hIheavqABcyzzdKEin9rQkWvprFyV7dct6MVaGAMK6CzYU7grJpV3h/cMo/lzZ4XaIH2h8Z4/fzzT7Z7GTToTxIdXTCjnAuK+KQwLs4Rn81SC+xxI6rOrFNXLZ3LjcVsZLezNU6xnibMbJDpy5dp1nFVeVIFG9qGAwfkmUULzPOX+g80VranFi4QJCr8RS1qSDR45aSLtEeTpjKkfUdzLv8jgUglQIEWqSvPeftFwFOg4eLxWgwWLspKapH5v8vh1jmlQIHmliSwRK1jz6mVDDFmL/VvnCdJANmaf12405TvcFp2YAm7SQXFMVU5L/ZrbJIT7IScAs0ecz5C5F3TrqZxKTqPQ/BB+GEe+AcBZZt9CmsW+hyr2Z9Otx3OswINCQXPq2WxoAZX5R2fbzauwelXuWevet4DVr4H5mQnVFStmJ0IYMdpx4iQsnR1ITaL03Gom9M2K9C8Wd4Gf7jenPqWli9xE5eBFmh23IF+LIxAu08zPZFcALdkHU0wgBUMwmzESXfm7PXrNJNzhbqa42R8jwvMFHYcPiyPfZud9IDszqU7tmvJl2Xqzmyv7sxsN6mNbbukZStN2mgX6KmzPxIIKQIUaCG1HBxMqBJwE2hWkKCi/31nZ1eEL8iC5ibQMOfHvt1hapQhy3GII2jfujKRPXmdJiU4G1yVsMB5WsKcAm2oFstFhiIakgpqx1TI4y503u++r7aaOKzmKmzgxvTVBqgL09PiZXl001gyBOkX1KxbsbqO6w0VuIVpVsyiFEnnermZh27XxmlcH2L+bLMCDdma12qygrNB3A3+gAINTAoj0CZ+M0+3REs24mrxti2yVwvNIq6surot0WasXilfajwZrGtwXaIlZ6TL/bO/MM/v1SQBJBSgrAdcoHaLqKfVooZdBiDOINLYSCCSCVCgRfLqc+6FJuAm0PCljmxD1IKCawytqALtn7/sNcHtTnGD+2NbILs7genA5T/EsD2lLkLbnALNLYnAnuf5OFFFIspOIKYNsW3+NivQkMWJjNaCGkpqjFZrWAWFN31wi3xB9m7X24LAsFq+Oyjb6uJ2ntsxCjQ3KvmPFUagPb94kdkRoFZMFd3OKkXjIztqGZamOTdDrbOFWvMMJTZQagMNOwzANXpcH3Fd0lEt7tyzlxFp9kLUVkONtaGduqi7P9f6aV/nIwlEEgEKtEhabc61yATcBJrbzYoq0FCEFokHNksU996g8WIPzttmgvm7u+y7makxQBiX6kOz9RAsUWhFFWiv/m+Pbvlz2OyQgIQEf5u/Ag3u0us0Bg0N+6F6JiW49Y9SGsM0AxUNRX2dyQPmoI//wk2gpes+lyknt0DCtOK0Yr+1NPmYZrFfKoxAswIMnZ1as5aMPq97HoGN4rc7tczGIK111q/VqTljsgIMBwaceppgv0/bYGF7QC1s+MNknNZWa67zZSOBSCZAgRbJq8+5F5pAaQs0W4gWZSluO+mWw5ZMKNtxhpb2eExLe7g1W2sLtdmwiwFaUQXa17oTwt+1ZAi2opqqiQfqRfSr+SvQcPN71a0KN62b29Fb53bOnlma3s63x4sr0JDUccusTUYwv1dIi5/tuyiPoZzFiS2esKUT2gS1gjWunmtxxR6dD86dbQTb030u0VImucWNsbH6J2tX656z0fLcxX2VZXYcIe6zZPs2+ecv/5MExLRpoVo/3364BRsJlCkCFGhlajk5mdIiUFoCDdmD/119UGatzS6Gip0CkHmJdv9X27RWW7qJSUNsmlt7Ra1e89Tq5XSNFlWgIbh+9JzsODT0h5g3T5GGKv9wMzprmdlxFUWg2SQIuCyxdRXKbTgbdllADTXnDgZ2LWBxe0RLc3hu+I75L9qWrBaYSnmKzhZXoGFcN8zYaGq23X9OXTmvUf5acM6xF/d5KAs0WLnGz5sje9W96dxzE8df0o3QUROtTUKC3H/O+Xkw7E9NlXHzvjJWMueem0g4eEJrqx1QcXfFaW3l0lNb57mOP5BAJBKgQIvEVeec/SZgRYHTBel2k4JcnCgLEXUyYC1FxRkKmdrmTBCwGY54DbXWUHjVrdmgeZS2ePOK5ib7sqgCDfdfq1mpyBrFuBpptmc73cKopgoh1BXbdDBD1mlJkNZa5PUprbjv2Yoi0HAPFPrFPqawmGAbpuY61yyNU9qiMWq/6o4BqKfmLFSLayZr0Vxsu4RabhCnGCsK12LLJ2w5hWK8qKvmFHwlIdCcOwtAIKLgLZazXe0YQQmVkmyBEmjfbt4on2lJD9sOa30zCC1sfl5BC86iNdBgflT/dzZsqv7yT0vMzgDN1B3ZMj5es5r3mgK2VStWNOKsUfXqzkvMc2tFi1Lr2ekJtfX9FaM7Q+wSWN6Q9Yl+0DcbCUQ6AQq0SH8HcP6FIlBSAs3ZWTUtlArxg7IXECAttWK+bVbs1NBMxH9e1syru8dZbsNufF4cgYb+kZTwmm739KuW+EBJDdsQ63Zazcpmn03n7gP2dTvmwiYJ2OvwCL6Iw/NMiGirAvEWFWjILPVsKJwLQYzdCJwNsXhdVbRdfXq82SnAvlYSAg27R2CHABTX3ZeKfSyzBba32nG276I8Bkqg2ZIYvsYIFyZcmZ4NguzNX3/RHSZSc15CZubwzl2lQax3wfqVluH4Yt1as6UULoRYa6sWt+Gdu+XZXD3npnxCAhFIgAItAhedUyaBwhCAGIFFCnt/QihiM/IqJ2uPFeb6opwDdyZi0iAGEQsX71KI1vO+EGjbDus1+gKsWhgnrmcLHAFYv1BwtpEKOVjPCtMg/XdrqQ4kB8Byhu2h2EiABHIJUKDlsuAzEiABEiABEiABEggJAhRoIbEMHAQJkAAJkAAJkAAJ5BKgQMtlwWckQAIkQAIkQAIkEBIEKNBCYhk4CBIgARIgARIgARLIJUCBlsuCz0iABEiABEiABEggJAhQoIXEMnAQJEACJEACJEACJJBLgAItlwWfkQAJkAAJkAAJkEBIEKBAC4ll4CBIgARIgARIgARIIJcABVouCz4jARIgARIgARIggZAgQIEWEsvAQZAACZAACZAACZBALgEKtFwWfEYCJEACJEACJEACIUGAAi0kloGDIAESIAESIAESIIFcAhRouSz4jARIgARIgARIgARCggAFWkgsAweRmZkpw4YOkWrVYiUuLk46dOgk/foPlJiYGMIhARIgARIggYgjQIEWcUsemhPOysqUMaPvleTkZNm2bYtkZWVJp05dZNLzU0NzwBwVCZAACZAACZQiAQq0UoTLWxeNwPbt22TorUNUpGXKv954R5o2bVa0G/EqEiABEiABEghTAhRoYbpwZX3YI0cOk7VrVstTT02Ss84+t6xPl/MjARIgARIggTwEKNDy4OAPoUJg7EP3y9KlS2TMgw9L376XhsqwOA4SIAESIAESCAgBCrSAYGYn/hIYO/YBWfrTjzJ6zDjp12+Av5fzfBIgARIgARIIawIUaGG9fGV38BRoZXdtOTMSIAESIIGCCVCgFcyIZwSBwIRHHpLFixfJ0GEj5LrrhgRhBOySBEiABEiABIJHgAIteOzZsw8CL06dLLNmzZD2HTrKlCkv+TiTL5EACZAACZBA2SNAgVb21rRMzGjF8mVyzz13SPny5eWZZ6dIx46dy8S8OAkSIAESIAESKAwBCrTCUOI5QSGwYsUymTVzhqxevVJSU1MkPr6WXNCrt9xww81BGQ87JQESIAESIIFAEaBACxRp9uM3AQi0jz96XwXaKsnMzJA6depKjx695Jprb/D7XryABEiABEiABMKJAAVaOK1WBI0VVrO777pdTpw4IWPHTZA+ffpG0Ow5VRIgARIggUgnQIEW6e+AEJ3/tBenyMyZH0vLlq3ktdffDNFRclgkQAIkQAIkUDoEKNBKhyvvWkwCEyaMlcXfL5SbbxkmQ4bcUsy78XISIAESIAESCC8CFGjhtV4RM1oWqo2YpeZESYAESIAEXAhQoLlA4aHgE6BAC/4acAQkQAIkQALBI0CBFjz27NkHAdRAQy20iY8+IT179vZxJl8iARIgARIggbJHgAKt7K1p2M8oKytT/nz1lXLwYJJMe+l1adv29LCfEydAAiRAAiRAAv4QoEDzhxbPLTUCx48fN1s7HUlOlqVLl8jKlcslIaG2vPXv9yQ6OrrU+uWNSYAESIAESCAUCVCgheKqROCY0tPTpX+/XFdm27bt5Pbb75R2Z5wZgTQ4ZRIgARIggUgnQIEW6e+AEJk/CtJu2LBeYmNjpUaNOKlYsWKIjIzDIAESIAESIIHAE6BACzxz9kgCJEACJEACJEACPglQoPnEwxdJgARIgARIgARIIPAEKNACz5w9kgAJkAAJkAAJkIBPAhRoPvHwRRIgARIgARIgARIIPAEKtMAzZ48kQAIkQAIkQAIk4JMABZpPPHyRBEiABEiABEiABAJPgAIt8MzZIwmQAAmQAAmQAAn4JECB5hMPXyQBEiABEiABEiCBwBOgQAs8c/ZIAiRAAiRAAiRAAj4JUKD5xMMXSYAESIAESIAESCDwBCjQAs+cPZIACZAACZAACZCATwIUaD7xRPaLf3lsvOzctVPi4uKlRfMWctnlg6ROnbqRDYWzJwESIAESIIEAEKBACwDkcO3iby9MkrVrV8v27dslNTVFNzKvLm+/84FUrVo1XKfEcZMACZAACZBAWBCgQAuLZQruINPS0uTuu4bLpk0bZdSo++XyK64K7oDYOwmQAAmQAAmUcQIUaGV8gUtqeq+/9rK8//5/5Oqrr5PbR9xZUrflfUiABEiABEiABFwIUKC5QOGh/ASmT39b/vmPV+Xii/vJQ2MfyX8Cj5AACZAACZAACZQYAQq0EkNZtm/03vR35B//eEX69OkrY8dNKNuT5exIgARIgARIIMgEKNCCvADh0j0FWrisFMdJAiRAAiRQFghQoJWFVQzAHD766H155e8vSpcu3eTZ514IQI/sggRIgARIgAQilwAFWuSuvV8zX7Bgvjz+lwkSHR0t/535pXn06wY8mQRIgARIgARIoNAEKNAKjSqyTzxy5IjcOORqOXTokNx663C57vob5ZRTTolsKJw9CZAACZAACZQSAQq0UgJbFm+7e/cu+ejD92TZst8Ez2vVSpAGDRrKE08+WxanyzmRAAmQAAmQQNAIUKAFDX34dQxRhmSB31Wg7du7V+rXr68CrZFMfPSJ8JsMR0wCJEACJEACIUyAAi2EFyeUhoatnm668Vo5cGC/DBh4hdlRICoqKpSGyLGQAAmQAAmQQJkhQIFWZpaydCey8Ltv5THdPB2i7KOPPzX7cpZuj7w7CZAACZAACUQuAQq0yF17v2Zuy2x07NhZnp/8ol/X8mQSIAESIAESIAH/CFCg+ccrYs9modqIXXpOnARIgARIIAgEKNCCAD0cu6RAC8dV45hJgARIgATClQAFWriuXIDH/X9v/EPeeedNufzyQTLqngcC3Du7IwESIAESIIHIIkCBFlnrXeTZTpgwVhZ/v1CG3TZCrr12SJHvwwtJgARIgARIgAQKJkCBVjCjiD0D2zvt2LFDNqz/QxYs+EY5nCKvvf5/0qJFy4hlwomTAAmQAAmQQCAIUKAFgnKY9nHnyNtkzZpVZvR169WXG66/Sfr1HxCms+GwSYAESIAESCB8CFCghc9aBXyk27dvM/ttxsXFS0xMTMD7Z4ckQAIkQAIkEKkEKNAideU5bxIgARIgARIggZAlQIEWskvDgZEACZAACZAACUQqAQq0SF15zpsESIAESIAESCBkCVCghezScGAkQAIkQAIkQAKRSoACLVJXnvMmARIgARIgARIIWQIUaCG7NBwYCZAACZAACZBApBKgQIvUlee8SYAESIAESIAEQpYABVrILg0HRgIkQAIkQAIkEKkEKNAideU5bxIgARIgARIggZAlQIEWskvDgZEACZAACZAACUQqAQq0SF15zpsESIAESIAESCBkCVCghezScGAkQAIkQAIkQAKRSoACLQgrv2zZb/LClOekevUaUrNmTel5QW85//yeUq5cuSCMhl2SAAmQAAmQAAmEGgEKtCCsyOrVK+XVV1+SpKQk2bF9mxnBzbcMkyFDbgnCaNglCZAACZAACZBAqBGgQAvyisz56kt59tkn1ZpWXWb894sgj4bdkwAJkAAJkAAJhAIBCrQgr0J6+lHp3+9CM4rPv/haKlWqFOQRsXsSIAESIAESIIFgE6BAC/YKaP99L7lAMjMz5d13P5S69eqHwIg4BBIgARIgARIggWASoEALJv2Tfffr20syMjLkHRVo9SjQQmBFOAQSIAESIAESCC4BCrTg8je9U6CFwCJwCCRAAiRAAiQQQgQo0EJgMQYOuFhSU1Nk2kuvSdu27UJgRBwCCZAACZAACZBAMAlQoAWT/sm+b73letmyZbPcdNNQufGmW0NgRBwCCZAACZAACZBAMAlQoAWT/sm+333nLXnjjdelQcNGWnJjCuPQQmBNOAQSIAESIAESCCYBCrRg0j/Z94kTJ+TreXNk/vy5snbtGqlYsYJUrRorw4ffIV27nR0CI+QQSIAESIAESIAEAkmAAi2QtL30BYE2b95XgqK169atlSpVqkqNGnFy69Dh0rlzVy9X8TAJkAAJkAAJkEBZJUCBFgIr+/77/5HXX3tZRVkNeUZdnK1atQ6BUXEIJEACJEACJEACwSJAgRYs8o5+hw0dIps2bZSrBv9ZRo4c5XiFT0mABEiABEiABCKRAAVaCKz6ZQMvlpSUFPnb1L/LGWe0D4ERcQgkQAIkQAIkQALBJECBFkz6J/tmodoQWAQOgQRIgARIgARCiAAFWggsBgVaCCwCh0ACJEACJEACIUSAAi3Ii3Hs2DG55OKegkzOj2d8bhIFgjwkdk8CJEACJEACJBBkAhRoQV6A9evXye3Db9baZxXly9nfBHk07J4ESIAESIAESCAUCFCgBWEVEhN3y6KFC+TgwYOmOO3u3bukR48L5NHH/hqE0bBLEiABEiABEiCBUCNAgRaEFfnppx9l3NgHTM9RUVHSvXtPGXHH3ZKQUDsIo2GXJEACJEACJEACoUaAAi0IK5KamiKJu3dLbPUaJuYMIo2NBEiABEiABEiABCwBCjRLgo8kQAIkQAIkQAIkECIEKNBCZCE4DBIgARIgARIgARKwBCjQLAk+kgAJkAAJkAAJkECIEKBAC5GF4DBIgARIgARIgARIwBKgQLMk+EgCJEACJEACJEACIUKAAi1EFoLDIAESIAESIAESIAFLgALNkuAjCZAACZAACZAACYQIAQq0EFkIDoMESIAESIAESIAELAEKNEuCjyRAAiRAAiRAAiQQIgQo0EJkITgMEiABEiABEiABErAEKNAsCT6SAAmQAAmQAAmQQIgQoEDThcjMzJRhQ4dItWqxEhcXJx06dJJ+/QdKTExMiCwTh0ECJEACJEACJBBJBCjQdLWzsjJlzOh7JTk5WbZt26I/Z0mnTl1k0vNTI+m9wLmSAAmQAAmQAAmECAEKNI+F2L59mwy9dYgRbf964x1p2rSZxxn8kQRIgARIgARIgARKlwAFmgvfkSOHydo1q+WppybJWWef63IGD5EACZAACZAACZBA6RGgQHNhO/ah+2Xp0iUy5sGHpW/fS13O4CESIAESIAESIAESKD0CFGgubMeOfUCW/vSjjB4zTvr1G+ByBg+RAAmQAAmQAAmQQOkRoEBzYUuB5gKFh0iABEiABEiABAJGgALNBfWERx6SxYsXydBhI+S664a4nMFDJEACJEACJEACJFB6BCjQXNi+OHWyzJo1Q9p36ChTprzkcgYPkQAJkAAJkAAJkEDpEaBAc2G7YvkyueeeO6R8+fLyzLNTpGPHzi5n8RAJkAAJkAAJkAAJlA4BCjQvXFesWCazZs6Q1atXSmpqisTH15ILevWWG2642csVPEwCJEACJEACJEACJUOAAs0LRwi0jz96XwXaKt0KKkPq1KkrPXr0kmuuvcHLFTxMAiRAAiRAAiRAAiVDgALNhSOsZnffdbucOHFCxo6bIH369HU5i4dIgARIgARIgARIoHQIUKC5cJ324hSZOfNjadmylbz2+psuZ/AQCZAACZAACZAACZQeAQo0F7YTJoyVxd8vlJtvGSZDhtzicgYPkQAJkAAJkAAJkEDpEaBAc2HLQrUuUHiIBEiABEiABEggYAQo0FxQU6C5QOEhEiABEiABEiCBgBGgQHNBjRpoqIU28dEnpGfP3i5n8BAJkAAJkAAJkAAJlB4BCjQPtllZmfLnq6+UgweTZNpLr0vbtqd7nMEfSYAESIAESIAESKB0CVCgKd/jx4+brZ2OJCfL0qVLZOXK5ZKQUFve+vd7Eh0dXborwLuTAAmQAAmQAAmQgAcBCjQFkp6eLv375boy27ZtJ7fffqe0O+NMD1z8kQRIgARIgARIgARKnwAFmjJGQdoNG9ZLbGys1KgRJxUrVix98uyBBEiABEiABEiABLwQoEDzAoaHSYAESIAESIAESCBYBCjQgkWe/ZIACZAACZAACZCAFwIUaF7A8DAJkAAJkAAJkAAJBIsABVqwyLNfEiABEiABEiABEvBCgALNCxgeJgESIAESIAESIIFgEaBACxZ59ksCJEACJEACJEACXghQoHkBw8MkQAIkQAIkQAIkECwCFGjBIs9+SYAESIAESIAESMALAQo0L2B4mARIgARIgARIgASCRYACLVjk2S8JkAAJkAAJkAAJeCFAgeYFDA+TAAmQAAmQAAmQQLAIUKAFizz7JQESIAESIAESIAEvBCjQvIDhYRIgARIgARIgARIIFgEKtGCRZ78kQAIkQAIkQAIk4IUABZoXMDxMAiRAAiRAAiRAAsEiQIEWLPLslwRIgARIgARIgAS8EKBA8wKGh0mABEiABEiABEggWAQo0IJFnv2SAAmQAAmQAAmQgBcCFGhewPAwCZAACZAACZAACQSLAAVasMizXxIgARIgARIgARLwQoACzQsYHiYBEiABEiABEiCBYBGgQAsWefZLAiRAAiRAAiRAAl4I/D/xtkx5eytGRAAAAABJRU5ErkJggg==;" vertex="1" parent="1">
          <mxGeometry x="-150" y="720" width="278.19" height="420" as="geometry" />
        </mxCell>
        <mxCell id="kPXF-EqfMkH5AO7zfkSI-35" value="Add Pod Level" style="text;html=1;strokeColor=#b85450;fillColor=#f8cecc;align=center;verticalAlign=middle;whiteSpace=wrap;rounded=0;" vertex="1" parent="1">
          <mxGeometry x="9.999999999999996" y="670" width="125" height="40" as="geometry" />
        </mxCell>
        <mxCell id="kPXF-EqfMkH5AO7zfkSI-36" value="RDT Metric Collector" style="rounded=1;whiteSpace=wrap;html=1;fillColor=#f8cecc;strokeColor=#b85450;" vertex="1" parent="1">
          <mxGeometry x="410" y="920" width="120" height="60" as="geometry" />
        </mxCell>
        <mxCell id="kPXF-EqfMkH5AO7zfkSI-37" style="edgeStyle=none;html=1;entryX=0.5;entryY=1;entryDx=0;entryDy=0;entryPerimeter=0;fontSize=16;exitX=1;exitY=0.5;exitDx=0;exitDy=0;" edge="1" parent="1" source="kPXF-EqfMkH5AO7zfkSI-36" target="kPXF-EqfMkH5AO7zfkSI-41">
          <mxGeometry relative="1" as="geometry">
            <Array as="points">
              <mxPoint x="576" y="950" />
            </Array>
          </mxGeometry>
        </mxCell>
        <mxCell id="kPXF-EqfMkH5AO7zfkSI-38" value="Resctrl File System" style="sketch=0;outlineConnect=0;fontColor=#232F3E;gradientColor=none;fillColor=#3F8624;strokeColor=none;dashed=0;verticalLabelPosition=bottom;verticalAlign=top;align=center;html=1;fontSize=12;fontStyle=0;aspect=fixed;pointerEvents=1;shape=mxgraph.aws4.file_system;" vertex="1" parent="1">
          <mxGeometry x="430" y="1040" width="78" height="73" as="geometry" />
        </mxCell>
        <mxCell id="kPXF-EqfMkH5AO7zfkSI-39" value="&lt;div style=&quot;text-align: left; font-size: 16px;&quot;&gt;&lt;span style=&quot;background-color: initial; font-size: 16px;&quot;&gt;Opens:&lt;/span&gt;&lt;/div&gt;&lt;div style=&quot;text-align: left; font-size: 16px;&quot;&gt;&lt;span style=&quot;background-color: initial; font-size: 16px;&quot;&gt;1. runc help to create dir&lt;/span&gt;&lt;/div&gt;&lt;div style=&quot;text-align: left; font-size: 16px;&quot;&gt;&lt;span style=&quot;background-color: initial; font-size: 16px;&quot;&gt;2. who will trigger rdt update&lt;/span&gt;&lt;/div&gt;&lt;div style=&quot;text-align: left; font-size: 16px;&quot;&gt;&lt;span style=&quot;background-color: initial; font-size: 16px;&quot;&gt;3. how to collect based on monitor group or pod ?&lt;/span&gt;&lt;/div&gt;&lt;div style=&quot;text-align: left; font-size: 16px;&quot;&gt;&lt;span style=&quot;background-color: initial; font-size: 16px;&quot;&gt;4. modify rdt by runc or koordlet&lt;/span&gt;&lt;/div&gt;&lt;div style=&quot;text-align: left; font-size: 16px;&quot;&gt;&lt;span style=&quot;background-color: initial; font-size: 16px;&quot;&gt;5. one user specify monitor group containes mutilple pods (optional)&lt;/span&gt;&lt;/div&gt;&lt;div style=&quot;text-align: left; font-size: 16px;&quot;&gt;&lt;span style=&quot;background-color: initial; font-size: 16px;&quot;&gt;&lt;br&gt;&lt;/span&gt;&lt;/div&gt;&lt;div style=&quot;text-align: left; font-size: 16px;&quot;&gt;&lt;span style=&quot;background-color: initial; font-size: 16px;&quot;&gt;3&amp;amp;5 monitor policy&lt;/span&gt;&lt;/div&gt;" style="text;html=1;strokeColor=none;fillColor=none;align=center;verticalAlign=middle;whiteSpace=wrap;rounded=0;fontSize=16;" vertex="1" parent="1">
          <mxGeometry x="769" y="555" width="560" height="200" as="geometry" />
        </mxCell>
        <mxCell id="kPXF-EqfMkH5AO7zfkSI-40" style="edgeStyle=none;html=1;fontSize=16;entryX=-0.002;entryY=0.442;entryDx=0;entryDy=0;entryPerimeter=0;" edge="1" parent="1" source="kPXF-EqfMkH5AO7zfkSI-41" target="kPXF-EqfMkH5AO7zfkSI-42">
          <mxGeometry relative="1" as="geometry">
            <mxPoint x="849.9999999999995" y="880" as="targetPoint" />
          </mxGeometry>
        </mxCell>
        <mxCell id="kPXF-EqfMkH5AO7zfkSI-41" value="store" style="shape=cylinder3;whiteSpace=wrap;html=1;boundedLbl=1;backgroundOutline=1;size=15;fontSize=16;fillColor=none;" vertex="1" parent="1">
          <mxGeometry x="541" y="860" width="69" height="40" as="geometry" />
        </mxCell>
        <mxCell id="kPXF-EqfMkH5AO7zfkSI-42" value="ctrl_group_id -&amp;gt; ctrl_group(class/pod/container info, group 具体信息)&lt;br&gt;mon_group_id -&amp;gt; mon_group(class/pod/container info, group 具体信息)" style="whiteSpace=wrap;html=1;shape=mxgraph.basic.document;fontSize=16;fillColor=none;" vertex="1" parent="1">
          <mxGeometry x="810" y="820" width="519" height="135" as="geometry" />
        </mxCell>
        <mxCell id="kPXF-EqfMkH5AO7zfkSI-43" value="换组，&lt;br&gt;更改schemata&lt;br&gt;policy of monitor/ctrl group&lt;br&gt;closid number?" style="text;html=1;align=center;verticalAlign=middle;resizable=0;points=[];autosize=1;strokeColor=none;fillColor=none;fontSize=16;" vertex="1" parent="1">
          <mxGeometry x="1035" y="335" width="210" height="90" as="geometry" />
        </mxCell>
        <mxCell id="kPXF-EqfMkH5AO7zfkSI-44" value="map: group_id -&amp;gt; cgroup_path" style="text;html=1;align=center;verticalAlign=middle;resizable=0;points=[];autosize=1;strokeColor=none;fillColor=none;fontSize=16;" vertex="1" parent="1">
          <mxGeometry x="560" y="1090" width="240" height="30" as="geometry" />
        </mxCell>
        <mxCell id="kPXF-EqfMkH5AO7zfkSI-45" value="&lt;ol&gt;&lt;li&gt;RDT runtime hook init的时候根据configmap, 建立class level的ctrl group和monitor group&lt;/li&gt;&lt;li&gt;RDT runtime hook subscribe RunPodSandbox, CreateContainer, UpdateContainer, RemovePodSandbox&lt;/li&gt;&lt;ul&gt;&lt;li&gt;&lt;span style=&quot;background-color: initial;&quot;&gt;RunPodSandbox&amp;nbsp;&lt;/span&gt;&lt;/li&gt;&lt;ul&gt;&lt;li&gt;if this pod belongs to GA, then create extra pod monitor group for the GA pod (runc not support ?)&lt;/li&gt;&lt;li&gt;else if this pod has specific annotation like schemata, then create extra pod ctrl group and monitor group for this pod by runc&lt;/li&gt;&lt;li&gt;else do nothing&lt;/li&gt;&lt;/ul&gt;&lt;li&gt;&lt;span style=&quot;background-color: initial;&quot;&gt;&amp;nbsp;CreateContainer&lt;/span&gt;&lt;br&gt;&lt;/li&gt;&lt;ul&gt;&lt;li&gt;&lt;span style=&quot;background-color: initial;&quot;&gt;if this pod belongs to GA, then put the taskid into GA group ctrl group (runc)&lt;/span&gt;&lt;/li&gt;&lt;li&gt;&lt;span style=&quot;background-color: initial;&quot;&gt;else if this pod has specific annotation like schemata, then put the taskid into pod&#39;s ctrl group&lt;/span&gt;&lt;/li&gt;&lt;li&gt;&lt;span style=&quot;background-color: initial;&quot;&gt;else put the taskid into BE group ctrl group&lt;/span&gt;&lt;/li&gt;&lt;/ul&gt;&lt;li&gt;UpdateContainer&lt;/li&gt;&lt;ul&gt;&lt;li&gt;if this pod has specific annotation like schemata, then update the pod&#39;s schemata&lt;br&gt;&lt;/li&gt;&lt;li&gt;&lt;font color=&quot;#ff0000&quot;&gt;Change Pod&#39;s class level ?&lt;/font&gt;&lt;/li&gt;&lt;/ul&gt;&lt;li&gt;RemovePodSandbox&lt;/li&gt;&lt;ul&gt;&lt;li&gt;if this pod has specific annotation like schemata, then delete this pod ctrl and monitor group&lt;/li&gt;&lt;/ul&gt;&lt;/ul&gt;&lt;/ol&gt;" style="text;html=1;align=left;verticalAlign=middle;resizable=0;points=[];autosize=1;strokeColor=none;fillColor=none;fontSize=16;" vertex="1" parent="1">
          <mxGeometry x="1420" y="365" width="1020" height="420" as="geometry" />
        </mxCell>
        <mxCell id="kPXF-EqfMkH5AO7zfkSI-46" value="Class level group:&amp;nbsp;" style="text;html=1;align=center;verticalAlign=middle;resizable=0;points=[];autosize=1;strokeColor=none;fillColor=none;fontSize=16;fontColor=#000000;" vertex="1" parent="1">
          <mxGeometry x="1430" y="75" width="160" height="30" as="geometry" />
        </mxCell>
      </root>
    </mxGraphModel>
  </diagram>
</mxfile>
